<?xml version="1.0" encoding="UTF-8" standalone="no"?>
<svg
   xmlns:dc="http://purl.org/dc/elements/1.1/"
   xmlns:cc="http://creativecommons.org/ns#"
   xmlns:rdf="http://www.w3.org/1999/02/22-rdf-syntax-ns#"
   xmlns:svg="http://www.w3.org/2000/svg"
   xmlns="http://www.w3.org/2000/svg"
   viewBox="0 0 165.51733 95.019203"
   height="95.019203"
   width="165.51733"
   xml:space="preserve"
   id="svg2"
   version="1.1"><metadata
     id="metadata8"><rdf:RDF><cc:Work
         rdf:about=""><dc:format>image/svg+xml</dc:format><dc:type
           rdf:resource="http://purl.org/dc/dcmitype/StillImage" /></cc:Work></rdf:RDF></metadata><defs
     id="defs6"><clipPath
       id="clipPath18"
       clipPathUnits="userSpaceOnUse"><path
         id="path16"
         d="M 0,71.264 H 124.138 V 0 H 0 Z" /></clipPath></defs><g
     transform="matrix(1.3333333,0,0,-1.3333333,0,95.0192)"
     id="g10"><g
       id="g12"><g
         clip-path="url(#clipPath18)"
         id="g14"><g
           transform="translate(96.5753,57.3104)"
           id="g20"><path
             id="path22"
             style="fill:#83c8ef;fill-opacity:1;fill-rule:nonzero;stroke:none"
             d="m 0,0 c -2.649,1.533 -5.398,2.87 -8.264,4.025 0.291,1.016 0.588,2.026 0.901,3.031 -1.808,-0.378 -3.572,-0.862 -5.286,-1.451 -3.175,1.015 -6.451,1.796 -9.807,2.313 1.724,-1.343 3.393,-2.769 5.001,-4.274 -1.78,-0.854 -3.492,-1.819 -5.126,-2.889 2.482,0.344 4.968,0.55 7.446,0.61 1.697,-1.74 3.314,-3.576 4.848,-5.504 0.384,1.804 0.807,3.596 1.269,5.376 C -5.975,1.029 -2.974,0.619 0,0" /></g><g
           transform="translate(108.4552,43.9936)"
           id="g24"><path
             id="path26"
             style="fill:#1c63b7;fill-opacity:1;fill-rule:nonzero;stroke:none"
             d="m 0,0 c 2.103,-0.638 4.176,-1.37 6.213,-2.196 -2.111,2.624 -4.42,5.077 -6.906,7.335 -0.353,1.82 -0.817,3.601 -1.384,5.335 -0.009,0.004 -0.021,0.007 -0.031,0.012 -0.716,-0.778 -1.447,-1.546 -2.184,-2.307 -2.391,1.877 -4.95,3.607 -7.588,5.137 1.985,-2.23 3.865,-4.639 5.563,-7.174 -1.317,-1.298 -2.664,-2.569 -4.035,-3.811 2.432,-0.366 4.841,-0.854 7.219,-1.464 0.215,-0.388 0.426,-0.78 0.632,-1.177 0.952,-1.839 1.806,-3.703 2.571,-5.583 0.08,1.481 0.088,2.981 0.017,4.495 C 0.067,-0.93 0.033,-0.466 0,0" /></g><g
           transform="translate(93.9947,41.2635)"
           id="g28"><path
             id="path30"
             style="fill:#1c8cd5;fill-opacity:1;fill-rule:nonzero;stroke:none"
             d="M 0,0 C -0.182,0.351 -0.369,0.698 -0.556,1.045 1.032,2.348 2.586,3.687 4.109,5.061 1.643,5.431 -0.842,5.675 -3.34,5.792 -4.7,7.925 -6.161,9.964 -7.707,11.908 -8.136,9.902 -8.515,7.88 -8.849,5.843 -11.573,5.764 -14.3,5.53 -17.023,5.14 c 2.571,-1.096 5.088,-2.306 7.543,-3.616 -0.327,-2.546 -0.59,-5.108 -0.768,-7.695 2.134,1.444 4.234,2.945 6.273,4.506 C -1.597,-3.147 0.707,-4.729 2.936,-6.41 2.067,-4.249 1.09,-2.111 0,0" /></g><g
           transform="translate(104.1188,20.263)"
           id="g32"><path
             id="path34"
             style="fill:#1c63b7;fill-opacity:1;fill-rule:nonzero;stroke:none"
             d="m 0,0 c -0.24,0.045 -0.593,0.08 -1.057,0.111 -0.466,0.035 -0.981,0.051 -1.541,0.051 -1.085,0 -1.891,-0.195 -2.423,-0.586 -0.53,-0.39 -0.794,-0.931 -0.794,-1.626 0,-0.672 0.221,-1.194 0.666,-1.574 0.442,-0.377 1.228,-0.569 2.355,-0.569 0.606,0 1.147,0.033 1.623,0.097 0.476,0.068 0.866,0.133 1.171,0.198 z M 3.8,-6.109 C 3.107,-6.346 2.187,-6.59 1.037,-6.839 -0.11,-7.088 -1.462,-7.211 -3.022,-7.211 c -1.169,0 -2.17,0.119 -3.003,0.355 -0.835,0.238 -1.51,0.57 -2.033,0.993 -0.52,0.422 -0.899,0.936 -1.134,1.542 -0.24,0.607 -0.36,1.287 -0.36,2.046 0,1.537 0.554,2.755 1.658,3.654 1.104,0.899 2.868,1.349 5.296,1.349 0.43,0 0.895,-0.017 1.395,-0.048 C -0.705,2.645 -0.305,2.608 0,2.566 v 0.682 c 0,0.561 -0.093,1.021 -0.277,1.379 -0.186,0.359 -0.428,0.633 -0.731,0.828 -0.303,0.195 -0.665,0.329 -1.09,0.407 -0.421,0.076 -0.87,0.114 -1.347,0.114 -0.974,0 -1.911,-0.114 -2.81,-0.341 -0.898,-0.23 -1.608,-0.44 -2.127,-0.634 v 3.183 c 0.26,0.108 0.585,0.227 0.974,0.357 0.39,0.132 0.839,0.251 1.35,0.359 0.507,0.107 1.048,0.199 1.623,0.275 0.575,0.076 1.165,0.114 1.771,0.114 2.335,0 4.001,-0.544 4.986,-1.622 C 3.307,6.58 3.8,5.055 3.8,3.087 Z M -17.484,5.619 c -0.281,0.043 -0.648,0.093 -1.106,0.146 -0.454,0.051 -0.961,0.081 -1.526,0.081 -0.604,0 -1.185,-0.04 -1.736,-0.114 -0.553,-0.075 -1.015,-0.169 -1.382,-0.277 V -6.823 h -3.8 V 8.153 c 0.801,0.302 1.749,0.567 2.844,0.795 1.093,0.227 2.311,0.341 3.653,0.341 0.649,0 1.248,-0.027 1.787,-0.082 0.538,-0.055 0.963,-0.114 1.266,-0.179 z m -19.153,0.649 c -1.109,0 -2.012,-0.334 -2.714,-1.008 -0.705,-0.671 -1.11,-1.601 -1.218,-2.792 h 7.535 c 0,1.102 -0.297,2.011 -0.894,2.727 -0.595,0.715 -1.499,1.073 -2.709,1.073 m 6.3,-12.212 c -0.347,-0.154 -0.714,-0.309 -1.105,-0.472 -0.39,-0.161 -0.83,-0.309 -1.315,-0.44 -0.489,-0.128 -1.024,-0.232 -1.609,-0.308 -0.584,-0.075 -1.246,-0.113 -1.98,-0.113 -2.534,0 -4.521,0.704 -5.961,2.112 -1.441,1.407 -2.161,3.419 -2.161,6.04 0,1.3 0.19,2.469 0.568,3.509 0.38,1.04 0.921,1.915 1.626,2.631 0.702,0.713 1.554,1.267 2.549,1.658 0.997,0.388 2.112,0.584 3.345,0.584 1.257,0 2.334,-0.202 3.233,-0.602 0.897,-0.4 1.64,-0.947 2.227,-1.64 0.583,-0.694 1.011,-1.5 1.281,-2.42 0.272,-0.921 0.405,-1.888 0.405,-2.906 0,-0.371 -0.004,-0.701 -0.017,-0.992 -0.011,-0.293 -0.025,-0.535 -0.047,-0.73 h -11.305 c 0.021,-0.521 0.119,-1.019 0.293,-1.495 0.173,-0.478 0.456,-0.905 0.844,-1.284 0.39,-0.377 0.898,-0.678 1.528,-0.892 0.627,-0.217 1.397,-0.324 2.305,-0.324 1.192,0 2.242,0.15 3.151,0.452 0.91,0.303 1.636,0.586 2.177,0.847 z M -54.608,5.65 c -0.628,0 -1.222,-0.06 -1.786,-0.178 -0.563,-0.12 -1.019,-0.244 -1.363,-0.374 v -8.315 c 0.367,-0.174 0.794,-0.308 1.282,-0.407 0.488,-0.096 1.066,-0.146 1.738,-0.146 1.386,0 2.491,0.407 3.313,1.218 0.823,0.812 1.234,2.02 1.234,3.621 0,1.452 -0.405,2.578 -1.218,3.38 -0.812,0.801 -1.88,1.201 -3.2,1.201 m -6.951,2.017 c 0.867,0.387 1.905,0.755 3.119,1.103 1.212,0.344 2.599,0.519 4.158,0.519 1.365,0 2.55,-0.224 3.556,-0.665 1.007,-0.446 1.841,-1.039 2.501,-1.773 0.661,-0.737 1.154,-1.586 1.478,-2.549 0.326,-0.963 0.488,-1.966 0.488,-3.002 0,-1.366 -0.206,-2.579 -0.617,-3.64 -0.412,-1.063 -0.981,-1.956 -1.705,-2.679 -0.728,-0.727 -1.571,-1.284 -2.534,-1.673 -0.965,-0.391 -1.998,-0.585 -3.102,-0.585 -0.78,0 -1.463,0.066 -2.047,0.194 -0.585,0.13 -1.084,0.283 -1.493,0.455 v -7.599 h -3.802 z m -26.279,0.582 c 0.39,0.108 0.845,0.222 1.364,0.342 0.521,0.119 1.088,0.233 1.705,0.34 0.618,0.108 1.261,0.194 1.932,0.261 0.672,0.065 1.344,0.097 2.014,0.097 1.04,0 2.01,-0.104 2.909,-0.307 0.896,-0.207 1.607,-0.55 2.127,-1.023 0.65,0.301 1.418,0.6 2.306,0.892 0.888,0.29 1.948,0.438 3.183,0.438 2.014,0 3.476,-0.462 4.386,-1.381 0.908,-0.92 1.364,-2.269 1.364,-4.043 V -6.823 h -3.8 v 9.972 c 0,0.91 -0.224,1.575 -0.666,1.999 -0.445,0.421 -1.219,0.632 -2.322,0.632 -0.629,0 -1.22,-0.059 -1.771,-0.179 -0.553,-0.12 -1.013,-0.254 -1.381,-0.406 0.066,-0.259 0.113,-0.568 0.146,-0.926 0.032,-0.357 0.049,-0.709 0.049,-1.054 V -6.823 h -3.801 v 9.875 c 0,1.039 -0.232,1.752 -0.697,2.143 -0.467,0.389 -1.252,0.585 -2.356,0.585 -0.564,0 -1.105,-0.037 -1.624,-0.113 -0.52,-0.077 -0.943,-0.158 -1.267,-0.243 V -6.823 h -3.8 z M 6.68,16.458 h 3.802 V -6.823 H 6.68 V 9.346 Z M -15.825,8.866 h 3.8 V -6.823 h -3.8 v 8.04 z m -78.824,7.592 h 3.799 V -6.823 h -3.799 V 9.175 Z" /></g></g></g></g></svg>