<?xml version="1.0" encoding="UTF-8" standalone="no"?>
<svg
   version="1.0"
   width="1797.000000pt"
   height="1080.000000pt"
   viewBox="0 0 1797.000000 1080.000000"
   preserveAspectRatio="xMidYMid meet"
   id="svg66"
   sodipodi:docname="isi-logo.svg"
   inkscape:version="1.1.1 (3bf5ae0d25, 2021-09-20)"
   xmlns:inkscape="http://www.inkscape.org/namespaces/inkscape"
   xmlns:sodipodi="http://sodipodi.sourceforge.net/DTD/sodipodi-0.dtd"
   xmlns="http://www.w3.org/2000/svg"
   xmlns:svg="http://www.w3.org/2000/svg">
  <defs
     id="defs70" />
  <sodipodi:namedview
     id="namedview68"
     pagecolor="#ffffff"
     bordercolor="#666666"
     borderopacity="1.0"
     inkscape:pageshadow="2"
     inkscape:pageopacity="0.0"
     inkscape:pagecheckerboard="0"
     inkscape:document-units="pt"
     showgrid="false"
     inkscape:zoom="0.44722222"
     inkscape:cx="1198.5093"
     inkscape:cy="718.88199"
     inkscape:window-width="1920"
     inkscape:window-height="1017"
     inkscape:window-x="1358"
     inkscape:window-y="260"
     inkscape:window-maximized="1"
     inkscape:current-layer="g64" />
  <g
     transform="translate(0.000000,1080.000000) scale(0.100000,-0.100000)"
     fill="#000000"
     stroke="none"
     id="g64">
    <path
       d="m 2567.247,10247.64 c -12.6,-9.9 -18,-27 -21.6,-67.5 l -4.5,-54 -354.6,-265.5001 c -348.3,-261.9 -354.6,-266.4 -317.7,-266.4 h 37.8 v -372.6 -371.7 l -118.8,-10.8 c -65.7,-6.3 -134.1,-14.4 -151.2,-17.1 l -32.4,-6.3 76.5,-316.8 76.5,-317.7 -425.7,-3250.8 c -234,-1788.3 -426.60001,-3264.3 -429.30001,-3278.7 -4.5,-24.3 4.5,-38.7 80.1,-126.9 190.80001,-224.1 396.00001,-360.9 633.60001,-423.9 77.4,-20.7 107.1,-23.4 236.7,-24.3 172.8,-0.9 233.1,9.9 427.5,73.8 296.1,97.2 610.2,288.9 1138.5,694.8 421.2,324 682.2,508.5 781.2,552.6 36,16.2 38.7,19.8 34.2,45 -2.7,15.3 -182.7,1312.2 -401.4,2882.7 l -396,2853.9 76.5,316.8 c 42.3,174.6 75.6,318.6 74.7,320.4 -1.8,0.9 -71.1,7.2 -153.9,13.5 l -150.3,11.7 v 375.3 376.2 l 36,2.7 36.9,2.7 -355.5,265.5 -355.5,265.5001 -0.9,51.3 c 0,71.1 -32.4,99 -77.4,66.6 z m -435.6,-837.9001 c 0,-140.4 -2.7,-186.3 -10.8,-189 -6.3,-1.8 -45,-5.4 -85.5,-9 l -74.7,-5.4 v 193.5 194.4 h 85.5 85.5 z m 216,5.4 v -178.2 l -60.3,-5.4 c -34.2,-3.6 -70.2,-6.3 -81,-6.3 h -20.7 v 184.5 184.5 h 81 81 z m 441,-0.9 v -180 h -193.5 -193.5 v 180 180 h 193.5 193.5 z m 225,-5.4 v -186.3 l -54.9,6.3 c -30.6,2.7 -69.3,5.4 -85.5,5.4 h -30.6 v 180 180 h 85.5 85.5 z m 216,-8.1 v -194.4 l -69.3,5.4 c -38.7,3.6 -75.6,7.2 -81,9 -9,2.7 -11.7,48.6 -11.7,189 v 184.5 h 81 81 z m 260.1,-2286 c 81.9,-585.9 145.8,-1068.3 143.1,-1071 -2.7,-2.7 -61.2,4.5 -129.6,17.1 -137.7,25.2 -273.6,44.1 -444.6,61.2 -153,16.2 -764.1,15.3 -931.5,0 -156.6,-15.3 -371.7,-42.3 -471.6,-61.2 -41.4,-7.2 -76.5,-11.7 -78.3,-9.9 -3.6,3.6 257.4,2023.2 270.9,2101.5 l 5.4,28.8 h 744.3 744.3 z m -3.6,-2333.7 36,-6.3 24.3,-211.5 c 30.6,-270.9 30.6,-264.6 5.4,-258.3 -10.8,3.6 -96.3,11.7 -190.8,19.8 -94.5,8.1 -180.9,17.1 -191.7,18.9 -19.8,3.6 -20.7,6.3 -19.8,114.3 0.9,60.3 3.6,156.6 7.2,213.3 l 5.4,103.5 40.5,5.4 c 57.6,8.1 241.2,8.1 283.5,0.9 z m -229.5,-847.8 c 281.7,-18.9 661.5,-64.8 678.6,-81.9 9,-8.1 205.2,-1395 198.9,-1401.3 -1.8,-1.8 -40.5,1.8 -85.5,7.2 -107.1,15.3 -300.6,6.3 -418.5,-18 -231.3,-49.5 -484.2,-152.1 -846,-343.8 -525.6,-279 -795.6,-396 -1059.3,-460.8 -175.5,-42.3 -280.8,-53.1 -484.2,-47.7 -101.7,2.7 -198.9,9 -216,12.6 -29.70001,7.2 -31.50001,9.9 -28.80001,38.7 21.60001,212.4 290.70001,2209.5 298.80001,2214 10.8,7.2 292.5,37.8 526.5,58.5 137.7,11.7 400.5,27 607.5,35.1 135.9,5.4 684,-2.7 828,-12.6 z"
       id="path2"
       style="fill:#0a2c74;fill-opacity:1;stroke-width:0.9" />
    <path
       d="m 1960.647,7099.4399 c -36.9,-4.5 -70.2,-10.8 -72.9,-14.4 -4.5,-6.3 -54.9,-417.6 -50.4,-421.2 0.9,-0.9 34.2,3.6 73.8,10.8 39.6,6.3 131.4,14.4 205.2,18 l 132.3,6.3 v 206.1 205.2 l -109.8,-0.9 c -61.2,-0.9 -141.3,-5.4 -178.2,-9.9 z"
       id="path4"
       style="fill:#0a2c74;fill-opacity:1;stroke-width:0.9" />
    <path
       d="m 1502.547,2907.2399 c -26.1,-3.6 -50.4,-10.8 -54.9,-15.3 -3.6,-3.6 -15.3,-94.5 -26.1,-200.7 -11.7,-106.2 -22.5,-199.8 -24.3,-207.9 -3.6,-11.7 8.1,-15.3 72,-19.8 71.1,-5.4 288.9,6.3 323.1,17.1 13.5,4.5 15.3,22.5 15.3,210.6 v 205.2 l -19.8,5.4 c -36.9,9 -235.8,13.5 -285.3,5.4 z"
       id="path6"
       style="fill:#0a2c74;fill-opacity:1;stroke-width:0.9" />
    <path
       d="m 4750.647,5872.7399 v -679.5 h 112.5 112.5 v 679.5 679.5 h -112.5 -112.5 z"
       id="path8"
       style="stroke-width:0.9" />
    <path
       d="m 6469.647,6372.2399 v -180 h -90 -90.9 l 2.7,-73.8 2.7,-74.7 88.2,-2.7 87.3,-2.7 v -422.1 -423 h 99 99 v 423 423 h 94.5 94.5 v 76.5 76.5 h -94.5 -94.5 v 180 180 h -99 -99 z"
       id="path10"
       style="stroke-width:0.9" />
    <path
       d="m 11266.647,6372.2399 v -180 h -90 -90 v -76.5 -76.5 h 90 90 v -423 -423 h 94.5 94.5 v 423 423 h 99 99 v 76.5 75.6 l -96.3,2.7 -97.2,2.7 -2.7,178.2 -1.8,177.3 h -94.5 -94.5 z"
       id="path12"
       style="stroke-width:0.9" />
    <path
       d="m 11797.647,6453.2399 v -99 h 94.5 94.5 v 99 99 h -94.5 -94.5 z"
       id="path14"
       style="stroke-width:0.9" />
    <path
       d="m 15892.647,5872.7399 v -679.5 h 94.5 94.5 v 679.5 679.5 h -94.5 -94.5 z"
       id="path16"
       style="stroke-width:0.9" />
    <path
       d="m 5604.747,6202.1399 c -63.9,-20.7 -128.7,-64.8 -159.3,-109.8 -13.5,-18.9 -27,-34.2 -30.6,-35.1 -4.5,0 -7.2,30.6 -7.2,67.5 v 67.5 h -90 -90 v -499.5 -499.5 h 93.6 93.6 l 3.6,317.7 c 3.6,301.5 4.5,319.5 23.4,367.2 24.3,61.2 71.1,111.6 126.9,137.7 60.3,27.9 206.1,27 257.4,-0.9 47.7,-25.2 80.1,-61.2 105.3,-115.2 19.8,-44.1 20.7,-52.2 23.4,-375.3 l 2.7,-331.2 h 98.1 99 v 326.7 c 0,351 -5.4,403.2 -48.6,497.7 -43.2,93.6 -135.9,168.3 -240.3,191.7 -63.9,15.3 -203.4,10.8 -261,-7.2 z"
       id="path18"
       style="stroke-width:0.9" />
    <path
       d="m 7266.147,6202.1399 c -166.5,-47.7 -297.9,-172.8 -356.4,-340.2 -26.1,-73.8 -32.4,-213.3 -13.5,-292.5 22.5,-97.2 71.1,-182.7 144,-255.6 104.4,-105.3 217.8,-150.3 374.4,-150.3 148.5,0 259.2,45.9 364.5,151.2 36,36 75.6,87.3 92.7,119.7 l 29.7,55.8 -101.7,-0.9 h -101.7 l -27,-37.8 c -64.8,-88.2 -154.8,-127.8 -278.1,-121.5 -89.1,4.5 -156.6,32.4 -219.6,91.8 -47.7,44.1 -88.2,121.5 -93.6,176.4 l -2.7,31.5 430.2,2.7 429.3,1.8 v 56.7 c -0.9,245.7 -160.2,455.4 -391.5,514.8 -71.1,18 -209.7,16.2 -279,-3.6 z m 285.3,-173.7 c 27.9,-13.5 70.2,-41.4 93.6,-63 43.2,-39.6 93.6,-129.6 93.6,-166.5 v -20.7 h -328.5 -328.5 v 20.7 c 0,36.9 50.4,126.9 91.8,165.6 76.5,70.2 143.1,93.6 254.7,89.1 54.9,-1.8 84.6,-7.2 123.3,-25.2 z"
       id="path20"
       style="stroke-width:0.9" />
    <path
       d="m 8479.347,6202.1399 c -65.7,-22.5 -113.4,-55.8 -148.5,-105.3 l -29.7,-41.4 -2.7,68.4 -2.7,68.4 h -89.1 -90 v -499.5 -499.5 h 99 99 v 301.5 c 0,181.8 3.6,318.6 9.9,346.5 22.5,103.5 108.9,176.4 222.3,186.3 l 55.8,5.4 v 92.7 93.6 h -37.8 c -21.6,-0.9 -59.4,-8.1 -85.5,-17.1 z"
       id="path22"
       style="stroke-width:0.9" />
    <path
       d="m 9148.047,6209.3399 c -79.2,-18.9 -157.5,-72.9 -205.2,-143.1 -15.3,-21.6 -15.3,-20.7 -15.3,52.2 l -0.9,73.8 h -90 -90 v -499.5 -499.5 h 98.1 99 l 2.7,331.2 2.7,330.3 24.3,45.9 c 53.1,99.9 139.5,144 267.3,136.8 81,-5.4 126.9,-25.2 174.6,-78.3 59.4,-65.7 63,-91.8 67.5,-448.2 l 3.6,-317.7 h 93.6 93.6 v 335.7 c 0,264.6 -2.7,346.5 -13.5,391.5 -36,153 -124.2,249.3 -261,284.4 -58.5,15.3 -193.5,18 -251.1,4.5 z"
       id="path24"
       style="stroke-width:0.9" />
    <path
       d="m 10241.547,6204.8399 c -189,-50.4 -330.3,-208.8 -366.3,-408.6 -49.5,-274.5 91.8,-530.1 337.5,-610.2 91.8,-29.7 228.6,-30.6 315.9,-2.7 73.8,23.4 147.6,73.8 189,129.6 l 31.5,42.3 2.7,-81 2.7,-81 h 93.6 94.5 v 499.5 499.5 h -94.5 -94.5 v -81.9 -82.8 l -53.1,57.6 c -88.2,96.3 -182.7,135 -329.4,133.2 -44.1,0 -102.6,-6.3 -129.6,-13.5 z m 315.9,-195.3 c 67.5,-33.3 143.1,-114.3 169.2,-183.6 37.8,-99.9 33.3,-195.3 -14.4,-295.2 -95.4,-202.5 -371.7,-254.7 -539.1,-101.7 -71.1,64.8 -105.3,140.4 -110.7,243 -4.5,93.6 11.7,156.6 60.3,225 41.4,58.5 82.8,91.8 150.3,120.6 46.8,19.8 63.9,21.6 143.1,18.9 75.6,-2.7 98.1,-6.3 141.3,-27 z"
       id="path26"
       style="stroke-width:0.9" />
    <path
       d="m 12571.647,6205.7399 c -170.1,-46.8 -303.3,-169.2 -360,-331.2 -25.2,-70.2 -34.2,-216.9 -18.9,-296.1 36.9,-190.8 192.6,-354.6 379.8,-398.7 73.8,-17.1 212.4,-17.1 285.3,0 165.6,39.6 306,168.3 362.7,334.8 18.9,52.2 21.6,78.3 21.6,178.2 0,99.9 -3.6,126 -20.7,175.5 -55.8,155.7 -170.1,271.8 -319.5,324 -73.8,27 -255.6,33.3 -330.3,13.5 z m 286.2,-198 c 72,-32.4 144.9,-108.9 173.7,-181.8 17.1,-41.4 20.7,-70.2 21.6,-137.7 0,-77.4 -2.7,-90.9 -28.8,-145.8 -82.8,-175.5 -279,-247.5 -456.3,-166.5 -168.3,77.4 -242.1,288 -162.9,464.4 33.3,74.7 117.9,153.9 190.8,180 76.5,27 185.4,22.5 261.9,-12.6 z"
       id="path28"
       style="stroke-width:0.9" />
    <path
       d="m 13816.347,6200.3399 c -64.8,-19.8 -120.6,-59.4 -162,-115.2 l -29.7,-38.7 v 72.9 72.9 h -90 -90 v -499.5 -499.5 h 93.6 94.5 l 3.6,317.7 c 1.8,213.3 6.3,327.6 13.5,350.1 19.8,59.4 65.7,116.1 118.8,145.8 46.8,26.1 54.9,27.9 144,27.9 80.1,0 99.9,-2.7 131.4,-19.8 44.1,-23.4 81,-64.8 106.2,-119.7 18,-38.7 18.9,-57.6 21.6,-370.8 l 2.7,-331.2 h 99 98.1 v 317.7 c -0.9,346.5 -8.1,421.2 -48.6,505.8 -47.7,96.3 -127.8,162 -234,189.9 -68.4,18 -205.2,15.3 -272.7,-6.3 z"
       id="path30"
       style="stroke-width:0.9" />
    <path
       d="m 14938.647,6204.8399 c -183.6,-47.7 -322.2,-195.3 -365.4,-387.9 -18,-80.1 -13.5,-222.3 9,-293.4 37.8,-117.9 106.2,-213.3 199.8,-275.4 75.6,-50.4 124.2,-68.4 222.3,-81.9 164.7,-23.4 321.3,35.1 413.1,153 l 25.2,31.5 v -78.3 -79.2 h 99 99 v 499.5 499.5 h -99 -99 v -82.8 -81.9 l -26.1,35.1 c -47.7,67.5 -128.7,119.7 -221.4,144 -58.5,16.2 -193.5,15.3 -256.5,-1.8 z m 307.8,-194.4 c 138.6,-64.8 219.6,-215.1 196.2,-366.3 -31.5,-204.3 -215.1,-338.4 -409.5,-297.9 -144.9,29.7 -244.8,134.1 -275.4,287.1 -31.5,161.1 68.4,334.8 226.8,391.5 63.9,23.4 197.1,16.2 261.9,-14.4 z"
       id="path32"
       style="stroke-width:0.9" />
    <path
       d="m 11797.647,5692.7399 v -499.5 h 94.5 94.5 v 499.5 499.5 h -94.5 -94.5 z"
       id="path34"
       style="stroke-width:0.9" />
    <path
       d="m 5470.647,4778.3399 c -123.3,-20.7 -249.3,-112.5 -302.4,-219.6 -24.3,-50.4 -26.1,-61.2 -26.1,-157.5 0,-95.4 1.8,-108 25.2,-154.8 51.3,-104.4 132.3,-160.2 351,-239.4 189,-69.3 234.9,-102.6 258.3,-189.9 23.4,-89.1 -29.7,-189.9 -126,-240.3 -45.9,-24.3 -145.8,-22.5 -193.5,2.7 -65.7,35.1 -110.7,100.8 -126,185.4 l -6.3,33.3 h -108 -108.9 l 6.3,-55.8 c 18.9,-162.9 110.7,-285.3 256.5,-341.1 62.1,-24.3 231.3,-34.2 309.6,-18 71.1,15.3 156.6,60.3 205.2,108.9 109.8,109.8 144.9,310.5 79.2,448.2 -46.8,97.2 -165.6,175.5 -397.8,263.7 -162.9,62.1 -213.3,109.8 -213.3,203.4 0,58.5 11.7,89.1 47.7,127.8 41.4,43.2 90.9,63.9 154.8,63.9 99,0 161.1,-45.9 189.9,-139.5 l 16.2,-49.5 h 107.1 107.1 l -6.3,43.2 c -35.1,234 -240.3,367.2 -499.5,324.9 z"
       id="path36"
       style="stroke-width:0.9" />
    <path
       d="m 14002.647,4077.2399 v -684 h 108 108 v 684 684 h -108 -108 z"
       id="path38"
       style="stroke-width:0.9" />
    <path
       d="m 6550.647,4422.8399 c -98.1,-18.9 -210.6,-76.5 -277.2,-141.3 -179.1,-174.6 -210.6,-468.9 -73.8,-678.6 121.5,-185.4 353.7,-274.5 570.6,-218.7 96.3,24.3 171,66.6 239.4,135 47.7,47.7 117,151.2 117,174.6 0,2.7 -44.1,5.4 -98.1,5.4 h -98.1 l -19.8,-31.5 c -60.3,-97.2 -201.6,-153.9 -323.1,-130.5 -145.8,27.9 -256.5,132.3 -276.3,259.2 l -6.3,37.8 h 430.2 430.2 l -5.4,97.2 c -5.4,111.6 -26.1,180 -78.3,261 -64.8,100.8 -161.1,175.5 -269.1,209.7 -58.5,18 -211.5,30.6 -261.9,20.7 z m 163.8,-166.5 c 121.5,-26.1 230.4,-127.8 254.7,-239.4 l 6.3,-29.7 h -333.9 -333.9 l 5.4,25.2 c 18.9,81.9 88.2,172.8 159.3,209.7 76.5,39.6 159.3,51.3 242.1,34.2 z"
       id="path40"
       style="stroke-width:0.9" />
    <path
       d="m 7684.647,4414.7399 c -146.7,-36 -257.4,-122.4 -326.7,-254.7 -44.1,-83.7 -60.3,-153.9 -60.3,-259.2 0,-164.7 47.7,-285.3 153,-391.5 122.4,-123.3 303.3,-171 479.7,-125.1 103.5,26.1 187.2,82.8 232.2,156.6 l 17.1,27.9 v -87.3 -88.2 h 94.5 94.5 v 504 504 h -94.5 -94.5 v -87.3 -88.2 l -16.2,27 c -23.4,38.7 -102.6,108 -148.5,129.6 -92.7,45 -226.8,57.6 -330.3,32.4 z m 292.5,-197.1 c 71.1,-31.5 140.4,-100.8 172.8,-171 22.5,-48.6 25.2,-64.8 25.2,-144.9 0,-82.8 -2.7,-94.5 -29.7,-153.9 -36.9,-78.3 -94.5,-137.7 -168.3,-171.9 -47.7,-22.5 -64.8,-25.2 -144,-25.2 -83.7,0 -94.5,1.8 -149.4,28.8 -72.9,36 -126,91.8 -163.8,171.9 -26.1,54.9 -28.8,68.4 -28.8,145.8 0.9,108 22.5,168.3 87.3,239.4 74.7,81.9 152.1,112.5 268.2,108.9 60.3,-1.8 88.2,-8.1 130.5,-27.9 z"
       id="path42"
       style="stroke-width:0.9" />
    <path
       d="m 10396.347,4414.7399 c -135.9,-29.7 -270,-134.1 -330.3,-257.4 -44.1,-90.9 -59.4,-158.4 -59.4,-260.1 0,-47.7 6.3,-110.7 13.5,-139.5 63,-249.3 273.6,-404.1 526.5,-388.8 132.3,8.1 252.9,66.6 311.4,151.2 l 26.1,37.8 2.7,-81.9 2.7,-82.8 h 93.6 94.5 v 504 504 h -94.5 -94.5 v -82.8 l -0.9,-83.7 -18.9,27 c -99,135 -282.6,194.4 -472.5,153 z m 250.2,-180.9 c 56.7,-16.2 133.2,-65.7 163.8,-105.3 11.7,-16.2 33.3,-51.3 47.7,-78.3 24.3,-45.9 26.1,-56.7 26.1,-148.5 0,-88.2 -2.7,-104.4 -24.3,-151.2 -34.2,-72 -102.6,-142.2 -171.9,-173.7 -49.5,-23.4 -65.7,-26.1 -145.8,-26.1 -78.3,0 -96.3,3.6 -141.3,24.3 -149.4,69.3 -233.1,241.2 -195.3,403.2 45.9,198 243,313.2 441,255.6 z"
       id="path44"
       style="stroke-width:0.9" />
    <path
       d="m 12490.647,4415.6399 c -138.6,-37.8 -221.4,-131.4 -232.2,-261.9 -5.4,-75.6 9.9,-129.6 52.2,-178.2 43.2,-49.5 98.1,-78.3 230.4,-124.2 176.4,-60.3 219.6,-95.4 219.6,-180 0,-45.9 -23.4,-88.2 -64.8,-118.8 -30.6,-22.5 -117,-30.6 -162.9,-16.2 -37.8,12.6 -93.6,71.1 -101.7,106.2 -2.7,14.4 -6.3,30.6 -9,36.9 -1.8,7.2 -28.8,10.8 -91.8,10.8 -48.6,0 -90.9,-1.8 -93.6,-4.5 -9,-9 9.9,-96.3 28.8,-135 61.2,-126 234,-203.4 396.9,-178.2 198.9,31.5 320.4,188.1 287.1,373.5 -22.5,128.7 -91.8,186.3 -297,245.7 -99.9,27.9 -129.6,42.3 -168.3,79.2 -34.2,32.4 -44.1,66.6 -30.6,108 35.1,106.2 204.3,126 261.9,30.6 9.9,-16.2 18,-37.8 18,-48.6 0,-19.8 2.7,-20.7 95.4,-20.7 h 96.3 l -6.3,42.3 c -19.8,146.7 -154.8,246.6 -329.4,244.8 -32.4,0 -76.5,-5.4 -99,-11.7 z"
       id="path46"
       style="stroke-width:0.9" />
    <path
       d="m 14880.147,4415.6399 c -89.1,-23.4 -148.5,-62.1 -193.5,-124.2 l -27,-36.9 v 72.9 73.8 h -90 -90 v -504 -504 h 93.6 94.5 l 2.7,326.7 c 2.7,316.8 3.6,326.7 23.4,369.9 31.5,68.4 60.3,100.8 112.5,126.9 102.6,49.5 240.3,36.9 313.2,-28.8 81,-73.8 89.1,-117 89.1,-494.1 v -301.5 l 97.2,2.7 96.3,2.7 2.7,279 c 3.6,399.6 -9,490.5 -79.2,596.7 -40.5,60.3 -102.6,107.1 -175.5,132.3 -59.4,20.7 -210.6,26.1 -270,9.9 z"
       id="path48"
       style="stroke-width:0.9" />
    <path
       d="m 15994.347,4414.7399 c -179.1,-38.7 -336.6,-193.5 -385.2,-378 -18,-69.3 -17.1,-207 0.9,-278.1 45,-175.5 183.6,-318.6 359.1,-370.8 71.1,-21.6 241.2,-22.5 306.9,-1.8 149.4,46.8 256.5,135.9 324,270 45.9,90.9 47.7,88.2 -67.5,88.2 -93.6,0 -99,-0.9 -105.3,-19.8 -11.7,-38.7 -100.8,-120.6 -159.3,-147.6 -48.6,-22.5 -66.6,-26.1 -141.3,-26.1 -74.7,0 -92.7,3.6 -141.3,26.1 -134.1,61.2 -209.7,197.1 -198,354.6 9.9,128.7 81,234 195.3,288.9 43.2,20.7 61.2,23.4 139.5,23.4 80.1,0 96.3,-2.7 145.8,-26.1 61.2,-27.9 134.1,-97.2 156.6,-146.7 l 12.6,-29.7 h 100.8 100.8 l -11.7,34.2 c -41.4,116.1 -141.3,233.1 -245.7,288 -113.4,59.4 -259.2,79.2 -387,51.3 z"
       id="path50"
       style="stroke-width:0.9" />
    <path
       d="m 8505.447,4390.4399 c 2.7,-6.3 78.3,-234 168.3,-504.9 l 164.7,-493.2 90.9,2.7 91.8,2.7 102.6,343.8 c 56.7,189.9 105.3,342 108,339.3 2.7,-2.7 51.3,-157.5 108.9,-343.8 l 103.5,-339.3 91.8,-2.7 90.9,-2.7 164.7,493.2 c 90,270.9 165.6,498.6 168.3,504.9 2.7,9 -18,10.8 -97.2,9 l -101.7,-2.7 -113.4,-370.8 c -62.1,-204.3 -116.1,-368.1 -118.8,-364.5 -3.6,3.6 -53.1,156.6 -109.8,339.3 l -103.5,333 -81,2.7 -81.9,2.7 -36,-115.2 c -19.8,-63 -66.6,-217.8 -105.3,-342.9 -37.8,-124.2 -71.1,-225 -73.8,-223.2 -1.8,2.7 -55.8,170.1 -118.8,371.7 l -114.3,367.2 -101.7,2.7 c -79.2,1.8 -99.9,0 -97.2,-9 z"
       id="path52"
       style="stroke-width:0.9" />
    <path
       d="m 11206.347,4381.4399 c 3.6,-11.7 88.2,-231.3 189.9,-487.8 l 184.5,-467.1 -81,-190.8 c -44.1,-105.3 -80.1,-193.5 -80.1,-197.1 0,-2.7 45.9,-5.4 101.7,-5.4 h 100.8 l 270,675.9 c 148.5,371.7 271.8,679.5 272.7,684 1.8,4.5 -41.4,8.1 -99.9,8.1 h -104.4 l -35.1,-91.8 c -19.8,-51.3 -81,-213.3 -137.7,-360 -55.8,-147.6 -104.4,-268.2 -107.1,-268.2 -2.7,0 -65.7,161.1 -140.4,358.2 l -134.1,357.3 -102.6,2.7 -101.7,2.7 z"
       id="path54"
       style="stroke-width:0.9" />
    <path
       d="m 13135.047,3458.9399 c -29.7,-98.1 -54.9,-183.6 -57.6,-189 -2.7,-9 17.1,-11.7 80.1,-11.7 h 84.6 l 72,180.9 c 39.6,99.9 73.8,184.5 74.7,189 1.8,4.5 -42.3,8.1 -99,8.1 h -101.7 z"
       id="path56"
       style="stroke-width:0.9" />
    <path
       d="m 16873.647,3514.7399 v -121.5 h 99 99 v 121.5 121.5 h -99 -99 z"
       id="path58"
       style="stroke-width:0.9" />
    <path
       d="m 5443.647,2753.3399 c -299.7,-34.2 -630,-153 -931.5,-336.6 -208.8,-126.9 -395.1,-267.3 -801,-603 -310.5,-256.5 -471.6,-381.6 -630,-489.6 -347.4,-235.8 -664.2,-372.59996 -990,-427.49996 -117,-19.8 -329.4,-34.2 -418.5,-28.8 l -76.5,5.4 81,-40.5 c 86.4,-42.3 282.6,-110.7 387,-135 181.8,-41.4 428.4,-52.2 606.6,-26.1 236.7,34.2 477,117.9 720.9,251.1 268.2,146.69996 495.9,310.49996 1003.5,720.89996 612,495 833.4,650.7 1143,804.6 269.1,132.3 432,180.9 747,221.4 43.2,5.4 44.1,6.3 18,13.5 -65.7,18.9 -252,54 -355.5,66.6 -120.6,14.4 -388.8,16.2 -504,3.6 z"
       id="path60"
       style="fill:#0a2c74;fill-opacity:1;stroke-width:0.9" />
    <path
       d="m 5974.647,2406.8399 c -265.5,-78.3 -548.1,-244.8 -922.5,-541.8 -59.4,-47.7 -213.3,-173.7 -342,-280.8 -407.7,-337.5 -584.1,-475.2 -775.8,-604.79996 -267.3,-179.1 -526.5,-308.7 -747,-373.5 -31.5,-9 -56.7,-18.9 -56.7,-21.6 0,-2.7 41.4,-13.5 92.7,-22.5 140.4,-26.1 451.8,-23.4 582.3,4.5 306,64.8 595.8,211.5 895.5,450.89996 151.2,120.6 472.5,441.9 671.4,670.5 86.4,99.9 208.8,241.2 273.6,315 124.2,144 292.5,316.8 373.5,385.2 27,23.4 45.9,41.4 40.5,41.4 -4.5,0 -43.2,-9.9 -85.5,-22.5 z"
       id="path62"
       style="fill:#0a2c74;fill-opacity:1;stroke-width:0.9" />
  </g>
</svg>
