<?xml version="1.0" encoding="UTF-8" standalone="no"?>
<svg
   version="1.0"
   width="1797.000000pt"
   height="1080.000000pt"
   viewBox="0 0 1797.000000 1080.000000"
   preserveAspectRatio="xMidYMid meet"
   id="svg66"
   sodipodi:docname="isi-logo-white.svg"
   inkscape:version="1.1.1 (3bf5ae0d25, 2021-09-20)"
   xmlns:inkscape="http://www.inkscape.org/namespaces/inkscape"
   xmlns:sodipodi="http://sodipodi.sourceforge.net/DTD/sodipodi-0.dtd"
   xmlns="http://www.w3.org/2000/svg"
   xmlns:svg="http://www.w3.org/2000/svg">
  <defs
     id="defs70" />
  <sodipodi:namedview
     id="namedview68"
     pagecolor="#ffffff"
     bordercolor="#666666"
     borderopacity="1.0"
     inkscape:pageshadow="2"
     inkscape:pageopacity="0.0"
     inkscape:pagecheckerboard="0"
     inkscape:document-units="pt"
     showgrid="false"
     inkscape:zoom="0.44722222"
     inkscape:cx="1198.5093"
     inkscape:cy="718.88199"
     inkscape:window-width="1920"
     inkscape:window-height="1017"
     inkscape:window-x="1358"
     inkscape:window-y="260"
     inkscape:window-maximized="1"
     inkscape:current-layer="g64" />
  <g
     transform="translate(0.000000,1080.000000) scale(0.100000,-0.100000)"
     fill="#000000"
     stroke="none"
     id="g64">
    <path
       d="m 3851.0916,9278.5919 c -10.08,-7.92 -14.4,-21.6 -17.28,-54 l -3.6,-43.2 -283.68,-212.4001 c -278.64,-209.52 -283.68,-213.12 -254.16,-213.12 h 30.24 v -298.08 -297.36 l -95.04,-8.64 c -52.56,-5.04 -107.28,-11.52 -120.96,-13.68 l -25.92,-5.04 61.2,-253.44 61.2,-254.16 -340.56,-2600.64 c -187.2,-1430.64 -341.28,-2611.44 -343.44,-2622.96 -3.6,-19.44 3.6,-30.96 64.08,-101.52 152.64,-179.28 316.8,-288.72 506.88,-339.12 61.92,-16.56 85.68,-18.72 189.36,-19.44 138.24,-0.72 186.48,7.92 342,59.04 236.88,77.76 488.16,231.12 910.8,555.84 336.96,259.2 545.76,406.8 624.96,442.08 28.8,12.96 30.96,15.84 27.36,36 -2.16,12.24 -146.16,1049.76 -321.12,2306.16 l -316.8,2283.12 61.2,253.44 c 33.84,139.68 60.48,254.88 59.76,256.32 -1.44,0.72 -56.88,5.76 -123.12,10.8 l -120.24,9.36 v 300.24 300.96 l 28.8,2.16 29.52,2.16 -284.4,212.4 -284.4,212.4001 -0.72,41.04 c 0,56.88 -25.92,79.2 -61.92,53.28 z m -348.48,-670.3201 c 0,-112.32 -2.16,-149.04 -8.64,-151.2 -5.04,-1.44 -36,-4.32 -68.4,-7.2 l -59.76,-4.32 v 154.8 155.52 h 68.4 68.4 z m 172.8,4.32 v -142.56 l -48.24,-4.32 c -27.36,-2.88 -56.16,-5.04 -64.8,-5.04 h -16.56 v 147.6 147.6 h 64.8 64.8 z m 352.8,-0.72 v -144 h -154.8 -154.8 v 144 144 h 154.8 154.8 z m 180,-4.32 v -149.04 l -43.92,5.04 c -24.48,2.16 -55.44,4.32 -68.4,4.32 h -24.48 v 144 144 h 68.4 68.4 z m 172.8,-6.48 v -155.52 l -55.44,4.32 c -30.96,2.88 -60.48,5.76 -64.8,7.2 -7.2,2.16 -9.36,38.88 -9.36,151.2 v 147.6 h 64.8 64.8 z m 208.08,-1828.8 c 65.52,-468.72 116.64,-854.64 114.48,-856.8 -2.16,-2.16 -48.96,3.6 -103.68,13.68 -110.16,20.16 -218.88,35.28 -355.68,48.96 -122.4,12.96 -611.28,12.24 -745.2,0 -125.28,-12.24 -297.36,-33.84 -377.28,-48.96 -33.12,-5.76 -61.2,-9.36 -62.64,-7.92 -2.88,2.88 205.92,1618.56 216.72,1681.2 l 4.32,23.04 h 595.44 595.44 z m -2.88,-1866.96 28.8,-5.04 19.44,-169.2 c 24.48,-216.72 24.48,-211.68 4.32,-206.64 -8.64,2.88 -77.04,9.36 -152.64,15.84 -75.6,6.48 -144.72,13.68 -153.36,15.12 -15.84,2.88 -16.56,5.04 -15.84,91.44 0.72,48.24 2.88,125.28 5.76,170.64 l 4.32,82.8 32.4,4.32 c 46.08,6.48 192.96,6.48 226.8,0.72 z m -183.6,-678.24 c 225.36,-15.12 529.2,-51.84 542.88,-65.52 7.2,-6.48 164.16,-1116 159.12,-1121.04 -1.44,-1.44 -32.4,1.44 -68.4,5.76 -85.68,12.24 -240.48,5.04 -334.8,-14.4 -185.04,-39.6 -387.36,-121.68 -676.8,-275.04 -420.48,-223.2 -636.48,-316.8 -847.44,-368.64 -140.4,-33.84 -224.64,-42.48 -387.36,-38.16 -81.36,2.16 -159.12,7.2 -172.8,10.08 -23.76,5.76 -25.2,7.92 -23.04,30.96 17.28,169.92 232.56,1767.6 239.04,1771.2 8.64,5.76 234,30.24 421.2,46.8 110.16,9.36 320.4,21.6 486,28.08 108.72,4.32 547.2,-2.16 662.4,-10.08 z"
       id="path2"
       style="fill:#ffffff;fill-opacity:1;stroke-width:0.72" />
    <path
       d="m 3365.8116,6760.0318 c -29.52,-3.6 -56.16,-8.64 -58.32,-11.52 -3.6,-5.04 -43.92,-334.08 -40.32,-336.96 0.72,-0.72 27.36,2.88 59.04,8.64 31.68,5.04 105.12,11.52 164.16,14.4 l 105.84,5.04 v 164.88 164.16 l -87.84,-0.72 c -48.96,-0.72 -113.04,-4.32 -142.56,-7.92 z"
       id="path4"
       style="fill:#ffffff;fill-opacity:1;stroke-width:0.72" />
    <path
       d="m 2999.3316,3406.2718 c -20.88,-2.88 -40.32,-8.64 -43.92,-12.24 -2.88,-2.88 -12.24,-75.6 -20.88,-160.56 -9.36,-84.96 -18,-159.84 -19.44,-166.32 -2.88,-9.36 6.48,-12.24 57.6,-15.84 56.88,-4.32 231.12,5.04 258.48,13.68 10.8,3.6 12.24,18 12.24,168.48 v 164.16 l -15.84,4.32 c -29.52,7.2 -188.64,10.8 -228.24,4.32 z"
       id="path6"
       style="fill:#ffffff;fill-opacity:1;stroke-width:0.72" />
    <path
       d="m 5597.8116,5778.6718 v -543.6 h 90 90 v 543.6 543.6 h -90 -90 z"
       id="path8"
       style="fill:#ffffff;fill-opacity:1;stroke-width:0.72" />
    <path
       d="m 6973.0116,6178.2718 v -144 h -72 -72.72 l 2.16,-59.04 2.16,-59.76 70.56,-2.16 69.84,-2.16 v -337.68 -338.4 h 79.2 79.2 v 338.4 338.4 h 75.6 75.6 v 61.2 61.2 h -75.6 -75.6 v 144 144 h -79.2 -79.2 z"
       id="path10"
       style="fill:#ffffff;fill-opacity:1;stroke-width:0.72" />
    <path
       d="m 10810.612,6178.2718 v -144 h -72 -72 v -61.2 -61.2 h 72 72 v -338.4 -338.4 h 75.6 75.6 v 338.4 338.4 h 79.2 79.2 v 61.2 60.48 l -77.04,2.16 -77.76,2.16 -2.16,142.56 -1.44,141.84 h -75.6 -75.6 z"
       id="path12"
       style="fill:#ffffff;fill-opacity:1;stroke-width:0.72" />
    <path
       d="m 11235.412,6243.0718 v -79.2 h 75.6 75.6 v 79.2 79.2 h -75.6 -75.6 z"
       id="path14"
       style="fill:#ffffff;fill-opacity:1;stroke-width:0.72" />
    <path
       d="m 14511.412,5778.6718 v -543.6 h 75.6 75.6 v 543.6 543.6 h -75.6 -75.6 z"
       id="path16"
       style="fill:#ffffff;fill-opacity:1;stroke-width:0.72" />
    <path
       d="m 6281.0916,6042.1918 c -51.12,-16.56 -102.96,-51.84 -127.44,-87.84 -10.8,-15.12 -21.6,-27.36 -24.48,-28.08 -3.6,0 -5.76,24.48 -5.76,54 v 54 h -72 -72 v -399.6 -399.6 h 74.88 74.88 l 2.88,254.16 c 2.88,241.2 3.6,255.6 18.72,293.76 19.44,48.96 56.88,89.28 101.52,110.16 48.24,22.32 164.88,21.6 205.92,-0.72 38.16,-20.16 64.08,-48.96 84.24,-92.16 15.84,-35.28 16.56,-41.76 18.72,-300.24 l 2.16,-264.96 h 78.48 79.2 v 261.36 c 0,280.8 -4.32,322.56 -38.88,398.16 -34.56,74.88 -108.72,134.64 -192.24,153.36 -51.12,12.24 -162.72,8.64 -208.8,-5.76 z"
       id="path18"
       style="fill:#ffffff;fill-opacity:1;stroke-width:0.72" />
    <path
       d="m 7610.2116,6042.1918 c -133.2,-38.16 -238.32,-138.24 -285.12,-272.16 -20.88,-59.04 -25.92,-170.64 -10.8,-234 18,-77.76 56.88,-146.16 115.2,-204.48 83.52,-84.24 174.24,-120.24 299.52,-120.24 118.8,0 207.36,36.72 291.6,120.96 28.8,28.8 60.48,69.84 74.16,95.76 l 23.76,44.64 -81.36,-0.72 h -81.36 l -21.6,-30.24 c -51.84,-70.56 -123.84,-102.24 -222.48,-97.2 -71.28,3.6 -125.28,25.92 -175.68,73.44 -38.16,35.28 -70.56,97.2 -74.88,141.12 l -2.16,25.2 344.16,2.16 343.44,1.44 v 45.36 c -0.72,196.56 -128.16,364.32 -313.2,411.84 -56.88,14.4 -167.76,12.96 -223.2,-2.88 z m 228.24,-138.96 c 22.32,-10.8 56.16,-33.12 74.88,-50.4 34.56,-31.68 74.88,-103.68 74.88,-133.2 v -16.56 h -262.8 -262.8 v 16.56 c 0,29.52 40.32,101.52 73.44,132.48 61.2,56.16 114.48,74.88 203.76,71.28 43.92,-1.44 67.68,-5.76 98.64,-20.16 z"
       id="path20"
       style="fill:#ffffff;fill-opacity:1;stroke-width:0.72" />
    <path
       d="m 8580.7716,6042.1918 c -52.56,-18 -90.72,-44.64 -118.8,-84.24 l -23.76,-33.12 -2.16,54.72 -2.16,54.72 h -71.28 -72 v -399.6 -399.6 h 79.2 79.2 v 241.2 c 0,145.44 2.88,254.88 7.92,277.2 18,82.8 87.12,141.12 177.84,149.04 l 44.64,4.32 v 74.16 74.88 h -30.24 c -17.28,-0.72 -47.52,-6.48 -68.4,-13.68 z"
       id="path22"
       style="fill:#ffffff;fill-opacity:1;stroke-width:0.72" />
    <path
       d="m 9115.7316,6047.9518 c -63.36,-15.12 -126,-58.32 -164.16,-114.48 -12.24,-17.28 -12.24,-16.56 -12.24,41.76 l -0.72,59.04 h -72 -72 v -399.6 -399.6 h 78.48 79.2 l 2.16,264.96 2.16,264.24 19.44,36.72 c 42.48,79.92 111.6,115.2 213.84,109.44 64.8,-4.32 101.52,-20.16 139.68,-62.64 47.52,-52.56 50.4,-73.44 54,-358.56 l 2.88,-254.16 h 74.88 74.88 v 268.56 c 0,211.68 -2.16,277.2 -10.8,313.2 -28.8,122.4 -99.36,199.44 -208.8,227.52 -46.8,12.24 -154.8,14.4 -200.88,3.6 z"
       id="path24"
       style="fill:#ffffff;fill-opacity:1;stroke-width:0.72" />
    <path
       d="m 9990.5316,6044.3518 c -151.2,-40.32 -264.24,-167.04 -293.04,-326.88 -39.6,-219.6 73.44,-424.08 270,-488.16 73.4404,-23.76 182.8804,-24.48 252.7204,-2.16 59.04,18.72 118.08,59.04 151.2,103.68 l 25.2,33.84 2.16,-64.8 2.16,-64.8 h 74.88 75.6 v 399.6 399.6 h -75.6 -75.6 v -65.52 -66.24 l -42.48,46.08 c -70.56,77.04 -146.16,108 -263.52,106.56 -35.28,0 -82.08,-5.04 -103.6804,-10.8 z m 252.7204,-156.24 c 54,-26.64 114.48,-91.44 135.36,-146.88 30.24,-79.92 26.64,-156.24 -11.52,-236.16 -76.32,-162 -297.36,-203.76 -431.2804,-81.36 -56.88,51.84 -84.24,112.32 -88.56,194.4 -3.6,74.88 9.36,125.28 48.24,180 33.12,46.8 66.24,73.44 120.2404,96.48 37.44,15.84 51.12,17.28 114.48,15.12 60.48,-2.16 78.48,-5.04 113.04,-21.6 z"
       id="path26"
       style="fill:#ffffff;fill-opacity:1;stroke-width:0.72" />
    <path
       d="m 11854.612,6045.0718 c -136.08,-37.44 -242.64,-135.36 -288,-264.96 -20.16,-56.16 -27.36,-173.52 -15.12,-236.88 29.52,-152.64 154.08,-283.68 303.84,-318.96 59.04,-13.68 169.92,-13.68 228.24,0 132.48,31.68 244.8,134.64 290.16,267.84 15.12,41.76 17.28,62.64 17.28,142.56 0,79.92 -2.88,100.8 -16.56,140.4 -44.64,124.56 -136.08,217.44 -255.6,259.2 -59.04,21.6 -204.48,26.64 -264.24,10.8 z m 228.96,-158.4 c 57.6,-25.92 115.92,-87.12 138.96,-145.44 13.68,-33.12 16.56,-56.16 17.28,-110.16 0,-61.92 -2.16,-72.72 -23.04,-116.64 -66.24,-140.4 -223.2,-198 -365.04,-133.2 -134.64,61.92 -193.68,230.4 -130.32,371.52 26.64,59.76 94.32,123.12 152.64,144 61.2,21.6 148.32,18 209.52,-10.08 z"
       id="path28"
       style="fill:#ffffff;fill-opacity:1;stroke-width:0.72" />
    <path
       d="m 12850.372,6040.7518 c -51.84,-15.84 -96.48,-47.52 -129.6,-92.16 l -23.76,-30.96 v 58.32 58.32 h -72 -72 v -399.6 -399.6 h 74.88 75.6 l 2.88,254.16 c 1.44,170.64 5.04,262.08 10.8,280.08 15.84,47.52 52.56,92.88 95.04,116.64 37.44,20.88 43.92,22.32 115.2,22.32 64.08,0 79.92,-2.16 105.12,-15.84 35.28,-18.72 64.8,-51.84 84.96,-95.76 14.4,-30.96 15.12,-46.08 17.28,-296.64 l 2.16,-264.96 h 79.2 78.48 v 254.16 c -0.72,277.2 -6.48,336.96 -38.88,404.64 -38.16,77.04 -102.24,129.6 -187.2,151.92 -54.72,14.4 -164.16,12.24 -218.16,-5.04 z"
       id="path30"
       style="fill:#ffffff;fill-opacity:1;stroke-width:0.72" />
    <path
       d="m 13748.212,6044.3518 c -146.88,-38.16 -257.76,-156.24 -292.32,-310.32 -14.4,-64.08 -10.8,-177.84 7.2,-234.72 30.24,-94.32 84.96,-170.64 159.84,-220.32 60.48,-40.32 99.36,-54.72 177.84,-65.52 131.76,-18.72 257.04,28.08 330.48,122.4 l 20.16,25.2 v -62.64 -63.36 h 79.2 79.2 v 399.6 399.6 h -79.2 -79.2 v -66.24 -65.52 l -20.88,28.08 c -38.16,54 -102.96,95.76 -177.12,115.2 -46.8,12.96 -154.8,12.24 -205.2,-1.44 z m 246.24,-155.52 c 110.88,-51.84 175.68,-172.08 156.96,-293.04 -25.2,-163.44 -172.08,-270.72 -327.6,-238.32 -115.92,23.76 -195.84,107.28 -220.32,229.68 -25.2,128.88 54.72,267.84 181.44,313.2 51.12,18.72 157.68,12.96 209.52,-11.52 z"
       id="path32"
       style="fill:#ffffff;fill-opacity:1;stroke-width:0.72" />
    <path
       d="m 11235.412,5634.6718 v -399.6 h 75.6 75.6 v 399.6 399.6 h -75.6 -75.6 z"
       id="path34"
       style="fill:#ffffff;fill-opacity:1;stroke-width:0.72" />
    <path
       d="m 6173.8116,4903.1518 c -98.64,-16.56 -199.44,-90 -241.92,-175.68 -19.44,-40.32 -20.88,-48.96 -20.88,-126 0,-76.32 1.44,-86.4 20.16,-123.84 41.04,-83.52 105.84,-128.16 280.8,-191.52 151.2,-55.44 187.92,-82.08 206.64,-151.92 18.72,-71.28 -23.76,-151.92 -100.8,-192.24 -36.72,-19.44 -116.64,-18 -154.8,2.16 -52.56,28.08 -88.56,80.64 -100.8,148.32 l -5.04,26.64 h -86.4 -87.12 l 5.04,-44.64 c 15.12,-130.32 88.56,-228.24 205.2,-272.88 49.68,-19.44 185.04,-27.36 247.68,-14.4 56.88,12.24 125.28,48.24 164.16,87.12 87.84,87.84 115.92,248.4 63.36,358.56 -37.44,77.76 -132.48,140.4 -318.24,210.96 -130.32,49.68 -170.64,87.84 -170.64,162.72 0,46.8 9.36,71.28 38.16,102.24 33.12,34.56 72.72,51.12 123.84,51.12 79.2,0 128.88,-36.72 151.92,-111.6 l 12.96,-39.6 h 85.68 85.68 l -5.04,34.56 c -28.08,187.2 -192.24,293.76 -399.6,259.92 z"
       id="path36"
       style="fill:#ffffff;fill-opacity:1;stroke-width:0.72" />
    <path
       d="m 12999.412,4342.2718 v -547.2 h 86.4 86.4 v 547.2 547.2 h -86.4 -86.4 z"
       id="path38"
       style="fill:#ffffff;fill-opacity:1;stroke-width:0.72" />
    <path
       d="m 7037.8116,4618.7518 c -78.48,-15.12 -168.48,-61.2 -221.76,-113.04 -143.28,-139.68 -168.48,-375.12 -59.04,-542.88 97.2,-148.32 282.96,-219.6 456.48,-174.96 77.04,19.44 136.8,53.28 191.52,108 38.16,38.16 93.6,120.96 93.6,139.68 0,2.16 -35.28,4.32 -78.48,4.32 h -78.48 l -15.84,-25.2 c -48.24,-77.76 -161.28,-123.12 -258.48,-104.4 -116.64,22.32 -205.2,105.84 -221.04,207.36 l -5.04,30.24 h 344.16 344.16 l -4.32,77.76 c -4.32,89.28 -20.88,144 -62.64,208.8 -51.84,80.64 -128.88,140.4 -215.28,167.76 -46.8,14.4 -169.2,24.48 -209.52,16.56 z m 131.04,-133.2 c 97.2,-20.88 184.32,-102.24 203.76,-191.52 l 5.04,-23.76 h -267.12 -267.12 l 4.32,20.16 c 15.12,65.52 70.56,138.24 127.44,167.76 61.2,31.68 127.44,41.04 193.68,27.36 z"
       id="path40"
       style="fill:#ffffff;fill-opacity:1;stroke-width:0.72" />
    <path
       d="m 7945.0116,4612.2718 c -117.36,-28.8 -205.92,-97.92 -261.36,-203.76 -35.28,-66.96 -48.24,-123.12 -48.24,-207.36 0,-131.76 38.16,-228.24 122.4,-313.2 97.92,-98.64 242.64,-136.8 383.76,-100.08 82.8,20.88 149.76,66.24 185.76,125.28 l 13.68,22.32 v -69.84 -70.56 h 75.6 75.6 v 403.2 403.2 h -75.6 -75.6 v -69.84 -70.56 l -12.96,21.6 c -18.72,30.96 -82.08,86.4 -118.8,103.68 -74.16,36 -181.44,46.08 -264.24,25.92 z m 234,-157.68 c 56.88,-25.2 112.32,-80.64 138.24,-136.8 18,-38.88 20.16,-51.84 20.16,-115.92 0,-66.24 -2.16,-75.6 -23.76,-123.12 -29.52,-62.64 -75.6,-110.16 -134.64,-137.52 -38.16,-18 -51.84,-20.16 -115.2,-20.16 -66.96,0 -75.6,1.44 -119.52,23.04 -58.32,28.8 -100.8,73.44 -131.04,137.52 -20.88,43.92 -23.04,54.72 -23.04,116.64 0.72,86.4 18,134.64 69.84,191.52 59.76,65.52 121.68,90 214.56,87.12 48.24,-1.44 70.56,-6.48 104.4,-22.32 z"
       id="path42"
       style="fill:#ffffff;fill-opacity:1;stroke-width:0.72" />
    <path
       d="m 10114.372,4612.2718 c -108.72,-23.76 -216.0004,-107.28 -264.2404,-205.92 -35.28,-72.72 -47.52,-126.72 -47.52,-208.08 0,-38.16 5.04,-88.56 10.8,-111.6 50.4,-199.44 218.8804,-323.28 421.2004,-311.04 105.84,6.48 202.32,53.28 249.12,120.96 l 20.88,30.24 2.16,-65.52 2.16,-66.24 h 74.88 75.6 v 403.2 403.2 h -75.6 -75.6 v -66.24 l -0.72,-66.96 -15.12,21.6 c -79.2,108 -226.08,155.52 -378,122.4 z m 200.16,-144.72 c 45.36,-12.96 106.56,-52.56 131.04,-84.24 9.36,-12.96 26.64,-41.04 38.16,-62.64 19.44,-36.72 20.88,-45.36 20.88,-118.8 0,-70.56 -2.16,-83.52 -19.44,-120.96 -27.36,-57.6 -82.08,-113.76 -137.52,-138.96 -39.6,-18.72 -52.56,-20.88 -116.64,-20.88 -62.64,0 -77.04,2.88 -113.04,19.44 -119.5204,55.44 -186.4804,192.96 -156.2404,322.56 36.72,158.4 194.4004,250.56 352.8004,204.48 z"
       id="path44"
       style="fill:#ffffff;fill-opacity:1;stroke-width:0.72" />
    <path
       d="m 11789.812,4612.9918 c -110.88,-30.24 -177.12,-105.12 -185.76,-209.52 -4.32,-60.48 7.92,-103.68 41.76,-142.56 34.56,-39.6 78.48,-62.64 184.32,-99.36 141.12,-48.24 175.68,-76.32 175.68,-144 0,-36.72 -18.72,-70.56 -51.84,-95.04 -24.48,-18 -93.6,-24.48 -130.32,-12.96 -30.24,10.08 -74.88,56.88 -81.36,84.96 -2.16,11.52 -5.04,24.48 -7.2,29.52 -1.44,5.76 -23.04,8.64 -73.44,8.64 -38.88,0 -72.72,-1.44 -74.88,-3.6 -7.2,-7.2 7.92,-77.04 23.04,-108 48.96,-100.8 187.2,-162.72 317.52,-142.56 159.12,25.2 256.32,150.48 229.68,298.8 -18,102.96 -73.44,149.04 -237.6,196.56 -79.92,22.32 -103.68,33.84 -134.64,63.36 -27.36,25.92 -35.28,53.28 -24.48,86.4 28.08,84.96 163.44,100.8 209.52,24.48 7.92,-12.96 14.4,-30.24 14.4,-38.88 0,-15.84 2.16,-16.56 76.32,-16.56 h 77.04 l -5.04,33.84 c -15.84,117.36 -123.84,197.28 -263.52,195.84 -25.92,0 -61.2,-4.32 -79.2,-9.36 z"
       id="path46"
       style="fill:#ffffff;fill-opacity:1;stroke-width:0.72" />
    <path
       d="m 13701.412,4612.9918 c -71.28,-18.72 -118.8,-49.68 -154.8,-99.36 l -21.6,-29.52 v 58.32 59.04 h -72 -72 v -403.2 -403.2 h 74.88 75.6 l 2.16,261.36 c 2.16,253.44 2.88,261.36 18.72,295.92 25.2,54.72 48.24,80.64 90,101.52 82.08,39.6 192.24,29.52 250.56,-23.04 64.8,-59.04 71.28,-93.6 71.28,-395.28 v -241.2 l 77.76,2.16 77.04,2.16 2.16,223.2 c 2.88,319.68 -7.2,392.4 -63.36,477.36 -32.4,48.24 -82.08,85.68 -140.4,105.84 -47.52,16.56 -168.48,20.88 -216,7.92 z"
       id="path48"
       style="fill:#ffffff;fill-opacity:1;stroke-width:0.72" />
    <path
       d="m 14592.772,4612.2718 c -143.28,-30.96 -269.28,-154.8 -308.16,-302.4 -14.4,-55.44 -13.68,-165.6 0.72,-222.48 36,-140.4 146.88,-254.88 287.28,-296.64 56.88,-17.28 192.96,-18 245.52,-1.44 119.52,37.44 205.2,108.72 259.2,216 36.72,72.72 38.16,70.56 -54,70.56 -74.88,0 -79.2,-0.72 -84.24,-15.84 -9.36,-30.96 -80.64,-96.48 -127.44,-118.08 -38.88,-18 -53.28,-20.88 -113.04,-20.88 -59.76,0 -74.16,2.88 -113.04,20.88 -107.28,48.96 -167.76,157.68 -158.4,283.68 7.92,102.96 64.8,187.2 156.24,231.12 34.56,16.56 48.96,18.72 111.6,18.72 64.08,0 77.04,-2.16 116.64,-20.88 48.96,-22.32 107.28,-77.76 125.28,-117.36 l 10.08,-23.76 h 80.64 80.64 l -9.36,27.36 c -33.12,92.88 -113.04,186.48 -196.56,230.4 -90.72,47.52 -207.36,63.36 -309.6,41.04 z"
       id="path50"
       style="fill:#ffffff;fill-opacity:1;stroke-width:0.72" />
    <path
       d="m 8601.6516,4592.8318 c 2.16,-5.04 62.64,-187.2 134.64,-403.92 l 131.76,-394.56 72.72,2.16 73.44,2.16 82.08,275.04 c 45.36,151.92 84.24,273.6 86.4,271.44 2.16,-2.16 41.04,-126 87.12,-275.04 l 82.8,-271.44 73.44,-2.16 72.72,-2.16 131.76,394.56 c 72,216.72 132.48,398.88 134.64,403.92 2.16,7.2 -14.4,8.64 -77.76,7.2 l -81.36,-2.16 -90.72,-296.64 c -49.68,-163.44 -92.88,-294.48 -95.04,-291.6 -2.88,2.88 -42.48,125.28 -87.84,271.44 l -82.8,266.4 -64.8,2.16 -65.52,2.16 -28.8,-92.16 c -15.84,-50.4 -53.28,-174.24 -84.24,-274.32 -30.24,-99.36 -56.88,-180 -59.04,-178.56 -1.44,2.16 -44.64,136.08 -95.04,297.36 l -91.44,293.76 -81.36,2.16 c -63.36,1.44 -79.92,0 -77.76,-7.2 z"
       id="path52"
       style="fill:#ffffff;fill-opacity:1;stroke-width:0.72" />
    <path
       d="m 10762.372,4585.6318 c 2.88,-9.36 70.56,-185.04 151.92,-390.24 l 147.6,-373.68 -64.8,-152.64 c -35.28,-84.24 -64.08,-154.8 -64.08,-157.68 0,-2.16 36.72,-4.32 81.36,-4.32 h 80.64 l 216,540.72 c 118.8,297.36 217.44,543.6 218.16,547.2 1.44,3.6 -33.12,6.48 -79.92,6.48 h -83.52 l -28.08,-73.44 c -15.84,-41.04 -64.8,-170.64 -110.16,-288 -44.64,-118.08 -83.52,-214.56 -85.68,-214.56 -2.16,0 -52.56,128.88 -112.32,286.56 l -107.28,285.84 -82.08,2.16 -81.36,2.16 z"
       id="path54"
       style="fill:#ffffff;fill-opacity:1;stroke-width:0.72" />
    <path
       d="m 12305.332,3847.6318 c -23.76,-78.48 -43.92,-146.88 -46.08,-151.2 -2.16,-7.2 13.68,-9.36 64.08,-9.36 h 67.68 l 57.6,144.72 c 31.68,79.92 59.04,147.6 59.76,151.2 1.44,3.6 -33.84,6.48 -79.2,6.48 h -81.36 z"
       id="path56"
       style="fill:#ffffff;fill-opacity:1;stroke-width:0.72" />
    <path
       d="m 15296.212,3892.2718 v -97.2 h 79.2 79.2 v 97.2 97.2 h -79.2 -79.2 z"
       id="path58"
       style="fill:#ffffff;fill-opacity:1;stroke-width:0.72" />
    <path
       d="m 6152.2116,3283.1518 c -239.76,-27.36 -504,-122.4 -745.2,-269.28 -167.04,-101.52 -316.08,-213.84 -640.8,-482.4 -248.4,-205.2 -377.28,-305.28 -504,-391.68 -277.92,-188.64 -531.36,-298.08 -792,-342 -93.6,-15.84 -263.52,-27.36 -334.8,-23.04 l -61.2,4.32 64.8,-32.4 c 69.12,-33.84 226.08,-88.56 309.6,-108 145.44,-33.12 342.72,-41.76 485.28,-20.88 189.36,27.36 381.6,94.32 576.72,200.88 214.56,117.36 396.72,248.4 802.8,576.72 489.6,396 666.72,520.56 914.4,643.68 215.28,105.84 345.6,144.72 597.6,177.12 34.56,4.32 35.28,5.04 14.4,10.8 -52.56,15.12 -201.6,43.2 -284.4,53.28 -96.48,11.52 -311.04,12.96 -403.2,2.88 z"
       id="path60"
       style="fill:#ffffff;fill-opacity:1;stroke-width:0.72" />
    <path
       d="m 6577.0116,3005.9518 c -212.4,-62.64 -438.48,-195.84 -738,-433.44 -47.52,-38.16 -170.64,-138.96 -273.6,-224.64 -326.16,-270 -467.28,-380.16 -620.64,-483.84 -213.84,-143.28 -421.2,-246.96 -597.6,-298.8 -25.2,-7.2 -45.36,-15.12 -45.36,-17.28 0,-2.16 33.12,-10.8 74.16,-18 112.32,-20.88 361.44,-18.72 465.84,3.6 244.8,51.84 476.64,169.2 716.4,360.72 120.96,96.48 378,353.52 537.12,536.4 69.12,79.92 167.04,192.96 218.88,252 99.36,115.2 234,253.44 298.8,308.16 21.6,18.72 36.72,33.12 32.4,33.12 -3.6,0 -34.56,-7.92 -68.4,-18 z"
       id="path62"
       style="fill:#ffffff;fill-opacity:1;stroke-width:0.72" />
  </g>
</svg>
