<?xml version="1.0" encoding="UTF-8" standalone="no"?>
<svg
   version="1.0"
   width="2281.3923pt"
   height="800pt"
   viewBox="0 0 2281.3923 800"
   preserveAspectRatio="xMidYMid meet"
   id="svg66"
   sodipodi:docname="isi-logo-nav-white.svg"
   inkscape:version="1.1.1 (3bf5ae0d25, 2021-09-20)"
   xmlns:inkscape="http://www.inkscape.org/namespaces/inkscape"
   xmlns:sodipodi="http://sodipodi.sourceforge.net/DTD/sodipodi-0.dtd"
   xmlns="http://www.w3.org/2000/svg"
   xmlns:svg="http://www.w3.org/2000/svg">
  <defs
     id="defs70" />
  <sodipodi:namedview
     id="namedview68"
     pagecolor="#ffffff"
     bordercolor="#666666"
     borderopacity="1.0"
     inkscape:pageshadow="2"
     inkscape:pageopacity="0.0"
     inkscape:pagecheckerboard="0"
     inkscape:document-units="pt"
     showgrid="false"
     inkscape:zoom="0.22361111"
     inkscape:cx="840.74535"
     inkscape:cy="-91.677019"
     inkscape:window-width="1920"
     inkscape:window-height="1017"
     inkscape:window-x="1358"
     inkscape:window-y="260"
     inkscape:window-maximized="1"
     inkscape:current-layer="svg66"
     fit-margin-top="0"
     fit-margin-left="0"
     fit-margin-right="0"
     fit-margin-bottom="0" />
  <g
     transform="matrix(0.1,0,0,-0.1,-70.714811,922.22383)"
     fill="#000000"
     stroke="none"
     id="g64">
    <path
       d="m 2039.9115,9211.5112 c -10.08,-7.92 -14.4,-21.6 -17.28,-54 l -3.6,-43.2 -283.68,-212.4001 c -278.64,-209.52 -283.68,-213.12 -254.16,-213.12 h 30.24 v -298.08 -297.36 l -95.04,-8.64 c -52.56,-5.04 -107.28,-11.52 -120.96,-13.68 l -25.92,-5.04 61.2,-253.44 61.2,-254.16 -340.56,-2600.64 c -187.20003,-1430.64 -341.28003,-2611.44 -343.44003,-2622.96 -3.6,-19.44 3.6,-30.96 64.08,-101.52 152.64,-179.28 316.80003,-288.72 506.88003,-339.12 61.92,-16.56 85.68,-18.72 189.36,-19.44 138.24,-0.72 186.48,7.92 342,59.04 236.88,77.76 488.16,231.12 910.8,555.84 336.96,259.2 545.76,406.8 624.96,442.08 28.8,12.96 30.96,15.84 27.36,36 -2.16,12.24 -146.16,1049.76 -321.12,2306.16 l -316.8,2283.12 61.2,253.44 c 33.84,139.68 60.48,254.88 59.76,256.32 -1.44,0.72 -56.88,5.76 -123.12,10.8 l -120.24,9.36 v 300.24 300.96 l 28.8,2.16 29.52,2.16 -284.4,212.4 -284.4,212.4001 -0.72,41.04 c 0,56.88 -25.92,79.2 -61.92,53.28 z m -348.48,-670.3201 c 0,-112.32 -2.16,-149.04 -8.64,-151.2 -5.04,-1.44 -36,-4.32 -68.4,-7.2 l -59.76,-4.32 v 154.8 155.52 h 68.4 68.4 z m 172.8,4.32 v -142.56 l -48.24,-4.32 c -27.36,-2.88 -56.16,-5.04 -64.8,-5.04 h -16.56 v 147.6 147.6 h 64.8 64.8 z m 352.8,-0.72 v -144 h -154.8 -154.8 v 144 144 h 154.8 154.8 z m 180,-4.32 v -149.04 l -43.92,5.04 c -24.48,2.16 -55.44,4.32 -68.4,4.32 h -24.48 v 144 144 h 68.4 68.4 z m 172.8,-6.48 v -155.52 l -55.44,4.32 c -30.96,2.88 -60.48,5.76 -64.8,7.2 -7.2,2.16 -9.36,38.88 -9.36,151.2 v 147.6 h 64.8 64.8 z m 208.08,-1828.8 c 65.52,-468.72 116.64,-854.64 114.48,-856.8 -2.16,-2.16 -48.96,3.6 -103.68,13.68 -110.16,20.16 -218.88,35.28 -355.68,48.96 -122.4,12.96 -611.28,12.24 -745.2,0 -125.28,-12.24 -297.36,-33.84 -377.28,-48.96 -33.12,-5.76 -61.2,-9.36 -62.64,-7.92 -2.88,2.88 205.92,1618.56 216.72,1681.2 l 4.32,23.04 h 595.44 595.44 z m -2.88,-1866.96 28.8,-5.04 19.44,-169.2 c 24.48,-216.72 24.48,-211.68 4.32,-206.64 -8.64,2.88 -77.04,9.36 -152.64,15.84 -75.6,6.48 -144.72,13.68 -153.36,15.12 -15.84,2.88 -16.56,5.04 -15.84,91.44 0.72,48.24 2.88,125.28 5.76,170.64 l 4.32,82.8 32.4,4.32 c 46.08,6.48 192.96,6.48 226.8,0.72 z m -183.6,-678.24 c 225.36,-15.12 529.2,-51.84 542.88,-65.52 7.2,-6.48 164.16,-1116 159.12,-1121.04 -1.44,-1.44 -32.4,1.44 -68.4,5.76 -85.68,12.24 -240.48,5.04 -334.8,-14.4 -185.04,-39.6 -387.36,-121.68 -676.8,-275.04 -420.48,-223.2 -636.48,-316.8 -847.44,-368.64 -140.4,-33.84 -224.64,-42.48 -387.36003,-38.16 -81.36,2.16 -159.12,7.2 -172.8,10.08 -23.76,5.76 -25.2,7.92 -23.04,30.96 17.28,169.92 232.56003,1767.6 239.04003,1771.2 8.64,5.76 234,30.24 421.2,46.8 110.16,9.36 320.4,21.6 486,28.08 108.72,4.32 547.2,-2.16 662.4,-10.08 z"
       id="path2"
       style="fill:#ffffff;fill-opacity:1;stroke-width:0.72" />
    <path
       d="m 1554.6315,6692.9511 c -29.52,-3.6 -56.16,-8.64 -58.32,-11.52 -3.6,-5.04 -43.92,-334.08 -40.32,-336.96 0.72,-0.72 27.36,2.88 59.04,8.64 31.68,5.04 105.12,11.52 164.16,14.4 l 105.84,5.04 v 164.88 164.16 l -87.84,-0.72 c -48.96,-0.72 -113.04,-4.32 -142.56,-7.92 z"
       id="path4"
       style="fill:#ffffff;fill-opacity:1;stroke-width:0.72" />
    <path
       d="m 1188.1515,3339.1911 c -20.88,-2.88 -40.32,-8.64 -43.92,-12.24 -2.88,-2.88 -12.24,-75.6 -20.88,-160.56 -9.36,-84.96 -18,-159.84 -19.44,-166.32 -2.88,-9.36 6.48,-12.24 57.6,-15.84 56.88,-4.32 231.12,5.04 258.48,13.68 10.8,3.6 12.24,18 12.24,168.48 v 164.16 l -15.84,4.32 c -29.52,7.2 -188.64,10.8 -228.24,4.32 z"
       id="path6"
       style="fill:#ffffff;fill-opacity:1;stroke-width:0.72" />
    <path
       d="M 3786.6315,7987.9937 V 6899.6445 h 180.1903 180.1903 V 7987.9937 9076.343 h -180.1903 -180.1903 z"
       id="path8"
       style="fill:#ffffff;fill-opacity:1;stroke-width:1.44152" />
    <path
       d="M 6539.9389,8788.0385 V 8499.734 h -144.1521 -145.5939 l 4.3245,-118.2048 4.3247,-119.6464 141.2692,-4.3245 139.8276,-4.3246 v -676.0738 -677.5154 h 158.5673 158.5677 v 677.5154 677.5154 h 151.3598 151.3598 v 122.5294 122.5293 h -151.3598 -151.3598 v 288.3045 288.3045 h -158.5677 -158.5673 z"
       id="path10"
       style="fill:#ffffff;fill-opacity:1;stroke-width:1.44152" />
    <path
       d="M 14223.253,8788.0385 V 8499.734 h -144.153 -144.152 v -122.5293 -122.5294 h 144.152 144.153 v -677.5154 -677.5154 h 151.36 151.36 v 677.5154 677.5154 h 158.567 158.568 v 122.5294 121.0878 l -154.244,4.3246 -155.684,4.3245 -4.324,285.4214 -2.883,283.98 h -151.36 -151.36 z"
       id="path12"
       style="fill:#ffffff;fill-opacity:1;stroke-width:1.44152" />
    <path
       d="m 11860.528,7358.3565 v -113.4263 h 108.27 108.271 v 113.4263 113.4265 h -108.271 -108.27 z"
       id="path14"
       style="fill:#ffffff;fill-opacity:1;stroke-width:1.03115" />
    <path
       d="M 21632.678,7987.9937 V 6899.6445 h 151.359 151.361 V 7987.9937 9076.343 h -151.361 -151.359 z"
       id="path16"
       style="fill:#ffffff;fill-opacity:1;stroke-width:1.44152" />
    <path
       d="m 5154.6362,8515.5907 c -102.3483,-33.1549 -206.1377,-103.7894 -255.1495,-175.8656 -21.6228,-30.2721 -43.2457,-54.7779 -49.0118,-56.2194 -7.2076,0 -11.5322,49.0117 -11.5322,108.1143 v 108.114 h -144.1521 -144.1524 v -800.0448 -800.0447 h 149.9185 149.9182 l 5.7661,508.8572 c 5.7661,482.91 7.2077,511.7404 37.4796,588.1411 38.9211,98.0235 113.8802,178.7487 203.2546,220.553 96.5819,44.687 330.1085,43.2456 412.2753,-1.4416 76.4008,-40.3627 128.2954,-98.0235 168.6581,-184.5149 31.7135,-70.6345 33.1551,-83.6083 37.4796,-601.1147 l 4.3247,-530.4801 h 157.1257 158.5675 v 523.2724 c 0,562.1938 -8.6491,645.802 -77.8422,797.1619 -69.1931,149.9182 -217.6698,269.5645 -384.8863,307.0441 -102.3482,24.506 -325.7842,17.2983 -418.0414,-11.5322 z"
       id="path18"
       style="fill:#ffffff;fill-opacity:1;stroke-width:1.44152" />
    <path
       d="m 7815.6861,8515.5907 c -266.6817,-76.4005 -477.144,-276.7723 -570.8428,-544.8953 -41.8041,-118.2048 -51.8949,-341.6408 -21.6228,-468.4948 36.038,-155.6843 113.8802,-292.629 230.6436,-409.3922 167.2164,-168.6581 348.8483,-240.7343 599.6732,-240.7343 237.8511,0 415.1583,73.5177 583.8164,242.1758 57.661,57.6609 121.088,139.8276 148.4769,191.7224 l 47.5701,89.3745 -162.892,-1.4416 h -162.8919 l -43.2457,-60.5438 c -103.7896,-141.2694 -247.9418,-204.6963 -445.4304,-194.6056 -142.7106,7.2076 -250.8249,51.8949 -351.7314,147.0352 -76.4007,70.6347 -141.2693,194.6055 -149.9182,282.5384 l -4.3246,50.4531 689.0475,4.3247 687.6062,2.883 v 90.816 c -1.4416,393.5355 -256.591,729.4103 -627.0623,824.5506 -113.8802,28.8305 -335.8746,25.9475 -446.8718,-5.7661 z m 456.9625,-278.2136 c 44.6872,-21.6229 112.4386,-66.3101 149.9182,-100.9067 69.1932,-63.427 149.9185,-207.5791 149.9185,-266.6815 v -33.1551 h -526.1557 -526.1557 v 33.1551 c 0,59.1024 80.7253,203.2545 147.0354,265.2401 122.5293,112.4386 229.2021,149.9182 407.9508,142.7107 87.9327,-2.8831 135.5031,-11.5322 197.4885,-40.3626 z"
       id="path20"
       style="fill:#ffffff;fill-opacity:1;stroke-width:1.44152" />
    <path
       d="m 9758.858,8515.5907 c -105.2312,-36.038 -181.6317,-89.3742 -237.8512,-168.658 l -47.5702,-66.31 -4.3247,109.5557 -4.3245,109.5556 h -142.7106 -144.1521 v -800.0448 -800.0447 h 158.5673 158.5674 v 482.9099 c 0,291.1874 5.7661,510.2987 15.8568,554.986 36.038,165.7751 174.4242,282.5384 356.0559,298.3951 l 89.3745,8.649 v 148.4769 149.9184 h -60.544 c -34.5965,-1.4416 -95.1405,-12.9738 -136.9446,-27.3891 z"
       id="path22"
       style="fill:#ffffff;fill-opacity:1;stroke-width:1.44152" />
    <path
       d="m 10829.909,8527.1229 c -126.854,-30.2719 -252.266,-116.7632 -328.667,-229.2021 -24.506,-34.5964 -24.506,-33.1549 -24.506,83.6084 l -1.441,118.2048 h -144.153 -144.152 v -800.0448 -800.0447 h 157.126 158.567 l 4.325,530.4801 4.325,529.0386 38.921,73.5175 c 85.05,160.0091 223.436,230.6437 428.132,219.1115 129.737,-8.6491 203.254,-40.3625 279.655,-125.4123 95.141,-105.2311 100.906,-147.0353 108.114,-717.8782 l 5.767,-508.8572 h 149.917 149.919 v 537.6876 c 0,423.8076 -4.324,554.9862 -21.623,627.0622 -57.661,245.0587 -198.93,399.3016 -418.041,455.5211 -93.7,24.5058 -309.928,28.8305 -402.185,7.2075 z"
       id="path24"
       style="fill:#ffffff;fill-opacity:1;stroke-width:1.44152" />
    <path
       d="m 12581.359,8519.9154 c -302.72,-80.7252 -529.04,-334.4331 -586.701,-654.4512 -79.283,-439.6643 147.036,-849.0565 540.571,-977.3519 147.036,-47.5704 366.148,-49.0118 505.977,-4.3246 118.204,37.4796 236.409,118.2048 302.719,207.5791 l 50.453,67.7517 4.325,-129.7371 4.324,-129.7369 h 149.919 151.358 v 800.0447 800.0448 h -151.358 -151.36 v -131.1784 -132.6201 l -85.05,92.2574 c -141.27,154.2429 -292.629,216.2283 -527.597,213.3453 -70.635,0 -164.335,-10.0906 -207.58,-21.6228 z m 505.976,-312.8104 c 108.112,-53.3363 229.201,-183.0731 271.006,-294.0705 60.542,-160.0088 53.334,-312.8104 -23.065,-472.8193 -152.802,-324.3424 -595.35,-407.9508 -863.472,-162.892 -113.881,103.7897 -168.659,224.8774 -177.309,389.211 -7.208,149.9182 18.741,250.8249 96.582,360.3804 66.311,93.6992 132.621,147.0355 240.735,193.1642 74.96,31.7134 102.349,34.5965 229.203,30.2718 121.087,-4.3245 157.126,-10.0906 226.32,-43.2456 z"
       id="path26"
       style="fill:#ffffff;fill-opacity:1;stroke-width:1.44152" />
    <path
       d="m 16313.46,8521.3568 c -272.447,-74.9589 -485.791,-271.0062 -576.61,-530.4801 -40.362,-112.4388 -54.776,-347.4069 -30.27,-474.2608 59.101,-305.6028 308.486,-567.9597 608.323,-638.5943 118.203,-27.3889 340.199,-27.3889 456.961,0 265.241,63.427 490.118,269.5647 580.933,536.2462 30.273,83.6083 34.597,125.4125 34.597,285.4214 0,160.0089 -5.766,201.8131 -33.154,281.097 -89.374,249.3832 -272.448,435.3396 -511.741,518.9478 -118.204,43.2458 -409.393,53.3364 -529.039,21.6228 z m 458.404,-317.1348 c 115.322,-51.8947 232.086,-174.4243 278.214,-291.1875 27.389,-66.31 33.154,-112.4386 34.597,-220.5528 0,-123.971 -4.324,-145.5937 -46.129,-233.5266 -132.621,-281.097 -446.872,-396.4188 -730.851,-266.6817 -269.565,123.971 -387.771,461.287 -260.917,743.8254 53.337,119.6463 188.841,246.5004 305.603,288.3045 122.53,43.2456 296.954,36.0381 419.483,-20.1813 z"
       id="path28"
       style="fill:#ffffff;fill-opacity:1;stroke-width:1.44152" />
    <path
       d="m 18307.086,8512.7077 c -103.789,-31.7135 -193.165,-95.1403 -259.473,-184.5148 l -47.572,-61.9854 v 116.7633 116.7632 h -144.151 -144.152 v -800.0448 -800.0447 h 149.917 151.361 l 5.766,508.8572 c 2.881,341.6409 10.089,524.7141 21.623,560.7523 31.711,95.1403 105.231,185.9563 190.28,233.5265 74.959,41.804 87.934,44.6871 230.644,44.6871 128.296,0 160.009,-4.3245 210.462,-31.7134 70.634,-37.4796 129.737,-103.7896 170.1,-191.7223 28.831,-61.9856 30.271,-92.2576 34.596,-593.9073 l 4.324,-530.4801 h 158.567 157.127 v 508.8572 c -1.443,554.9862 -12.975,674.6324 -77.842,810.1355 -76.401,154.2429 -204.696,259.4739 -374.796,304.1612 -109.556,28.8305 -328.668,24.5059 -436.781,-10.0907 z"
       id="path30"
       style="fill:#ffffff;fill-opacity:1;stroke-width:1.44152" />
    <path
       d="m 20104.663,8519.9154 c -294.07,-76.4006 -516.065,-312.8104 -585.257,-621.2962 -28.831,-128.2954 -21.623,-356.0559 14.414,-469.9362 60.545,-188.8394 170.1,-341.6407 320.019,-441.1058 121.089,-80.7252 198.93,-109.5556 356.057,-131.1784 263.798,-37.4796 514.622,56.2193 661.658,245.0588 l 40.362,50.4532 v -125.4125 -126.8538 h 158.567 158.569 v 800.0447 800.0448 h -158.569 -158.567 v -132.62 -131.1785 l -41.805,56.2192 c -76.401,108.1144 -206.137,191.7225 -354.613,230.6437 -93.7,25.9475 -309.928,24.5059 -410.835,-2.883 z m 493.002,-311.3688 c 221.995,-103.7897 351.73,-344.5238 314.251,-586.6997 -50.453,-327.2254 -344.523,-542.0123 -655.893,-477.1436 -232.085,47.5701 -392.093,214.7867 -441.105,459.8453 -50.454,258.0326 109.557,536.2465 363.263,627.0624 102.349,37.4795 315.694,25.9473 419.484,-23.0644 z"
       id="path32"
       style="fill:#ffffff;fill-opacity:1;stroke-width:1.44152" />
    <path
       d="m 15073.752,7699.6892 v -800.0447 h 151.359 151.361 v 800.0447 800.0448 h -151.361 -151.359 z"
       id="path34"
       style="fill:#ffffff;fill-opacity:1;stroke-width:1.44152" />
    <path
       d="m 4939.8493,6235.1026 c -197.4885,-33.155 -399.3017,-180.1901 -484.3514,-351.7312 -38.9212,-80.7254 -41.8043,-98.0237 -41.8043,-252.2665 0,-152.8014 2.8831,-172.9826 40.3627,-247.9418 82.1666,-167.2165 211.9038,-256.591 562.1936,-383.445 302.7197,-110.9972 376.2372,-164.3336 413.7169,-304.1612 37.4796,-142.7106 -47.5701,-304.161 -201.8131,-384.8864 -73.5175,-38.9212 -233.5266,-36.0381 -309.9273,4.3245 -105.2312,56.2195 -177.3071,161.4506 -201.813,296.9537 l -10.0906,53.3363 h -172.9829 -174.4242 l 10.0907,-89.3743 c 30.272,-260.9157 177.3073,-456.9626 410.8339,-546.3371 99.465,-38.9211 370.4713,-54.7779 495.8836,-28.8305 113.8802,24.506 250.8249,96.5822 328.667,174.4243 175.8658,175.8658 232.0852,497.3251 126.8541,717.8781 -74.9592,155.6843 -265.2402,281.0968 -637.1528,422.366 -260.9156,99.4651 -341.641,175.8656 -341.641,325.7841 0,93.6989 18.7399,142.7107 76.4009,204.6961 66.3101,69.193 145.5937,102.348 247.9418,102.348 158.5674,0 258.0324,-73.5175 304.1612,-223.436 l 25.9473,-79.2836 h 171.5413 171.5411 l -10.0907,69.193 c -56.2194,374.796 -384.8864,588.1412 -800.0448,520.3895 z"
       id="path36"
       style="fill:#ffffff;fill-opacity:1;stroke-width:1.44152" />
    <path
       d="M 18605.481,5112.1568 V 4016.6 h 172.983 172.983 v 1095.5568 1095.5569 h -172.983 -172.983 z"
       id="path38"
       style="fill:#ffffff;fill-opacity:1;stroke-width:1.44152" />
    <path
       d="m 6669.6759,5665.7015 c -157.1259,-30.272 -337.3162,-122.5295 -443.9888,-226.3191 -286.8629,-279.6553 -337.3163,-751.0332 -118.2048,-1086.9077 194.6054,-296.9537 566.5181,-439.6643 913.925,-350.29 154.2429,38.9211 273.8893,106.6728 383.4449,216.2283 76.4007,76.4007 187.3979,242.1757 187.3979,279.6554 0,4.3246 -70.6346,8.6491 -157.1259,8.6491 h -157.1259 l -31.7134,-50.4533 c -96.5822,-155.6844 -322.9011,-246.5003 -517.5066,-209.0207 -233.5266,44.6872 -410.8338,211.9038 -442.5473,415.1585 l -10.0908,60.5438 h 689.0478 689.0477 l -8.6492,155.6845 c -8.6491,178.7486 -41.8042,288.3045 -125.4126,418.0413 -103.7895,161.4507 -258.0323,281.097 -431.0149,335.8749 -93.6991,28.8305 -338.7579,49.0115 -419.4831,33.155 z m 262.3571,-266.6818 c 194.6053,-41.8041 369.0297,-204.6961 407.9507,-383.4447 l 10.0906,-47.5703 h -534.8046 -534.8048 l 8.6491,40.3626 c 30.272,131.1784 141.2694,276.7721 255.1495,335.8747 122.5294,63.4269 255.1494,82.1668 387.7695,54.7777 z"
       id="path40"
       style="fill:#ffffff;fill-opacity:1;stroke-width:1.44152" />
    <path
       d="m 8485.9939,5652.7278 c -234.9682,-57.6609 -412.2753,-196.0471 -523.2727,-407.9508 -70.6344,-134.0617 -96.5819,-246.5003 -96.5819,-415.1586 0,-263.7985 76.4009,-456.9624 245.0588,-627.0621 196.0471,-197.4885 485.7929,-273.8891 768.3313,-200.3716 165.7751,41.8041 299.8367,132.6202 371.9128,250.8249 l 27.3889,44.6872 V 4157.8692 4016.6 h 151.3599 151.3598 v 807.2525 807.2524 H 9430.191 9278.8311 v -139.8278 -141.269 l -25.9475,43.2456 c -37.4793,61.9855 -164.3334,172.9827 -237.8511,207.5792 -148.4767,72.0762 -363.2636,92.2573 -529.0386,51.8949 z m 468.4948,-315.6935 c 113.8801,-50.4533 224.8774,-161.4504 276.7721,-273.8893 36.0381,-77.8421 40.3627,-103.7894 40.3627,-232.0851 0,-132.6199 -4.3246,-151.3597 -47.5702,-246.5001 -59.1024,-125.4125 -151.36,-220.5529 -269.5646,-275.3308 -76.4007,-36.0381 -103.7898,-40.3627 -230.6436,-40.3627 -134.0616,0 -151.3598,2.883 -239.2927,46.1287 -116.7632,57.661 -201.8132,147.0353 -262.3572,275.3309 -41.8041,87.9327 -46.1286,109.5555 -46.1286,233.5266 1.4415,172.9826 36.038,269.5646 139.8278,383.4449 119.6462,131.1785 243.6171,180.1903 429.5735,174.4242 96.5819,-2.883 141.2692,-12.9738 209.0208,-44.6873 z"
       id="path42"
       style="fill:#ffffff;fill-opacity:1;stroke-width:1.44152" />
    <path
       d="m 12829.3,5652.7278 c -217.669,-47.5703 -432.456,-214.7868 -529.038,-412.2754 -70.636,-145.5938 -95.14,-253.7079 -95.14,-416.5999 0,-76.4007 10.089,-177.3074 21.623,-223.436 100.906,-399.3018 438.223,-647.2435 843.291,-622.7378 211.903,12.9738 405.067,106.6728 498.766,242.1759 l 41.804,60.5439 4.325,-131.1785 4.324,-132.62 h 149.918 151.36 v 807.2525 807.2524 h -151.36 -151.361 v -132.6201 l -1.439,-134.0615 -30.272,43.2456 c -158.567,216.2284 -452.639,311.3687 -756.801,245.0589 z m 400.744,-289.7461 c 90.816,-25.9474 213.346,-105.2312 262.357,-168.6581 18.74,-25.9474 53.337,-82.1668 76.401,-125.4125 38.921,-73.5175 41.804,-90.8158 41.804,-237.8512 0,-141.2691 -4.325,-167.2165 -38.921,-242.1756 -54.777,-115.3218 -164.334,-227.7605 -275.332,-278.2138 -79.283,-37.4796 -105.23,-41.8042 -233.525,-41.8042 -125.412,0 -154.243,5.7661 -226.32,38.9212 -239.293,110.9971 -373.355,386.3278 -312.81,645.802 73.517,317.1347 389.211,501.6497 706.346,409.3922 z"
       id="path44"
       style="fill:#ffffff;fill-opacity:1;stroke-width:1.44152" />
    <path
       d="m 16183.724,5654.1693 c -221.995,-60.544 -354.615,-210.4622 -371.914,-419.483 -8.648,-121.088 15.859,-207.5792 83.609,-285.4214 69.194,-79.2838 157.125,-125.4124 369.031,-198.9301 282.538,-96.582 351.729,-152.8014 351.729,-288.3045 0,-73.5175 -37.478,-141.2692 -103.79,-190.281 -49.01,-36.038 -187.397,-49.0116 -260.914,-25.9473 -60.545,20.1814 -149.918,113.8804 -162.892,170.0996 -4.324,23.0644 -10.091,49.0118 -14.415,59.1024 -2.884,11.5322 -46.129,17.2983 -147.036,17.2983 -77.841,0 -145.592,-2.8831 -149.918,-7.2076 -14.414,-14.4152 15.858,-154.2428 46.128,-216.2284 98.025,-201.8131 374.796,-325.7839 635.713,-285.4215 318.575,50.4534 513.182,301.2783 459.845,598.232 -36.038,206.1377 -147.036,298.3949 -475.702,393.5355 -160.01,44.6872 -207.579,67.7514 -269.566,126.8538 -54.777,51.8949 -70.633,106.6728 -49.011,172.9827 56.219,170.0997 327.226,201.8131 419.483,49.0118 15.857,-25.9474 28.83,-60.544 28.83,-77.8421 0,-31.7135 4.324,-33.155 152.801,-33.155 h 154.244 l -10.092,67.7514 c -31.712,234.9681 -247.94,394.9773 -527.596,392.0942 -51.895,0 -122.53,-8.6491 -158.567,-18.7398 z"
       id="path46"
       style="fill:#ffffff;fill-opacity:1;stroke-width:1.44152" />
    <path
       d="m 20010.964,5654.1693 c -142.71,-37.4797 -237.849,-99.4651 -309.926,-198.9301 l -43.245,-59.1025 v 116.7632 118.205 h -144.153 -144.152 V 4823.8525 4016.6 h 149.918 151.36 l 4.324,523.2726 c 4.325,507.4157 5.766,523.2724 37.48,592.4656 50.454,109.5558 96.583,161.4504 180.19,203.2546 164.333,79.2838 384.886,59.1024 501.65,-46.1287 129.737,-118.2048 142.71,-187.398 142.71,-791.3957 v -482.91 l 155.684,4.3246 154.243,4.3245 4.324,446.872 c 5.767,640.0358 -14.414,785.6295 -126.853,955.7293 -64.868,96.5819 -164.333,171.5411 -281.097,211.9038 -95.14,33.155 -337.315,41.804 -432.457,15.8567 z"
       id="path48"
       style="fill:#ffffff;fill-opacity:1;stroke-width:1.44152" />
    <path
       d="m 21795.569,5652.7278 c -286.863,-61.9856 -539.128,-309.9274 -616.97,-605.4395 -28.831,-110.9971 -27.391,-331.55 1.44,-445.4302 72.076,-281.097 294.071,-510.2989 575.168,-593.9073 113.88,-34.5966 386.328,-36.0379 491.559,-2.883 239.292,74.9592 410.835,217.6699 518.949,432.4566 73.517,145.5938 76.401,141.2693 -108.114,141.2693 -149.919,0 -158.568,-1.4416 -168.659,-31.7135 -18.74,-61.9855 -161.451,-193.1639 -255.15,-236.4097 -77.841,-36.0381 -106.672,-41.8042 -226.318,-41.8042 -119.648,0 -148.479,5.7661 -226.319,41.8042 -214.788,98.0234 -335.876,315.6933 -317.136,567.9598 15.856,206.1377 129.737,374.7956 312.812,462.7286 69.193,33.155 98.023,37.4797 223.436,37.4797 128.293,0 154.241,-4.3247 233.525,-41.8043 98.023,-44.6872 214.788,-155.6843 250.826,-234.9682 l 20.18,-47.5702 h 161.451 161.451 l -18.74,54.7779 c -66.31,185.9564 -226.319,373.3542 -393.535,461.2871 -181.633,95.1406 -415.158,126.8539 -619.856,82.1669 z"
       id="path50"
       style="fill:#ffffff;fill-opacity:1;stroke-width:1.44152" />
    <path
       d="m 9800.6621,5613.8066 c 4.3247,-10.0906 125.4124,-374.7957 269.5649,-808.6939 l 263.798,-789.9543 145.594,4.3246 147.035,4.3245 164.334,550.6616 c 90.816,304.1612 168.659,547.7783 172.983,543.4538 4.324,-4.3246 82.167,-252.2664 174.423,-550.6614 l 165.776,-543.454 147.035,-4.3245 145.594,-4.3246 263.798,789.9543 c 144.152,433.8982 265.241,798.6033 269.565,808.6939 4.324,14.4152 -28.83,17.2983 -155.684,14.4152 l -162.892,-4.3245 -181.633,-593.9071 c -99.464,-327.2257 -185.955,-589.5828 -190.279,-583.8167 -5.767,5.7661 -85.051,250.8249 -175.867,543.454 l -165.775,533.3632 -129.737,4.3245 -131.178,4.3246 -57.661,-184.5148 c -31.714,-100.9065 -106.673,-348.8483 -168.658,-549.2199 -60.544,-198.9301 -113.881,-360.3807 -118.205,-357.4977 -2.883,4.3247 -89.375,272.4478 -190.281,595.3489 l -183.073,588.141 -162.8924,4.3245 c -126.854,2.8831 -160.009,0 -155.6845,-14.4152 z"
       id="path52"
       style="fill:#ffffff;fill-opacity:1;stroke-width:1.44152" />
    <path
       d="m 14126.67,5599.3914 c 5.767,-18.7398 141.272,-370.4712 304.163,-781.305 l 295.512,-748.1501 -129.736,-305.6028 c -70.636,-168.6581 -128.297,-309.9272 -128.297,-315.6933 0,-4.3246 73.517,-8.6491 162.891,-8.6491 h 161.451 l 432.457,1082.5832 c 237.852,595.3486 435.34,1088.3492 436.781,1095.5569 2.884,7.2076 -66.31,12.9737 -160.009,12.9737 h -167.216 l -56.219,-147.0353 c -31.713,-82.1668 -129.736,-341.6408 -220.554,-576.6089 -89.373,-236.4096 -167.217,-429.5737 -171.541,-429.5737 -4.323,0 -105.231,258.0326 -224.877,573.7258 l -214.788,572.2845 -164.332,4.3245 -162.893,4.3247 z"
       id="path54"
       style="fill:#ffffff;fill-opacity:1;stroke-width:1.44152" />
    <path
       d="m 17215.853,4121.8311 c -47.569,-157.1259 -87.932,-294.0706 -92.257,-302.7197 -4.325,-14.4152 27.388,-18.7397 128.295,-18.7397 h 135.503 l 115.322,289.7459 c 63.426,160.0089 118.205,295.5122 119.647,302.7197 2.883,7.2074 -67.753,12.9735 -158.568,12.9735 h -162.891 z"
       id="path56"
       style="fill:#ffffff;fill-opacity:1;stroke-width:1.44152" />
    <path
       d="M 23203.937,4211.2055 V 4016.6 h 158.567 158.568 v 194.6055 194.6053 h -158.568 -158.567 z"
       id="path58"
       style="fill:#ffffff;fill-opacity:1;stroke-width:1.44152" />
    <path
       d="m 4341.0315,3216.0711 c -239.76,-27.36 -504,-122.4 -745.2,-269.28 -167.04,-101.52 -316.08,-213.84 -640.8,-482.4 -248.4,-205.2 -377.28,-305.28 -504,-391.68 -277.92,-188.64 -531.36,-298.08 -792,-342 -93.6,-15.84 -263.52,-27.36 -334.8,-23.04 l -61.2,4.32 64.8,-32.4 c 69.12,-33.84 226.08,-88.56 309.6,-108 145.44,-33.12 342.72,-41.76 485.28,-20.88 189.36,27.36 381.6,94.32 576.72,200.88 214.56,117.36 396.72,248.4 802.8,576.72 489.6,396 666.72,520.56 914.4,643.68 215.28,105.84 345.6,144.72 597.6,177.12 34.56,4.32 35.28,5.04 14.4,10.8 -52.56,15.12 -201.6,43.2 -284.4,53.28 -96.48,11.52 -311.04,12.96 -403.2,2.88 z"
       id="path60"
       style="fill:#ffffff;fill-opacity:1;stroke-width:0.72" />
    <path
       d="m 4765.8315,2938.8711 c -212.4,-62.64 -438.48,-195.84 -738,-433.44 -47.52,-38.16 -170.64,-138.96 -273.6,-224.64 -326.16,-270 -467.28,-380.16 -620.64,-483.84 -213.84,-143.28 -421.2,-246.96 -597.6,-298.8 -25.2,-7.2 -45.36,-15.12 -45.36,-17.28 0,-2.16 33.12,-10.8 74.16,-18 112.32,-20.88 361.44,-18.72 465.84,3.6 244.8,51.84 476.64,169.2 716.4,360.72 120.96,96.48 378,353.52 537.12,536.4 69.12,79.92 167.04,192.96 218.88,252 99.36,115.2 234,253.44 298.8,308.16 21.6,18.72 36.72,33.12 32.4,33.12 -3.6,0 -34.56,-7.92 -68.4,-18 z"
       id="path62"
       style="fill:#ffffff;fill-opacity:1;stroke-width:0.72" />
  </g>
</svg>
