<?xml version="1.0" encoding="UTF-8" standalone="no"?>
<svg
   version="1.0"
   width="1797.000000pt"
   height="1080.000000pt"
   viewBox="0 0 1797.000000 1080.000000"
   preserveAspectRatio="xMidYMid meet"
   id="svg66"
   sodipodi:docname="isi-logo-white-blue.svg"
   inkscape:version="1.1.1 (3bf5ae0d25, 2021-09-20)"
   xmlns:inkscape="http://www.inkscape.org/namespaces/inkscape"
   xmlns:sodipodi="http://sodipodi.sourceforge.net/DTD/sodipodi-0.dtd"
   xmlns="http://www.w3.org/2000/svg"
   xmlns:svg="http://www.w3.org/2000/svg">
  <defs
     id="defs70" />
  <sodipodi:namedview
     id="namedview68"
     pagecolor="#ffffff"
     bordercolor="#666666"
     borderopacity="1.0"
     inkscape:pageshadow="2"
     inkscape:pageopacity="0.0"
     inkscape:pagecheckerboard="0"
     inkscape:document-units="pt"
     showgrid="false"
     inkscape:zoom="0.44722222"
     inkscape:cx="1198.5093"
     inkscape:cy="718.88199"
     inkscape:window-width="1920"
     inkscape:window-height="1017"
     inkscape:window-x="1358"
     inkscape:window-y="260"
     inkscape:window-maximized="1"
     inkscape:current-layer="g64" />
  <g
     transform="translate(0.000000,1080.000000) scale(0.100000,-0.100000)"
     fill="#000000"
     stroke="none"
     id="g64">
    <path
       d="m 3209.1693,9763.1159 c -11.34,-8.91 -16.2,-24.3 -19.44,-60.75 l -4.05,-48.6 -319.14,-238.95 c -313.47,-235.71 -319.14,-239.76 -285.93,-239.76 h 34.02 v -335.34 -334.53 l -106.92,-9.72 c -59.13,-5.67 -120.69,-12.96 -136.08,-15.39 l -29.16,-5.67 68.85,-285.12 68.85,-285.93 -383.13,-2925.72 c -210.6,-1609.47 -383.94,-2937.87 -386.37,-2950.83 -4.05,-21.87 4.05,-34.83 72.09,-114.21 171.72,-201.69 356.4,-324.81 570.24,-381.51 69.66,-18.63 96.39,-21.06 213.03,-21.87 155.52,-0.81 209.79,8.91 384.75,66.42 266.49,87.48 549.18,260.01 1024.65,625.32 379.08,291.6 613.98,457.65 703.08,497.34 32.4,14.58 34.83,17.82 30.78,40.5 -2.43,13.77 -164.43,1180.98 -361.26,2594.43 l -356.4,2568.51 68.85,285.12 c 38.07,157.14 68.04,286.74 67.23,288.36 -1.62,0.81 -63.99,6.48 -138.51,12.15 l -135.27,10.53 v 337.77 338.58 l 32.4,2.43 33.21,2.43 -319.95,238.95 -319.95,238.95 -0.81,46.17 c 0,63.99 -29.16,89.1 -69.66,59.94 z m -392.04,-754.11 c 0,-126.36 -2.43,-167.67 -9.72,-170.1 -5.67,-1.62 -40.5,-4.86 -76.95,-8.1 l -67.23,-4.86 v 174.15 174.96 h 76.95 76.95 z m 194.4,4.86 v -160.38 l -54.27,-4.86 c -30.78,-3.24 -63.18,-5.67 -72.9,-5.67 h -18.63 v 166.05 166.05 h 72.9 72.9 z m 396.9,-0.81 v -162 h -174.15 -174.15 v 162 162 h 174.15 174.15 z m 202.5,-4.86 v -167.67 l -49.41,5.67 c -27.54,2.43 -62.37,4.86 -76.95,4.86 h -27.54 v 162 162 h 76.95 76.95 z m 194.4,-7.29 v -174.96 l -62.37,4.86 c -34.83,3.24 -68.04,6.48 -72.9,8.1 -8.1,2.43 -10.53,43.74 -10.53,170.1 v 166.05 h 72.9 72.9 z m 234.09,-2057.4 c 73.71,-527.31 131.22,-961.47 128.79,-963.9 -2.43,-2.43 -55.08,4.05 -116.64,15.39 -123.93,22.68 -246.24,39.69 -400.14,55.08 -137.7,14.58 -687.69,13.77 -838.35,0 -140.94,-13.77 -334.53,-38.07 -424.44,-55.08 -37.26,-6.48 -68.85,-10.53 -70.47,-8.91 -3.24,3.24 231.66,1820.88 243.81,1891.35 l 4.86,25.92 h 669.87 669.87 z m -3.24,-2100.33 32.4,-5.67 21.87,-190.35 c 27.54,-243.81 27.54,-238.14 4.86,-232.47 -9.72,3.24 -86.67,10.53 -171.72,17.82 -85.05,7.29 -162.81,15.39 -172.53,17.01 -17.82,3.24 -18.63,5.67 -17.82,102.87 0.81,54.27 3.24,140.94 6.48,191.97 l 4.86,93.15 36.45,4.86 c 51.84,7.29 217.08,7.29 255.15,0.81 z m -206.55,-763.02 c 253.53,-17.01 595.35,-58.32 610.74,-73.71 8.1,-7.29 184.68,-1255.5 179.01,-1261.17 -1.62,-1.62 -36.45,1.62 -76.95,6.48 -96.39,13.77 -270.54,5.67 -376.65,-16.2 -208.17,-44.55 -435.78,-136.89 -761.4,-309.42 -473.04,-251.1 -716.04,-356.4 -953.37,-414.72 -157.95,-38.07 -252.72,-47.79 -435.78,-42.93 -91.53,2.43 -179.01,8.1 -194.4,11.34 -26.73,6.48 -28.35,8.91 -25.92,34.83 19.44,191.16 261.63,1988.55 268.92,1992.6 9.72,6.48 263.25,34.02 473.85,52.65 123.93,10.53 360.45,24.3 546.75,31.59 122.31,4.86 615.6,-2.43 745.2,-11.34 z"
       id="path2"
       style="fill:#0a2c74;fill-opacity:1;stroke-width:0.81" />
    <path
       d="m 2663.2293,6929.7359 c -33.21,-4.05 -63.18,-9.72 -65.61,-12.96 -4.05,-5.67 -49.41,-375.84 -45.36,-379.08 0.81,-0.81 30.78,3.24 66.42,9.72 35.64,5.67 118.26,12.96 184.68,16.2 l 119.07,5.67 v 185.49 184.68 l -98.82,-0.81 c -55.08,-0.81 -127.17,-4.86 -160.38,-8.91 z"
       id="path4"
       style="fill:#0a2c74;fill-opacity:1;stroke-width:0.81" />
    <path
       d="m 2250.9393,3156.7559 c -23.49,-3.24 -45.36,-9.72 -49.41,-13.77 -3.24,-3.24 -13.77,-85.05 -23.49,-180.63 -10.53,-95.58 -20.25,-179.82 -21.87,-187.11 -3.24,-10.53 7.29,-13.77 64.8,-17.82 63.99,-4.86 260.01,5.67 290.79,15.39 12.15,4.05 13.77,20.25 13.77,189.54 v 184.68 l -17.82,4.86 c -33.21,8.1 -212.22,12.15 -256.77,4.86 z"
       id="path6"
       style="fill:#0a2c74;fill-opacity:1;stroke-width:0.81" />
    <path
       d="m 5174.2293,5825.7059 v -611.55 h 101.25 101.25 v 611.55 611.55 h -101.25 -101.25 z"
       id="path8"
       style="fill:#ffffff;fill-opacity:1;stroke-width:0.81" />
    <path
       d="m 6721.3293,6275.2559 v -162 h -81 -81.81 l 2.43,-66.42 2.43,-67.23 79.38,-2.43 78.57,-2.43 v -379.89 -380.7 h 89.1 89.1 v 380.7 380.7 h 85.05 85.05 v 68.85 68.85 h -85.05 -85.05 v 162 162 h -89.1 -89.1 z"
       id="path10"
       style="fill:#ffffff;fill-opacity:1;stroke-width:0.81" />
    <path
       d="m 11038.629,6275.2559 v -162 h -81 -81 v -68.85 -68.85 h 81 81 v -380.7 -380.7 h 85.05 85.05 v 380.7 380.7 h 89.1 89.1 v 68.85 68.04 l -86.67,2.43 -87.48,2.43 -2.43,160.38 -1.62,159.57 h -85.05 -85.05 z"
       id="path12"
       style="fill:#ffffff;fill-opacity:1;stroke-width:0.81" />
    <path
       d="m 11516.529,6348.1559 v -89.1 h 85.05 85.05 v 89.1 89.1 h -85.05 -85.05 z"
       id="path14"
       style="fill:#ffffff;fill-opacity:1;stroke-width:0.81" />
    <path
       d="m 15202.029,5825.7059 v -611.55 h 85.05 85.05 v 611.55 611.55 h -85.05 -85.05 z"
       id="path16"
       style="fill:#ffffff;fill-opacity:1;stroke-width:0.81" />
    <path
       d="m 5942.9193,6122.1659 c -57.51,-18.63 -115.83,-58.32 -143.37,-98.82 -12.15,-17.01 -24.3,-30.78 -27.54,-31.59 -4.05,0 -6.48,27.54 -6.48,60.75 v 60.75 h -81 -81 v -449.55 -449.55 h 84.24 84.24 l 3.24,285.93 c 3.24,271.35 4.05,287.55 21.06,330.48 21.87,55.08 63.99,100.44 114.21,123.93 54.27,25.11 185.49,24.3 231.66,-0.81 42.93,-22.68 72.09,-55.08 94.77,-103.68 17.82,-39.69 18.63,-46.98 21.06,-337.77 l 2.43,-298.08 h 88.29 89.1 v 294.03 c 0,315.9 -4.86,362.88 -43.74,447.93 -38.88,84.24 -122.31,151.47 -216.27,172.53 -57.51,13.77 -183.06,9.72 -234.9,-6.48 z"
       id="path18"
       style="fill:#ffffff;fill-opacity:1;stroke-width:0.81" />
    <path
       d="m 7438.1793,6122.1659 c -149.85,-42.93 -268.11,-155.52 -320.76,-306.18 -23.49,-66.42 -29.16,-191.97 -12.15,-263.25 20.25,-87.48 63.99,-164.43 129.6,-230.04 93.96,-94.77 196.02,-135.27 336.96,-135.27 133.65,0 233.28,41.31 328.05,136.08 32.4,32.4 68.04,78.57 83.43,107.73 l 26.73,50.22 -91.53,-0.81 h -91.53 l -24.3,-34.02 c -58.32,-79.38 -139.32,-115.02 -250.29,-109.35 -80.19,4.05 -140.94,29.16 -197.64,82.62 -42.93,39.69 -79.38,109.35 -84.24,158.76 l -2.43,28.35 387.18,2.43 386.37,1.62 v 51.03 c -0.81,221.13 -144.18,409.86 -352.35,463.32 -63.99,16.2 -188.73,14.58 -251.1,-3.24 z m 256.77,-156.33 c 25.11,-12.15 63.18,-37.26 84.24,-56.7 38.88,-35.64 84.24,-116.64 84.24,-149.85 v -18.63 h -295.65 -295.65 v 18.63 c 0,33.21 45.36,114.21 82.62,149.04 68.85,63.18 128.79,84.24 229.23,80.19 49.41,-1.62 76.14,-6.48 110.97,-22.68 z"
       id="path20"
       style="fill:#ffffff;fill-opacity:1;stroke-width:0.81" />
    <path
       d="m 8530.0593,6122.1659 c -59.13,-20.25 -102.06,-50.22 -133.65,-94.77 l -26.73,-37.26 -2.43,61.56 -2.43,61.56 h -80.19 -81 v -449.55 -449.55 h 89.1 89.1 v 271.35 c 0,163.62 3.24,286.74 8.91,311.85 20.25,93.15 98.01,158.76 200.07,167.67 l 50.22,4.86 v 83.43 84.24 h -34.02 c -19.44,-0.81 -53.46,-7.29 -76.95,-15.39 z"
       id="path22"
       style="fill:#ffffff;fill-opacity:1;stroke-width:0.81" />
    <path
       d="m 9131.8893,6128.6459 c -71.28,-17.01 -141.75,-65.61 -184.68,-128.79 -13.77,-19.44 -13.77,-18.63 -13.77,46.98 l -0.81,66.42 h -81 -81 v -449.55 -449.55 h 88.29 89.1 l 2.43,298.08 2.43,297.27 21.87,41.31 c 47.79,89.91 125.55,129.6 240.57,123.12 72.9,-4.86 114.21,-22.68 157.14,-70.47 53.46,-59.13 56.7,-82.62 60.75,-403.38 l 3.24,-285.93 h 84.24 84.24 v 302.13 c 0,238.14 -2.43,311.85 -12.15,352.35 -32.4,137.7 -111.78,224.37 -234.9,255.96 -52.65,13.77 -174.15,16.2 -225.99,4.05 z"
       id="path24"
       style="fill:#ffffff;fill-opacity:1;stroke-width:0.81" />
    <path
       d="m 10116.039,6124.5959 c -170.0997,-45.36 -297.2697,-187.92 -329.6697,-367.74 -44.55,-247.05 82.62,-477.09 303.7497,-549.18 82.62,-26.73 205.74,-27.54 284.31,-2.43 66.42,21.06 132.84,66.42 170.1,116.64 l 28.35,38.07 2.43,-72.9 2.43,-72.9 h 84.24 85.05 v 449.55 449.55 h -85.05 -85.05 v -73.71 -74.52 l -47.79,51.84 c -79.38,86.67 -164.43,121.5 -296.46,119.88 -39.69,0 -92.34,-5.67 -116.64,-12.15 z m 284.31,-175.77 c 60.75,-29.97 128.79,-102.87 152.28,-165.24 34.02,-89.91 29.97,-175.77 -12.96,-265.68 -85.86,-182.25 -334.53,-229.23 -485.19,-91.53 -63.9897,58.32 -94.7697,126.36 -99.6297,218.7 -4.05,84.24 10.53,140.94 54.2697,202.5 37.26,52.65 74.52,82.62 135.27,108.54 42.12,17.82 57.51,19.44 128.79,17.01 68.04,-2.43 88.29,-5.67 127.17,-24.3 z"
       id="path26"
       style="fill:#ffffff;fill-opacity:1;stroke-width:0.81" />
    <path
       d="m 12213.129,6125.4059 c -153.09,-42.12 -272.97,-152.28 -324,-298.08 -22.68,-63.18 -30.78,-195.21 -17.01,-266.49 33.21,-171.72 173.34,-319.14 341.82,-358.83 66.42,-15.39 191.16,-15.39 256.77,0 149.04,35.64 275.4,151.47 326.43,301.32 17.01,46.98 19.44,70.47 19.44,160.38 0,89.91 -3.24,113.4 -18.63,157.95 -50.22,140.13 -153.09,244.62 -287.55,291.6 -66.42,24.3 -230.04,29.97 -297.27,12.15 z m 257.58,-178.2 c 64.8,-29.16 130.41,-98.01 156.33,-163.62 15.39,-37.26 18.63,-63.18 19.44,-123.93 0,-69.66 -2.43,-81.81 -25.92,-131.22 -74.52,-157.95 -251.1,-222.75 -410.67,-149.85 -151.47,69.66 -217.89,259.2 -146.61,417.96 29.97,67.23 106.11,138.51 171.72,162 68.85,24.3 166.86,20.25 235.71,-11.34 z"
       id="path28"
       style="fill:#ffffff;fill-opacity:1;stroke-width:0.81" />
    <path
       d="m 13333.359,6120.5459 c -58.32,-17.82 -108.54,-53.46 -145.8,-103.68 l -26.73,-34.83 v 65.61 65.61 h -81 -81 v -449.55 -449.55 h 84.24 85.05 l 3.24,285.93 c 1.62,191.97 5.67,294.84 12.15,315.09 17.82,53.46 59.13,104.49 106.92,131.22 42.12,23.49 49.41,25.11 129.6,25.11 72.09,0 89.91,-2.43 118.26,-17.82 39.69,-21.06 72.9,-58.32 95.58,-107.73 16.2,-34.83 17.01,-51.84 19.44,-333.72 l 2.43,-298.08 h 89.1 88.29 v 285.93 c -0.81,311.85 -7.29,379.08 -43.74,455.22 -42.93,86.67 -115.02,145.8 -210.6,170.91 -61.56,16.2 -184.68,13.77 -245.43,-5.67 z"
       id="path30"
       style="fill:#ffffff;fill-opacity:1;stroke-width:0.81" />
    <path
       d="m 14343.429,6124.5959 c -165.24,-42.93 -289.98,-175.77 -328.86,-349.11 -16.2,-72.09 -12.15,-200.07 8.1,-264.06 34.02,-106.11 95.58,-191.97 179.82,-247.86 68.04,-45.36 111.78,-61.56 200.07,-73.71 148.23,-21.06 289.17,31.59 371.79,137.7 l 22.68,28.35 v -70.47 -71.28 h 89.1 89.1 v 449.55 449.55 h -89.1 -89.1 v -74.52 -73.71 l -23.49,31.59 c -42.93,60.75 -115.83,107.73 -199.26,129.6 -52.65,14.58 -174.15,13.77 -230.85,-1.62 z m 277.02,-174.96 c 124.74,-58.32 197.64,-193.59 176.58,-329.67 -28.35,-183.87 -193.59,-304.56 -368.55,-268.11 -130.41,26.73 -220.32,120.69 -247.86,258.39 -28.35,144.99 61.56,301.32 204.12,352.35 57.51,21.06 177.39,14.58 235.71,-12.96 z"
       id="path32"
       style="fill:#ffffff;fill-opacity:1;stroke-width:0.81" />
    <path
       d="m 11516.529,5663.7059 v -449.55 h 85.05 85.05 v 449.55 449.55 h -85.05 -85.05 z"
       id="path34"
       style="fill:#ffffff;fill-opacity:1;stroke-width:0.81" />
    <path
       d="m 5822.2293,4840.7459 c -110.97,-18.63 -224.37,-101.25 -272.16,-197.64 -21.87,-45.36 -23.49,-55.08 -23.49,-141.75 0,-85.86 1.62,-97.2 22.68,-139.32 46.17,-93.96 119.07,-144.18 315.9,-215.46 170.1,-62.37 211.41,-92.34 232.47,-170.91 21.06,-80.19 -26.73,-170.91 -113.4,-216.27 -41.31,-21.87 -131.22,-20.25 -174.15,2.43 -59.13,31.59 -99.63,90.72 -113.4,166.86 l -5.67,29.97 h -97.2 -98.01 l 5.67,-50.22 c 17.01,-146.61 99.63,-256.77 230.85,-306.99 55.89,-21.87 208.17,-30.78 278.64,-16.2 63.99,13.77 140.94,54.27 184.68,98.01 98.82,98.82 130.41,279.45 71.28,403.38 -42.12,87.48 -149.04,157.95 -358.02,237.33 -146.61,55.89 -191.97,98.82 -191.97,183.06 0,52.65 10.53,80.19 42.93,115.02 37.26,38.88 81.81,57.51 139.32,57.51 89.1,0 144.99,-41.31 170.91,-125.55 l 14.58,-44.55 h 96.39 96.39 l -5.67,38.88 c -31.59,210.6 -216.27,330.48 -449.55,292.41 z"
       id="path36"
       style="fill:#ffffff;fill-opacity:1;stroke-width:0.81" />
    <path
       d="m 13501.029,4209.7559 v -615.6 h 97.2 97.2 v 615.6 615.6 h -97.2 -97.2 z"
       id="path38"
       style="fill:#ffffff;fill-opacity:1;stroke-width:0.81" />
    <path
       d="m 6794.2293,4520.7959 c -88.29,-17.01 -189.54,-68.85 -249.48,-127.17 -161.19,-157.14 -189.54,-422.01 -66.42,-610.74 109.35,-166.86 318.33,-247.05 513.54,-196.83 86.67,21.87 153.9,59.94 215.46,121.5 42.93,42.93 105.3,136.08 105.3,157.14 0,2.43 -39.69,4.86 -88.29,4.86 h -88.29 l -17.82,-28.35 c -54.27,-87.48 -181.44,-138.51 -290.79,-117.45 -131.22,25.11 -230.85,119.07 -248.67,233.28 l -5.67,34.02 h 387.18 387.18 l -4.86,87.48 c -4.86,100.44 -23.49,162 -70.47,234.9 -58.32,90.72 -144.99,157.95 -242.19,188.73 -52.65,16.2 -190.35,27.54 -235.71,18.63 z m 147.42,-149.85 c 109.35,-23.49 207.36,-115.02 229.23,-215.46 l 5.67,-26.73 h -300.51 -300.51 l 4.86,22.68 c 17.01,73.71 79.38,155.52 143.37,188.73 68.85,35.64 143.37,46.17 217.89,30.78 z"
       id="path40"
       style="fill:#ffffff;fill-opacity:1;stroke-width:0.81" />
    <path
       d="m 7814.8293,4513.5059 c -132.03,-32.4 -231.66,-110.16 -294.03,-229.23 -39.69,-75.33 -54.27,-138.51 -54.27,-233.28 0,-148.23 42.93,-256.77 137.7,-352.35 110.16,-110.97 272.97,-153.9 431.73,-112.59 93.15,23.49 168.48,74.52 208.98,140.94 l 15.39,25.11 v -78.57 -79.38 h 85.05 85.05 v 453.6 453.6 h -85.05 -85.05 v -78.57 -79.38 l -14.58,24.3 c -21.06,34.83 -92.34,97.2 -133.65,116.64 -83.43,40.5 -204.12,51.84 -297.27,29.16 z m 263.25,-177.39 c 63.99,-28.35 126.36,-90.72 155.52,-153.9 20.25,-43.74 22.68,-58.32 22.68,-130.41 0,-74.52 -2.43,-85.05 -26.73,-138.51 -33.21,-70.47 -85.05,-123.93 -151.47,-154.71 -42.93,-20.25 -58.32,-22.68 -129.6,-22.68 -75.33,0 -85.05,1.62 -134.46,25.92 -65.61,32.4 -113.4,82.62 -147.42,154.71 -23.49,49.41 -25.92,61.56 -25.92,131.22 0.81,97.2 20.25,151.47 78.57,215.46 67.23,73.71 136.89,101.25 241.38,98.01 54.27,-1.62 79.38,-7.29 117.45,-25.11 z"
       id="path42"
       style="fill:#ffffff;fill-opacity:1;stroke-width:0.81" />
    <path
       d="m 10255.359,4513.5059 c -122.31,-26.73 -243,-120.69 -297.2697,-231.66 -39.69,-81.81 -53.46,-142.56 -53.46,-234.09 0,-42.93 5.67,-99.63 12.15,-125.55 56.7,-224.37 246.2397,-363.69 473.8497,-349.92 119.07,7.29 227.61,59.94 280.26,136.08 l 23.49,34.02 2.43,-73.71 2.43,-74.52 h 84.24 85.05 v 453.6 453.6 h -85.05 -85.05 v -74.52 l -0.81,-75.33 -17.01,24.3 c -89.1,121.5 -254.34,174.96 -425.25,137.7 z m 225.18,-162.81 c 51.03,-14.58 119.88,-59.13 147.42,-94.77 10.53,-14.58 29.97,-46.17 42.93,-70.47 21.87,-41.31 23.49,-51.03 23.49,-133.65 0,-79.38 -2.43,-93.96 -21.87,-136.08 -30.78,-64.8 -92.34,-127.98 -154.71,-156.33 -44.55,-21.06 -59.13,-23.49 -131.22,-23.49 -70.47,0 -86.67,3.24 -127.17,21.87 -134.46,62.37 -209.79,217.08 -175.77,362.88 41.31,178.2 218.7,281.88 396.9,230.04 z"
       id="path44"
       style="fill:#ffffff;fill-opacity:1;stroke-width:0.81" />
    <path
       d="m 12140.229,4514.3159 c -124.74,-34.02 -199.26,-118.26 -208.98,-235.71 -4.86,-68.04 8.91,-116.64 46.98,-160.38 38.88,-44.55 88.29,-70.47 207.36,-111.78 158.76,-54.27 197.64,-85.86 197.64,-162 0,-41.31 -21.06,-79.38 -58.32,-106.92 -27.54,-20.25 -105.3,-27.54 -146.61,-14.58 -34.02,11.34 -84.24,63.99 -91.53,95.58 -2.43,12.96 -5.67,27.54 -8.1,33.21 -1.62,6.48 -25.92,9.72 -82.62,9.72 -43.74,0 -81.81,-1.62 -84.24,-4.05 -8.1,-8.1 8.91,-86.67 25.92,-121.5 55.08,-113.4 210.6,-183.06 357.21,-160.38 179.01,28.35 288.36,169.29 258.39,336.15 -20.25,115.83 -82.62,167.67 -267.3,221.13 -89.91,25.11 -116.64,38.07 -151.47,71.28 -30.78,29.16 -39.69,59.94 -27.54,97.2 31.59,95.58 183.87,113.4 235.71,27.54 8.91,-14.58 16.2,-34.02 16.2,-43.74 0,-17.82 2.43,-18.63 85.86,-18.63 h 86.67 l -5.67,38.07 c -17.82,132.03 -139.32,221.94 -296.46,220.32 -29.16,0 -68.85,-4.86 -89.1,-10.53 z"
       id="path46"
       style="fill:#ffffff;fill-opacity:1;stroke-width:0.81" />
    <path
       d="m 14290.779,4514.3159 c -80.19,-21.06 -133.65,-55.89 -174.15,-111.78 l -24.3,-33.21 v 65.61 66.42 h -81 -81 v -453.6 -453.6 h 84.24 85.05 l 2.43,294.03 c 2.43,285.12 3.24,294.03 21.06,332.91 28.35,61.56 54.27,90.72 101.25,114.21 92.34,44.55 216.27,33.21 281.88,-25.92 72.9,-66.42 80.19,-105.3 80.19,-444.69 v -271.35 l 87.48,2.43 86.67,2.43 2.43,251.1 c 3.24,359.64 -8.1,441.45 -71.28,537.03 -36.45,54.27 -92.34,96.39 -157.95,119.07 -53.46,18.63 -189.54,23.49 -243,8.91 z"
       id="path48"
       style="fill:#ffffff;fill-opacity:1;stroke-width:0.81" />
    <path
       d="m 15293.559,4513.5059 c -161.19,-34.83 -302.94,-174.15 -346.68,-340.2 -16.2,-62.37 -15.39,-186.3 0.81,-250.29 40.5,-157.95 165.24,-286.74 323.19,-333.72 63.99,-19.44 217.08,-20.25 276.21,-1.62 134.46,42.12 230.85,122.31 291.6,243 41.31,81.81 42.93,79.38 -60.75,79.38 -84.24,0 -89.1,-0.81 -94.77,-17.82 -10.53,-34.83 -90.72,-108.54 -143.37,-132.84 -43.74,-20.25 -59.94,-23.49 -127.17,-23.49 -67.23,0 -83.43,3.24 -127.17,23.49 -120.69,55.08 -188.73,177.39 -178.2,319.14 8.91,115.83 72.9,210.6 175.77,260.01 38.88,18.63 55.08,21.06 125.55,21.06 72.09,0 86.67,-2.43 131.22,-23.49 55.08,-25.11 120.69,-87.48 140.94,-132.03 l 11.34,-26.73 h 90.72 90.72 l -10.53,30.78 c -37.26,104.49 -127.17,209.79 -221.13,259.2 -102.06,53.46 -233.28,71.28 -348.3,46.17 z"
       id="path50"
       style="fill:#ffffff;fill-opacity:1;stroke-width:0.81" />
    <path
       d="m 8553.5493,4491.6359 c 2.43,-5.67 70.47,-210.6 151.47,-454.41 l 148.23,-443.88 81.81,2.43 82.62,2.43 92.34,309.42 c 51.03,170.91 94.77,307.8 97.2,305.37 2.43,-2.43 46.17,-141.75 98.01,-309.42 l 93.15,-305.37 82.62,-2.43 81.81,-2.43 148.23,443.88 c 81,243.81 149.04,448.74 151.47,454.41 2.43,8.1 -16.2,9.72 -87.48,8.1 l -91.53,-2.43 -102.06,-333.72 c -55.89,-183.87 -104.49,-331.29 -106.92,-328.05 -3.24,3.24 -47.79,140.94 -98.82,305.37 l -93.15,299.7 -72.9,2.43 -73.71,2.43 -32.4,-103.68 c -17.82,-56.7 -59.94,-196.02 -94.77,-308.61 -34.02,-111.78 -63.99,-202.5 -66.42,-200.88 -1.62,2.43 -50.22,153.09 -106.92,334.53 l -102.87,330.48 -91.53,2.43 c -71.28,1.62 -89.91,0 -87.48,-8.1 z"
       id="path52"
       style="fill:#ffffff;fill-opacity:1;stroke-width:0.81" />
    <path
       d="m 10984.359,4483.5359 c 3.24,-10.53 79.38,-208.17 170.91,-439.02 l 166.05,-420.39 -72.9,-171.72 c -39.69,-94.77 -72.09,-174.15 -72.09,-177.39 0,-2.43 41.31,-4.86 91.53,-4.86 h 90.72 l 243,608.31 c 133.65,334.53 244.62,611.55 245.43,615.6 1.62,4.05 -37.26,7.29 -89.91,7.29 h -93.96 l -31.59,-82.62 c -17.82,-46.17 -72.9,-191.97 -123.93,-324 -50.22,-132.84 -93.96,-241.38 -96.39,-241.38 -2.43,0 -59.13,144.99 -126.36,322.38 l -120.69,321.57 -92.34,2.43 -91.53,2.43 z"
       id="path54"
       style="fill:#ffffff;fill-opacity:1;stroke-width:0.81" />
    <path
       d="m 12720.189,3653.2859 c -26.73,-88.29 -49.41,-165.24 -51.84,-170.1 -2.43,-8.1 15.39,-10.53 72.09,-10.53 h 76.14 l 64.8,162.81 c 35.64,89.91 66.42,166.05 67.23,170.1 1.62,4.05 -38.07,7.29 -89.1,7.29 h -91.53 z"
       id="path56"
       style="fill:#ffffff;fill-opacity:1;stroke-width:0.81" />
    <path
       d="m 16084.929,3703.5059 v -109.35 h 89.1 89.1 v 109.35 109.35 h -89.1 -89.1 z"
       id="path58"
       style="fill:#ffffff;fill-opacity:1;stroke-width:0.81" />
    <path
       d="m 5797.9293,3018.2459 c -269.73,-30.78 -567,-137.7 -838.35,-302.94 -187.92,-114.21 -355.59,-240.57 -720.9,-542.7 -279.45,-230.85 -424.44,-343.44 -567,-440.64 -312.66,-212.22 -597.78,-335.34 -891,-384.75 -105.3,-17.82 -296.46,-30.78 -376.65,-25.92 l -68.85,4.86 72.9,-36.45 c 77.76,-38.07 254.34,-99.63 348.3,-121.5 163.62,-37.26 385.56,-46.98 545.94,-23.49 213.03,30.78 429.3,106.11 648.81,225.99 241.38,132.03 446.31,279.45 903.15,648.81 550.8,445.5 750.06,585.63 1028.7,724.14 242.19,119.07 388.8,162.81 672.3,199.26 38.88,4.86 39.69,5.67 16.2,12.15 -59.13,17.01 -226.8,48.6 -319.95,59.94 -108.54,12.96 -349.92,14.58 -453.6,3.24 z"
       id="path60"
       style="fill:#0a2c74;fill-opacity:1;stroke-width:0.81" />
    <path
       d="m 6275.8293,2706.3959 c -238.95,-70.47 -493.29,-220.32 -830.25,-487.62 -53.46,-42.93 -191.97,-156.33 -307.8,-252.72 -366.93,-303.75 -525.69,-427.68 -698.22,-544.32 -240.57,-161.19 -473.85,-277.83 -672.3,-336.15 -28.35,-8.1 -51.03,-17.01 -51.03,-19.44 0,-2.43 37.26,-12.15 83.43,-20.25 126.36,-23.49 406.62,-21.06 524.07,4.05 275.4,58.32 536.22,190.35 805.95,405.81 136.08,108.54 425.25,397.71 604.26,603.45 77.76,89.91 187.92,217.08 246.24,283.5 111.78,129.6 263.25,285.12 336.15,346.68 24.3,21.06 41.31,37.26 36.45,37.26 -4.05,0 -38.88,-8.91 -76.95,-20.25 z"
       id="path62"
       style="fill:#0a2c74;fill-opacity:1;stroke-width:0.81" />
  </g>
</svg>
