<?xml version="1.0" encoding="UTF-8" standalone="no"?>
<svg
   version="1.0"
   width="1797.000000pt"
   height="1080.000000pt"
   viewBox="0 0 1797.000000 1080.000000"
   preserveAspectRatio="xMidYMid meet"
   id="svg66"
   sodipodi:docname="isi-logo.svg"
   inkscape:version="1.1.1 (3bf5ae0d25, 2021-09-20)"
   xmlns:inkscape="http://www.inkscape.org/namespaces/inkscape"
   xmlns:sodipodi="http://sodipodi.sourceforge.net/DTD/sodipodi-0.dtd"
   xmlns="http://www.w3.org/2000/svg"
   xmlns:svg="http://www.w3.org/2000/svg">
  <defs
     id="defs70" />
  <sodipodi:namedview
     id="namedview68"
     pagecolor="#ffffff"
     bordercolor="#666666"
     borderopacity="1.0"
     inkscape:pageshadow="2"
     inkscape:pageopacity="0.0"
     inkscape:pagecheckerboard="0"
     inkscape:document-units="pt"
     showgrid="false"
     inkscape:zoom="0.44722222"
     inkscape:cx="1198.5093"
     inkscape:cy="718.88199"
     inkscape:window-width="1920"
     inkscape:window-height="1017"
     inkscape:window-x="1358"
     inkscape:window-y="260"
     inkscape:window-maximized="1"
     inkscape:current-layer="g64" />
  <g
     transform="translate(0.000000,1080.000000) scale(0.100000,-0.100000)"
     fill="#000000"
     stroke="none"
     id="g64">
    <path
       d="M1854 10786 c-14 -11 -20 -30 -24 -75 l-5 -60 -394 -295 c-387 -291 -394 -296 -353 -296 l42 0 0 -414 0 -413 -132 -12 c-73 -7 -149 -16 -168 -19 l-36 -7 85 -352 85 -353 -473 -3612 c-260 -1987 -474 -3627 -477 -3643 -5 -27 5 -43 89 -141 212 -249 440 -401 704 -471 86 -23 119 -26 263 -27 192 -1 259 11 475 82 329 108 678 321 1265 772 468 360 758 565 868 614 40 18 43 22 38 50 -3 17 -203 1458 -446 3203 l-440 3171 85 352 c47 194 84 354 83 356 -2 1 -79 8 -171 15 l-167 13 0 417 0 418 40 3 41 3 -395 295 -395 295 -1 57 c0 79 -36 110 -86 74z m-484 -931 c0 -156 -3 -207 -12 -210 -7 -2 -50 -6 -95 -10 l-83 -6 0 215 0 216 95 0 95 0 0 -205z m240 6 l0 -198 -67 -6 c-38 -4 -78 -7 -90 -7 l-23 0 0 205 0 205 90 0 90 0 0 -199z m490 -1 l0 -200 -215 0 -215 0 0 200 0 200 215 0 215 0 0 -200z m250 -6 l0 -207 -61 7 c-34 3 -77 6 -95 6 l-34 0 0 200 0 200 95 0 95 0 0 -206z m240 -9 l0 -216 -77 6 c-43 4 -84 8 -90 10 -10 3 -13 54 -13 210 l0 205 90 0 90 0 0 -215z m289 -2540 c91 -651 162 -1187 159 -1190 -3 -3 -68 5 -144 19 -153 28 -304 49 -494 68 -170 18 -849 17 -1035 0 -174 -17 -413 -47 -524 -68 -46 -8 -85 -13 -87 -11 -4 4 286 2248 301 2335 l6 32 827 0 827 0 164 -1185z m-4 -2593 l40 -7 27 -235 c34 -301 34 -294 6 -287 -12 4 -107 13 -212 22 -105 9 -201 19 -213 21 -22 4 -23 7 -22 127 1 67 4 174 8 237 l6 115 45 6 c64 9 268 9 315 1z m-255 -942 c313 -21 735 -72 754 -91 10 -9 228 -1550 221 -1557 -2 -2 -45 2 -95 8 -119 17 -334 7 -465 -20 -257 -55 -538 -169 -940 -382 -584 -310 -884 -440 -1177 -512 -195 -47 -312 -59 -538 -53 -113 3 -221 10 -240 14 -33 8 -35 11 -32 43 24 236 323 2455 332 2460 12 8 325 42 585 65 153 13 445 30 675 39 151 6 760 -3 920 -14z"
       id="path2"
       style="fill:#0a2c74;fill-opacity:1" />
    <path
       d="M1180 7288 c-41 -5 -78 -12 -81 -16 -5 -7 -61 -464 -56 -468 1 -1 38 4 82 12 44 7 146 16 228 20 l147 7 0 229 0 228 -122 -1 c-68 -1 -157 -6 -198 -11z"
       id="path4"
       style="fill:#0a2c74;fill-opacity:1" />
    <path
       d="M671 2630 c-29 -4 -56 -12 -61 -17 -4 -4 -17 -105 -29 -223 -13 -118 -25 -222 -27 -231 -4 -13 9 -17 80 -22 79 -6 321 7 359 19 15 5 17 25 17 234 l0 228 -22 6 c-41 10 -262 15 -317 6z"
       id="path6"
       style="fill:#0a2c74;fill-opacity:1" />
    <path
       d="M4280 5925 l0 -755 125 0 125 0 0 755 0 755 -125 0 -125 0 0 -755z"
       id="path8" />
    <path
       d="M6190 6480 l0 -200 -100 0 -101 0 3 -82 3 -83 98 -3 97 -3 0 -469 0 -470 110 0 110 0 0 470 0 470 105 0 105 0 0 85 0 85 -105 0 -105 0 0 200 0 200 -110 0 -110 0 0 -200z"
       id="path10" />
    <path
       d="M11520 6480 l0 -200 -100 0 -100 0 0 -85 0 -85 100 0 100 0 0 -470 0 -470 105 0 105 0 0 470 0 470 110 0 110 0 0 85 0 84 -107 3 -108 3 -3 198 -2 197 -105 0 -105 0 0 -200z"
       id="path12" />
    <path
       d="M12110 6570 l0 -110 105 0 105 0 0 110 0 110 -105 0 -105 0 0 -110z"
       id="path14" />
    <path
       d="M16660 5925 l0 -755 105 0 105 0 0 755 0 755 -105 0 -105 0 0 -755z"
       id="path16" />
    <path
       d="M5229 6291 c-71 -23 -143 -72 -177 -122 -15 -21 -30 -38 -34 -39 -5 0 -8 34 -8 75 l0 75 -100 0 -100 0 0 -555 0 -555 104 0 104 0 4 353 c4 335 5 355 26 408 27 68 79 124 141 153 67 31 229 30 286 -1 53 -28 89 -68 117 -128 22 -49 23 -58 26 -417 l3 -368 109 0 110 0 0 363 c0 390 -6 448 -54 553 -48 104 -151 187 -267 213 -71 17 -226 12 -290 -8z"
       id="path18" />
    <path
       d="M7075 6291 c-185 -53 -331 -192 -396 -378 -29 -82 -36 -237 -15 -325 25 -108 79 -203 160 -284 116 -117 242 -167 416 -167 165 0 288 51 405 168 40 40 84 97 103 133 l33 62 -113 -1 -113 0 -30 -42 c-72 -98 -172 -142 -309 -135 -99 5 -174 36 -244 102 -53 49 -98 135 -104 196 l-3 35 478 3 477 2 0 63 c-1 273 -178 506 -435 572 -79 20 -233 18 -310 -4z m317 -193 c31 -15 78 -46 104 -70 48 -44 104 -144 104 -185 l0 -23 -365 0 -365 0 0 23 c0 41 56 141 102 184 85 78 159 104 283 99 61 -2 94 -8 137 -28z"
       id="path20" />
    <path
       d="M8423 6291 c-73 -25 -126 -62 -165 -117 l-33 -46 -3 76 -3 76 -99 0 -100 0 0 -555 0 -555 110 0 110 0 0 335 c0 202 4 354 11 385 25 115 121 196 247 207 l62 6 0 103 0 104 -42 0 c-24 -1 -66 -9 -95 -19z"
       id="path22" />
    <path
       d="M9166 6299 c-88 -21 -175 -81 -228 -159 -17 -24 -17 -23 -17 58 l-1 82 -100 0 -100 0 0 -555 0 -555 109 0 110 0 3 368 3 367 27 51 c59 111 155 160 297 152 90 -6 141 -28 194 -87 66 -73 70 -102 75 -498 l4 -353 104 0 104 0 0 373 c0 294 -3 385 -15 435 -40 170 -138 277 -290 316 -65 17 -215 20 -279 5z"
       id="path24" />
    <path
       d="M10381 6294 c-210 -56 -367 -232 -407 -454 -55 -305 102 -589 375 -678 102 -33 254 -34 351 -3 82 26 164 82 210 144 l35 47 3 -90 3 -90 104 0 105 0 0 555 0 555 -105 0 -105 0 0 -91 0 -92 -59 64 c-98 107 -203 150 -366 148 -49 0 -114 -7 -144 -15z m351 -217 c75 -37 159 -127 188 -204 42 -111 37 -217 -16 -328 -106 -225 -413 -283 -599 -113 -79 72 -117 156 -123 270 -5 104 13 174 67 250 46 65 92 102 167 134 52 22 71 24 159 21 84 -3 109 -7 157 -30z"
       id="path26" />
    <path
       d="M12970 6295 c-189 -52 -337 -188 -400 -368 -28 -78 -38 -241 -21 -329 41 -212 214 -394 422 -443 82 -19 236 -19 317 0 184 44 340 187 403 372 21 58 24 87 24 198 0 111 -4 140 -23 195 -62 173 -189 302 -355 360 -82 30 -284 37 -367 15z m318 -220 c80 -36 161 -121 193 -202 19 -46 23 -78 24 -153 0 -86 -3 -101 -32 -162 -92 -195 -310 -275 -507 -185 -187 86 -269 320 -181 516 37 83 131 171 212 200 85 30 206 25 291 -14z"
       id="path28" />
    <path
       d="M14353 6289 c-72 -22 -134 -66 -180 -128 l-33 -43 0 81 0 81 -100 0 -100 0 0 -555 0 -555 104 0 105 0 4 353 c2 237 7 364 15 389 22 66 73 129 132 162 52 29 61 31 160 31 89 0 111 -3 146 -22 49 -26 90 -72 118 -133 20 -43 21 -64 24 -412 l3 -368 110 0 109 0 0 353 c-1 385 -9 468 -54 562 -53 107 -142 180 -260 211 -76 20 -228 17 -303 -7z"
       id="path30" />
    <path
       d="M15600 6294 c-204 -53 -358 -217 -406 -431 -20 -89 -15 -247 10 -326 42 -131 118 -237 222 -306 84 -56 138 -76 247 -91 183 -26 357 39 459 170 l28 35 0 -87 0 -88 110 0 110 0 0 555 0 555 -110 0 -110 0 0 -92 0 -91 -29 39 c-53 75 -143 133 -246 160 -65 18 -215 17 -285 -2z m342 -216 c154 -72 244 -239 218 -407 -35 -227 -239 -376 -455 -331 -161 33 -272 149 -306 319 -35 179 76 372 252 435 71 26 219 18 291 -16z"
       id="path32" />
    <path
       d="M12110 5725 l0 -555 105 0 105 0 0 555 0 555 -105 0 -105 0 0 -555z"
       id="path34" />
    <path
       d="M5080 4709 c-137 -23 -277 -125 -336 -244 -27 -56 -29 -68 -29 -175 0 -106 2 -120 28 -172 57 -116 147 -178 390 -266 210 -77 261 -114 287 -211 26 -99 -33 -211 -140 -267 -51 -27 -162 -25 -215 3 -73 39 -123 112 -140 206 l-7 37 -120 0 -121 0 7 -62 c21 -181 123 -317 285 -379 69 -27 257 -38 344 -20 79 17 174 67 228 121 122 122 161 345 88 498 -52 108 -184 195 -442 293 -181 69 -237 122 -237 226 0 65 13 99 53 142 46 48 101 71 172 71 110 0 179 -51 211 -155 l18 -55 119 0 119 0 -7 48 c-39 260 -267 408 -555 361z"
       id="path36" />
    <path
       d="M14560 3930 l0 -760 120 0 120 0 0 760 0 760 -120 0 -120 0 0 -760z"
       id="path38" />
    <path
       d="M6280 4314 c-109 -21 -234 -85 -308 -157 -199 -194 -234 -521 -82 -754 135 -206 393 -305 634 -243 107 27 190 74 266 150 53 53 130 168 130 194 0 3 -49 6 -109 6 l-109 0 -22 -35 c-67 -108 -224 -171 -359 -145 -162 31 -285 147 -307 288 l-7 42 478 0 478 0 -6 108 c-6 124 -29 200 -87 290 -72 112 -179 195 -299 233 -65 20 -235 34 -291 23z m182 -185 c135 -29 256 -142 283 -266 l7 -33 -371 0 -371 0 6 28 c21 91 98 192 177 233 85 44 177 57 269 38z"
       id="path40" />
    <path
       d="M7540 4305 c-163 -40 -286 -136 -363 -283 -49 -93 -67 -171 -67 -288 0 -183 53 -317 170 -435 136 -137 337 -190 533 -139 115 29 208 92 258 174 l19 31 0 -97 0 -98 105 0 105 0 0 560 0 560 -105 0 -105 0 0 -97 0 -98 -18 30 c-26 43 -114 120 -165 144 -103 50 -252 64 -367 36z m325 -219 c79 -35 156 -112 192 -190 25 -54 28 -72 28 -161 0 -92 -3 -105 -33 -171 -41 -87 -105 -153 -187 -191 -53 -25 -72 -28 -160 -28 -93 0 -105 2 -166 32 -81 40 -140 102 -182 191 -29 61 -32 76 -32 162 1 120 25 187 97 266 83 91 169 125 298 121 67 -2 98 -9 145 -31z"
       id="path42" />
    <path
       d="M10553 4305 c-151 -33 -300 -149 -367 -286 -49 -101 -66 -176 -66 -289 0 -53 7 -123 15 -155 70 -277 304 -449 585 -432 147 9 281 74 346 168 l29 42 3 -91 3 -92 104 0 105 0 0 560 0 560 -105 0 -105 0 0 -92 -1 -93 -21 30 c-110 150 -314 216 -525 170z m278 -201 c63 -18 148 -73 182 -117 13 -18 37 -57 53 -87 27 -51 29 -63 29 -165 0 -98 -3 -116 -27 -168 -38 -80 -114 -158 -191 -193 -55 -26 -73 -29 -162 -29 -87 0 -107 4 -157 27 -166 77 -259 268 -217 448 51 220 270 348 490 284z"
       id="path44" />
    <path
       d="M12880 4306 c-154 -42 -246 -146 -258 -291 -6 -84 11 -144 58 -198 48 -55 109 -87 256 -138 196 -67 244 -106 244 -200 0 -51 -26 -98 -72 -132 -34 -25 -130 -34 -181 -18 -42 14 -104 79 -113 118 -3 16 -7 34 -10 41 -2 8 -32 12 -102 12 -54 0 -101 -2 -104 -5 -10 -10 11 -107 32 -150 68 -140 260 -226 441 -198 221 35 356 209 319 415 -25 143 -102 207 -330 273 -111 31 -144 47 -187 88 -38 36 -49 74 -34 120 39 118 227 140 291 34 11 -18 20 -42 20 -54 0 -22 3 -23 106 -23 l107 0 -7 47 c-22 163 -172 274 -366 272 -36 0 -85 -6 -110 -13z"
       id="path46" />
    <path
       d="M15535 4306 c-99 -26 -165 -69 -215 -138 l-30 -41 0 81 0 82 -100 0 -100 0 0 -560 0 -560 104 0 105 0 3 363 c3 352 4 363 26 411 35 76 67 112 125 141 114 55 267 41 348 -32 90 -82 99 -130 99 -549 l0 -335 108 3 107 3 3 310 c4 444 -10 545 -88 663 -45 67 -114 119 -195 147 -66 23 -234 29 -300 11z"
       id="path48" />
    <path
       d="M16773 4305 c-199 -43 -374 -215 -428 -420 -20 -77 -19 -230 1 -309 50 -195 204 -354 399 -412 79 -24 268 -25 341 -2 166 52 285 151 360 300 51 101 53 98 -75 98 -104 0 -110 -1 -117 -22 -13 -43 -112 -134 -177 -164 -54 -25 -74 -29 -157 -29 -83 0 -103 4 -157 29 -149 68 -233 219 -220 394 11 143 90 260 217 321 48 23 68 26 155 26 89 0 107 -3 162 -29 68 -31 149 -108 174 -163 l14 -33 112 0 112 0 -13 38 c-46 129 -157 259 -273 320 -126 66 -288 88 -430 57z"
       id="path50" />
    <path
       d="M8452 4278 c3 -7 87 -260 187 -561 l183 -548 101 3 102 3 114 382 c63 211 117 380 120 377 3 -3 57 -175 121 -382 l115 -377 102 -3 101 -3 183 548 c100 301 184 554 187 561 3 10 -20 12 -108 10 l-113 -3 -126 -412 c-69 -227 -129 -409 -132 -405 -4 4 -59 174 -122 377 l-115 370 -90 3 -91 3 -40 -128 c-22 -70 -74 -242 -117 -381 -42 -138 -79 -250 -82 -248 -2 3 -62 189 -132 413 l-127 408 -113 3 c-88 2 -111 0 -108 -10z"
       id="path52" />
    <path
       d="M11453 4268 c4 -13 98 -257 211 -542 l205 -519 -90 -212 c-49 -117 -89 -215 -89 -219 0 -3 51 -6 113 -6 l112 0 300 751 c165 413 302 755 303 760 2 5 -46 9 -111 9 l-116 0 -39 -102 c-22 -57 -90 -237 -153 -400 -62 -164 -116 -298 -119 -298 -3 0 -73 179 -156 398 l-149 397 -114 3 -113 3 5 -23z"
       id="path54" />
    <path
       d="M13596 3243 c-33 -109 -61 -204 -64 -210 -3 -10 19 -13 89 -13 l94 0 80 201 c44 111 82 205 83 210 2 5 -47 9 -110 9 l-113 0 -59 -197z"
       id="path56" />
    <path
       d="M17750 3305 l0 -135 110 0 110 0 0 135 0 135 -110 0 -110 0 0 -135z"
       id="path58" />
    <path
       d="M5050 2459 c-333 -38 -700 -170 -1035 -374 -232 -141 -439 -297 -890 -670 -345 -285 -524 -424 -700 -544 -386 -262 -738 -414 -1100 -475 -130 -22 -366 -38 -465 -32 l-85 6 90 -45 c96 -47 314 -123 430 -150 202 -46 476 -58 674 -29 263 38 530 131 801 279 298 163 551 345 1115 801 680 550 926 723 1270 894 299 147 480 201 830 246 48 6 49 7 20 15 -73 21 -280 60 -395 74 -134 16 -432 18 -560 4z"
       id="path60"
       style="fill:#0a2c74;fill-opacity:1" />
    <path
       d="M5640 2074 c-295 -87 -609 -272 -1025 -602 -66 -53 -237 -193 -380 -312 -453 -375 -649 -528 -862 -672 -297 -199 -585 -343 -830 -415 -35 -10 -63 -21 -63 -24 0 -3 46 -15 103 -25 156 -29 502 -26 647 5 340 72 662 235 995 501 168 134 525 491 746 745 96 111 232 268 304 350 138 160 325 352 415 428 30 26 51 46 45 46 -5 0 -48 -11 -95 -25z"
       id="path62"
       style="fill:#0a2c74;fill-opacity:1" />
  </g>
</svg>
