<svg xmlns="http://www.w3.org/2000/svg" viewBox="0 0 1867.47 1165.74"><defs><style>.cls-1{fill:#30262a;}.cls-2{fill:#ed6b6c;}.cls-3{fill:#44393d;}.cls-4{opacity:0.4;}.cls-5{fill:#a74c3b;}.cls-6{fill:#fff;}.cls-7{fill:#ffe5de;}.cls-8{fill:#ea9a81;}.cls-9{fill:#f7f0f7;}.cls-10{fill:#020202;}.cls-11{fill:#e9845c;}.cls-12{fill:#ec865c;}.cls-13{fill:#c7ddda;}.cls-14{fill:#b8c1c9;}.cls-15{fill:#ddd7dd;}.cls-16{fill:#e4ecff;}.cls-17{opacity:0.3;}.cls-18{fill:#d5d6da;}.cls-19{fill:#444092;}.cls-20{fill:#daebe8;}.cls-21{opacity:0.5;}.cls-22{fill:#eaeaea;}</style></defs><g id="Layer_2" data-name="Layer 2"><g id="_Layer_" data-name="&lt;Layer&gt;"><polygon class="cls-1" points="1194.26 1059.6 1210.35 1059.6 1210.35 884.32 1199.79 895.97 1194.26 1059.6"/><path class="cls-1" d="M1154,1069.21s72.07,1.29,96.1,1.48c2.66,0,4.56-3.63,4.56-6.28h0c0-2.66-3.88-5.81-6.53-5.79-23.53.12-94.13,1-94.13,1a4.8,4.8,0,0,0-4.8,4.81h0A4.8,4.8,0,0,0,1154,1069.21Z"/><path class="cls-1" d="M1251.25,1077.83c-.88-5.27-5.5-8.62-10.84-8.62s-10.84,3.53-10.84,8.87c0,6.65,6.73,11.34,12.07,11.34A9.91,9.91,0,0,0,1251.25,1077.83Z"/><path class="cls-1" d="M1174.37,1077.83c-.88-5.27-5.49-8.62-10.84-8.62s-10.84,3.53-10.84,8.87c0,6.65,6.73,11.34,12.07,11.34A9.91,9.91,0,0,0,1174.37,1077.83Z"/><path class="cls-1" d="M1234.37,895.13s2.59,11.45-24,15.15-38.07-15.15-38.07-15.15Z"/><path class="cls-2" d="M1170.12,877.36c-.28-32.18,4.68-162.26,50.51-170.76,18-3.33,81.62-11.55,90.19,15.76,14.58,46.54-25,162-25,162s-3.57,12.27-16.6,13.64-172.18,6-173.75,0C1089.3,874.4,1147.43,883.94,1170.12,877.36Z"/><path class="cls-3" d="M1113.77,325.76a.74.74,0,0,1-.37-.1l-62.93-33a.84.84,0,0,1-.4-.47.81.81,0,0,1,.06-.61c.06-.11,6.12-11.68,7.76-28.84,1.51-15.8-.53-39.75-18.83-64-29.16-36-34.46-76-14.91-112.66,8.07-15.13,20.22-29.37,35.16-41.19a166.79,166.79,0,0,1,50.39-27,159.13,159.13,0,0,1,57.77-8.24,136,136,0,0,1,57.31,15.24c40.44,21.21,71.06,57.74,81.91,97.72a113.73,113.73,0,0,1,3.53,43.17A98,98,0,0,1,1296,206.48c-27.26,43.71-58.48,66.48-95.43,69.61-6.45.64-63.8,7.46-86.07,49.24A.81.81,0,0,1,1113.77,325.76Zm-61.87-34.15,61.55,32.28c9.55-17.49,26.06-30.94,49.08-40a152,152,0,0,1,37.88-9.39c36.42-3.09,67.24-25.61,94.22-68.86a96.41,96.41,0,0,0,14-40.1,112,112,0,0,0-3.48-42.56c-10.74-39.57-41.06-75.72-81.12-96.73a134.36,134.36,0,0,0-56.63-15.06,157.78,157.78,0,0,0-57.2,8.16,165.18,165.18,0,0,0-49.9,26.76c-14.77,11.67-26.78,25.74-34.74,40.68-9.92,18.62-13.43,37.95-10.42,57.46,2.83,18.37,11.3,36.36,25.17,53.47C1059,222.47,1061,246.86,1059.47,263A88.56,88.56,0,0,1,1051.9,291.61Z"/><g class="cls-4"><path class="cls-3" d="M1124.85,68.65a12.64,12.64,0,0,1-10.12-4.59c-4.79-5.82-4.18-15,1.5-22.36s15.81-12.47,27.19-13.78c8.77-1,16.74.58,21.3,4.29,12.21,9.93,17.68,17.37,16.7,22.74-.52,2.85-2.85,5-6.93,6.34a.75.75,0,0,1-.42,0c-.21,0-21.16-4.36-39.28,4.72A22.47,22.47,0,0,1,1124.85,68.65Zm23.7-39.44a42.19,42.19,0,0,0-5,.29c-11,1.27-20.72,6.2-26.11,13.18-5.22,6.75-5.84,15.12-1.53,20.36,3.88,4.72,10.66,5.3,18.12,1.56,17.61-8.82,37.77-5.34,40.1-4.89,3.36-1.16,5.27-2.86,5.67-5,1.06-5.84-8.19-14.76-16.14-21.22C1160.33,30.7,1154.86,29.21,1148.55,29.21Z"/></g><path class="cls-2" d="M1206.39,15.3c-72.13-37.82-166.57-1-199.55,60.87-20.72,38.89-12.24,78.42,14.84,111.81,35.77,47.47,11.14,93.74,11.14,93.74l62.94,33c22.39-42,79.49-49,86.71-49.67,34.25-2.9,66-23,94.82-69.23C1314.41,136.31,1278.52,53.13,1206.39,15.3Z"/><path class="cls-5" d="M1106.35,299.73s18.29,13.34,1.72,32.94c0,0,6.06,22.32-13.86,27.79,0,0,3,21.6-16,31.06s-96.55-40-98.51-51.66,6.38-19.63,14.44-18.35c0,0-5.63-12.58,1.9-20.61s13.53-7.24,13.53-7.24-5.1-8,.85-20.77S1039,251.51,1106.35,299.73Z"/><g class="cls-4"><path class="cls-6" d="M1156.22,50.29s-21.21-4.53-39.8,4.79-28.47-9-17.58-23.13,37.13-17.67,47.36-9.36S1171.47,45.21,1156.22,50.29Z"/></g><path class="cls-1" d="M1093.68,361.92a1.64,1.64,0,0,1-.61-.41,104.76,104.76,0,0,0-16.59-13.7c-9.68-6.59-25.28-15.13-44.61-18.38a1.55,1.55,0,0,1,.52-3.06c19.92,3.34,36,12.13,45.92,18.92a105.71,105.71,0,0,1,17,14.11,1.56,1.56,0,0,1-1.68,2.52Z"/><path class="cls-1" d="M1107.54,334.13a1.71,1.71,0,0,1-.5-.3,200.5,200.5,0,0,0-21.36-15.92c-11.48-7.43-28.53-16.72-44.61-18.74a1.55,1.55,0,1,1,.38-3.08c16.68,2.08,34.2,11.61,46,19.24a202.85,202.85,0,0,1,21.69,16.17,1.55,1.55,0,0,1,.14,2.2A1.57,1.57,0,0,1,1107.54,334.13Z"/><g class="cls-4"><path class="cls-6" d="M1089.26,287.12l-5.78-1.75c.08-.23,7.16-23.66,16.11-47.55,3.45-9.23,6.54-16.87,9.32-23.2a72.18,72.18,0,0,1-11.68-5.29c-13.48,30.29-33,62-34.24,64.06l-5.13-3.17c.31-.5,20.68-33.65,34.23-64.17a47.28,47.28,0,0,1-14-15.15C1072,180,1073,168,1080.86,158.62c5.94-7.08,14.17-10.33,20.48-8.09,3.14,1.11,8.44,4.61,8.64,15.52.17,9.41-4.2,23.18-10.34,37.73a64.49,64.49,0,0,0,11.75,5.34c9-19.35,14.36-23.8,17.84-25.19,10.88-4.37,22,.75,27.41,8.06,4.7,6.39,4.72,13.91.06,19.63s-15.3,8.31-28.68,7.17a76.15,76.15,0,0,1-13.29-2.37c-2.78,6.28-5.93,14-9.49,23.51C1096.37,263.65,1089.33,286.88,1089.26,287.12Zm28-76.26a71.34,71.34,0,0,0,11.28,1.91c10.88.93,20.31-1.07,23.48-5,4.16-5.1,1.21-10.26-.25-12.24-3.9-5.31-12.35-9.23-20.29-6C1129.64,190.27,1125.24,194,1117.26,210.86Zm-20.12-55c-3.64,0-8.2,2.52-11.66,6.64a21.78,21.78,0,0,0-2.1,25.43,40.77,40.77,0,0,0,11.16,12.46c5.62-13.42,9.56-25.88,9.41-34.23-.06-3.12-.74-8.57-4.63-9.94A6.43,6.43,0,0,0,1097.14,155.86Z"/></g><path class="cls-7" d="M652,394.87l29.55,8.07a21.22,21.22,0,0,0,26-14.87l9.82-35.91a21.22,21.22,0,0,0-14.87-26.05l-20.9-5.71A21.19,21.19,0,0,1,666,300.53c0-1.78-.12-3.57-.23-5.35a21,21,0,0,1,12.42-20.39l17.91-8.11a21.23,21.23,0,0,0,10.57-28.08L691.3,204.69a21.2,21.2,0,0,0-28-10.56l-17.93,8.1a21.06,21.06,0,0,1-23.5-4.09q-1.89-1.87-3.85-3.68a21.18,21.18,0,0,1-4.67-24.85l9.48-19.47A21.2,21.2,0,0,0,613,121.79l-33.49-16.31a21.21,21.21,0,0,0-28.35,9.78L537.74,142.8a21.28,21.28,0,0,1-19.47,11.9,149.91,149.91,0,0,0-20.91,1.21,21.31,21.31,0,0,1-22.22-12.25l-9.95-22a21.2,21.2,0,0,0-28.07-10.56l-33.91,15.37a21.19,21.19,0,0,0-10.55,28.06L406,184.11a21.19,21.19,0,0,1-3.12,22.57c-1.3,1.51-2.56,3-3.8,4.59a21.08,21.08,0,0,1-22.1,7.15l-33.34-9.12a21.21,21.21,0,0,0-26.05,14.86l-9.82,35.94a21.2,21.2,0,0,0,14.86,26L351.31,294a21.21,21.21,0,0,1,15.57,19.25l0,.29A21.14,21.14,0,0,1,354.48,334l-25.39,11.5a21.21,21.21,0,0,0-10.57,28.08l15.39,33.93A21.2,21.2,0,0,0,362,418.11l25.37-11.52A21.17,21.17,0,0,1,411,410.78l.24.24a21.21,21.21,0,0,1,4.2,24.4l-13,26.68a21.22,21.22,0,0,0,9.79,28.36l33.51,16.29A21.2,21.2,0,0,0,474.05,497l15.13-31.09A21.11,21.11,0,0,1,509.13,454c2,.1,4,.15,5.94.17a21.2,21.2,0,0,1,19,12.54l13.37,29.54a21.21,21.21,0,0,0,28.07,10.57l33.93-15.37A21.2,21.2,0,0,0,620,463.35l-9.95-22a21.32,21.32,0,0,1,5.43-24.77,149.61,149.61,0,0,0,14.66-14.93A21.28,21.28,0,0,1,652,394.87ZM550.22,382.26c-39.4,17.85-100.74-9.14-118.59-48.53S440.6,245,480,227.2,568.07,240,585.92,279.42,589.61,364.41,550.22,382.26Z"/><path class="cls-3" d="M451.57,532.26a21.72,21.72,0,0,1-9.51-2.2l-33.51-16.3a21.82,21.82,0,0,1-10.08-29.21l13-26.67a20.58,20.58,0,0,0-4.08-23.68l-.23-.23a20.62,20.62,0,0,0-22.91-4.06l-25.37,11.51A21.86,21.86,0,0,1,330,430.55l-15.39-33.94a21.84,21.84,0,0,1,10.89-28.92l25.39-11.49a20.64,20.64,0,0,0,12.05-19.91l0-.29a20.59,20.59,0,0,0-15.1-18.68l-28.65-7.83a21.83,21.83,0,0,1-15.3-26.83l9.82-35.94a21.84,21.84,0,0,1,26.84-15.3l33.33,9.12a20.43,20.43,0,0,0,21.44-6.93c1.23-1.55,2.51-3.1,3.81-4.61a20.61,20.61,0,0,0,3-21.9L388.7,177.57a21.87,21.87,0,0,1,10.87-28.91l33.91-15.37a21.84,21.84,0,0,1,28.91,10.88l9.95,22A20.59,20.59,0,0,0,493.9,178a150.31,150.31,0,0,1,21-1.21,20.74,20.74,0,0,0,18.89-11.55l13.42-27.54a21.88,21.88,0,0,1,29.2-10.07L609.9,144A21.83,21.83,0,0,1,620,173.15l-9.48,19.47a20.42,20.42,0,0,0,4.54,24.1c1.3,1.2,2.6,2.45,3.87,3.7a20.5,20.5,0,0,0,22.78,4l17.93-8.11a21.87,21.87,0,0,1,28.89,10.88l15.38,33.91A21.85,21.85,0,0,1,693,290l-17.91,8.11A20.49,20.49,0,0,0,663,317.87c.11,1.78.19,3.59.23,5.37a20.43,20.43,0,0,0,15.13,19.28l20.9,5.71a21.84,21.84,0,0,1,15.31,26.83L704.79,411A21.86,21.86,0,0,1,678,426.28l-29.54-8.06h0a20.75,20.75,0,0,0-21.15,6.61,148.93,148.93,0,0,1-14.73,15,20.62,20.62,0,0,0-5.27,24l10,22a21.84,21.84,0,0,1-10.88,28.91L572.43,530.1a21.84,21.84,0,0,1-28.91-10.88l-13.38-29.55a20.58,20.58,0,0,0-18.45-12.16c-2,0-4-.07-6-.17a20.44,20.44,0,0,0-19.35,11.54L471.25,520A21.88,21.88,0,0,1,451.57,532.26ZM392.71,426.81A21.78,21.78,0,0,1,408,433.06l.24.23a21.86,21.86,0,0,1,4.33,25.15l-13,26.67a20.58,20.58,0,0,0,9.5,27.51l33.51,16.29a20.58,20.58,0,0,0,27.48-9.5l15.13-31.08a21.67,21.67,0,0,1,20.56-12.26c2,.09,3.95.15,5.91.17a21.85,21.85,0,0,1,19.6,12.91l13.38,29.54a20.55,20.55,0,0,0,27.22,10.25l33.93-15.37a20.57,20.57,0,0,0,10.25-27.22l-10-22a21.89,21.89,0,0,1,5.59-25.52A148.45,148.45,0,0,0,626.31,424a22,22,0,0,1,22.46-7h0l29.54,8.06a20.59,20.59,0,0,0,25.25-14.41l9.82-35.92A20.55,20.55,0,0,0,699,349.46l-20.89-5.71A21.68,21.68,0,0,1,662,323.28c0-1.77-.13-3.57-.24-5.33a21.79,21.79,0,0,1,12.8-21l17.91-8.11a20.56,20.56,0,0,0,10.25-27.23l-15.38-33.91a20.6,20.6,0,0,0-27.21-10.25l-17.93,8.11a21.79,21.79,0,0,1-24.2-4.22c-1.25-1.25-2.54-2.48-3.84-3.67a21.7,21.7,0,0,1-4.81-25.6l9.48-19.46a20.57,20.57,0,0,0-9.49-27.5l-33.49-16.31a20.59,20.59,0,0,0-27.49,9.48l-13.42,27.54a22,22,0,0,1-20.06,12.26,150.9,150.9,0,0,0-20.82,1.2,21.85,21.85,0,0,1-22.88-12.62l-9.95-22A20.57,20.57,0,0,0,434,134.45l-33.9,15.37A20.59,20.59,0,0,0,389.86,177l13.38,29.54A21.87,21.87,0,0,1,400,229.83c-1.29,1.5-2.56,3-3.78,4.57a21.69,21.69,0,0,1-22.77,7.37l-33.34-9.12a20.57,20.57,0,0,0-25.27,14.41L305,283a20.57,20.57,0,0,0,14.42,25.26l28.64,7.83a21.86,21.86,0,0,1,16,19.83l0,.29a21.92,21.92,0,0,1-12.79,21.15L326,368.86a20.58,20.58,0,0,0-10.25,27.23L331.11,430a20.57,20.57,0,0,0,27.23,10.24l25.37-11.51A21.71,21.71,0,0,1,392.71,426.81Z"/><path class="cls-3" d="M830.7,216.6a9.75,9.75,0,0,1-9.4-7.28L818,196.77a8.82,8.82,0,0,0-7.93-6.56h-.15a8.83,8.83,0,0,0-8.58,5.07l-5.15,11A9.71,9.71,0,0,1,783.28,211l-14.77-6.88a9.73,9.73,0,0,1-4.7-12.94l5.15-11a8.84,8.84,0,0,0-1.63-9.84l-.09-.09a8.82,8.82,0,0,0-10.12-1.86l-11.74,5.56a9.74,9.74,0,0,1-13-4.64l-7-14.72a9.72,9.72,0,0,1,4.64-13l13.66-6.47a8.76,8.76,0,0,0,5-8.23c0-.87,0-1.75,0-2.62a8.85,8.85,0,0,0-5.13-8l-12.85-6a9.75,9.75,0,0,1-4.71-12.93l6.88-14.75a9.72,9.72,0,0,1,12.94-4.71l9.55,4.46a8.84,8.84,0,0,0,10.33-2.16,65.7,65.7,0,0,1,6.64-6.39,8.9,8.9,0,0,0,2.92-9l-3.38-13a9.73,9.73,0,0,1,7-11.87l15.76-4.13a9.74,9.74,0,0,1,11.88,7L808.91,52a8.75,8.75,0,0,0,8.2,6.57c.78,0,1.56.07,2.34.13A8.78,8.78,0,0,0,828,53.61l3.64-7.79a9.74,9.74,0,0,1,12.93-4.7L859.3,48A9.74,9.74,0,0,1,864,60.93l-3.64,7.79A8.78,8.78,0,0,0,862,78.51c.55.57,1.09,1.14,1.62,1.72a8.73,8.73,0,0,0,10.29,2l8.56-4a9.74,9.74,0,0,1,13,4.63l7,14.71a9.74,9.74,0,0,1-4.63,13l-12.1,5.74a8.89,8.89,0,0,0-5,8,64.21,64.21,0,0,1-.62,9.19,8.85,8.85,0,0,0,5,9.29l9.56,4.46a9.74,9.74,0,0,1,4.71,12.93L892.34,175a9.72,9.72,0,0,1-12.93,4.7l-12.85-6a8.83,8.83,0,0,0-9.4,1.19c-.66.56-1.34,1.11-2,1.64a8.74,8.74,0,0,0-3.07,9.15l3.83,14.63a9.74,9.74,0,0,1-6.95,11.88l-15.76,4.13A10,10,0,0,1,830.7,216.6Zm-21.37-27.34.68,0h.14a9.74,9.74,0,0,1,8.76,7.25l3.28,12.55a8.81,8.81,0,0,0,10.76,6.3l15.76-4.13A8.82,8.82,0,0,0,855,200.5l-3.83-14.62a9.65,9.65,0,0,1,3.4-10.11c.67-.53,1.34-1.07,2-1.63A9.77,9.77,0,0,1,867,172.82l12.85,6a8.81,8.81,0,0,0,11.71-4.26l6.88-14.76a8.8,8.8,0,0,0-4.26-11.71l-9.55-4.46a9.75,9.75,0,0,1-5.52-10.25,65.36,65.36,0,0,0,.62-9.06,9.81,9.81,0,0,1,5.56-8.89l12.1-5.73A8.82,8.82,0,0,0,901.53,98l-7-14.72a8.8,8.8,0,0,0-11.74-4.19l-8.56,4a9.68,9.68,0,0,1-11.38-2.26c-.51-.58-1-1.14-1.59-1.7a9.71,9.71,0,0,1-1.76-10.82l3.63-7.79a8.8,8.8,0,0,0-4.26-11.71L844.15,42a8.83,8.83,0,0,0-11.71,4.26L828.8,54a9.73,9.73,0,0,1-9.41,5.6c-.77-.06-1.54-.1-2.31-.13A9.68,9.68,0,0,1,808,52.21l-2.39-9.16a8.81,8.81,0,0,0-10.76-6.3l-15.75,4.13a8.82,8.82,0,0,0-6.3,10.75l3.38,13a9.79,9.79,0,0,1-3.22,10,65,65,0,0,0-6.55,6.31A9.74,9.74,0,0,1,755,83.23l-9.55-4.46A8.83,8.83,0,0,0,733.76,83l-6.87,14.75a8.82,8.82,0,0,0,4.26,11.71l12.85,6a9.76,9.76,0,0,1,5.66,8.8c0,.86,0,1.73,0,2.59a9.63,9.63,0,0,1-5.56,9.09l-13.66,6.47a8.81,8.81,0,0,0-4.2,11.73l7,14.73A8.8,8.8,0,0,0,745,173.09l11.73-5.55a9.74,9.74,0,0,1,11.18,2.05l-.24.41.33-.32a9.76,9.76,0,0,1,1.8,10.86l-5.15,11.05a8.81,8.81,0,0,0,4.26,11.72l14.77,6.88a8.81,8.81,0,0,0,11.71-4.27l5.14-11A9.77,9.77,0,0,1,809.33,189.26Z"/><path class="cls-3" d="M809.74,161.77a35.69,35.69,0,0,1-15-3.07c-8.18-3.82-14.15-11.43-16.81-21.43A42.28,42.28,0,0,1,780.2,109c3.77-8.1,11.55-13.81,21.9-16.09a45.84,45.84,0,0,1,28.74,3,35.92,35.92,0,0,1,18.36,19,32.18,32.18,0,0,1-.71,26h0C842.63,153.38,825.47,161.77,809.74,161.77Zm2-69a44.35,44.35,0,0,0-9.46,1C792.23,96,784.68,101.53,781,109.35A41.34,41.34,0,0,0,778.78,137c2.59,9.74,8.38,17.14,16.31,20.84,17.4,8.11,44.91-1,52.56-17.43h0a31.25,31.25,0,0,0,.7-25.22,35,35,0,0,0-17.9-18.47A44.82,44.82,0,0,0,811.75,92.77Zm36.32,47.86h0Z"/><path class="cls-3" d="M1473.81,485.71a13.78,13.78,0,0,1-13.3-10.3l-4.72-18a12.84,12.84,0,0,0-11.57-9.57l-.21,0a12.9,12.9,0,0,0-12.53,7.4L1424.1,471a13.79,13.79,0,0,1-18.32,6.67l-21.21-9.88a13.79,13.79,0,0,1-6.67-18.32l7.41-15.87a12.89,12.89,0,0,0-2.39-14.35l-.13-.13a12.86,12.86,0,0,0-14.77-2.72l-16.85,8a13.78,13.78,0,0,1-18.35-6.56l-10-21.15a13.77,13.77,0,0,1,6.57-18.35l19.62-9.29a12.75,12.75,0,0,0,7.35-12c0-1.25-.07-2.51-.06-3.76a12.91,12.91,0,0,0-7.48-11.63l-18.46-8.6a13.8,13.8,0,0,1-6.67-18.31l9.88-21.2a13.76,13.76,0,0,1,18.31-6.66l13.73,6.4a12.89,12.89,0,0,0,15.07-3.14,94.78,94.78,0,0,1,9.52-9.17,13,13,0,0,0,4.27-13.17l-4.86-18.62a13.79,13.79,0,0,1,9.84-16.81l22.64-5.92a13.78,13.78,0,0,1,16.82,9.84l3.44,13.16a12.75,12.75,0,0,0,12,9.59c1.12,0,2.24.1,3.36.19a12.84,12.84,0,0,0,12.43-7.4l5.23-11.2a13.8,13.8,0,0,1,18.31-6.65l21.2,9.88a13.79,13.79,0,0,1,6.66,18.32l-5.22,11.19a12.82,12.82,0,0,0,2.33,14.29q1.17,1.21,2.31,2.46a12.77,12.77,0,0,0,15,3l12.3-5.82a13.78,13.78,0,0,1,18.35,6.56l10,21.14a13.79,13.79,0,0,1-6.55,18.34l-17.39,8.24a13,13,0,0,0-7.34,11.75,95.27,95.27,0,0,1-.89,13.18,12.87,12.87,0,0,0,7.28,13.55l13.73,6.4a13.79,13.79,0,0,1,6.66,18.32l-9.89,21.2a13.77,13.77,0,0,1-18.32,6.66L1525.41,424a12.85,12.85,0,0,0-13.7,1.73c-1,.81-1.94,1.6-2.92,2.36a12.77,12.77,0,0,0-4.48,13.36l5.5,21a13.8,13.8,0,0,1-9.84,16.82l-22.64,5.93A13.61,13.61,0,0,1,1473.81,485.71Zm-30.7-38.88c.32,0,.64,0,1,0h.2a13.78,13.78,0,0,1,12.4,10.26l4.71,18a12.86,12.86,0,0,0,15.71,9.19l22.64-5.93a12.87,12.87,0,0,0,9.18-15.7l-5.5-21a13.68,13.68,0,0,1,4.81-14.31c1-.76,1.94-1.54,2.89-2.34a13.79,13.79,0,0,1,14.68-1.87l18.46,8.62a12.87,12.87,0,0,0,17.1-6.22l9.89-21.2a12.87,12.87,0,0,0-6.22-17.09l-13.73-6.41a13.78,13.78,0,0,1-7.8-14.51,94.94,94.94,0,0,0,.88-13.05,13.88,13.88,0,0,1,7.87-12.58l17.39-8.24a12.87,12.87,0,0,0,6.11-17.12l-10-21.14a12.86,12.86,0,0,0-17.13-6.12l-12.3,5.82a13.69,13.69,0,0,1-16.1-3.2c-.75-.83-1.51-1.64-2.29-2.44a13.73,13.73,0,0,1-2.5-15.32l5.22-11.19a12.87,12.87,0,0,0-6.22-17.1l-21.2-9.88a12.88,12.88,0,0,0-17.09,6.21l-5.23,11.2a13.74,13.74,0,0,1-13.33,7.92c-1.11-.08-2.21-.14-3.32-.18a13.68,13.68,0,0,1-12.82-10.28L1438,236.54a12.88,12.88,0,0,0-15.7-9.19l-22.64,5.92a12.89,12.89,0,0,0-9.19,15.7l4.87,18.62a13.88,13.88,0,0,1-4.57,14.1,94.13,94.13,0,0,0-9.43,9.09,13.79,13.79,0,0,1-16.14,3.35l-13.72-6.4a12.87,12.87,0,0,0-17.1,6.22l-9.88,21.19a12.88,12.88,0,0,0,6.22,17.09l18.46,8.61a13.82,13.82,0,0,1,8,12.46c0,1.24,0,2.49.06,3.72a13.66,13.66,0,0,1-7.88,12.88l-19.62,9.29a12.86,12.86,0,0,0-6.13,17.12l10,21.16a12.84,12.84,0,0,0,17.12,6.12l16.86-8a13.79,13.79,0,0,1,15.83,2.91l.12.13a13.82,13.82,0,0,1,2.56,15.38l-7.4,15.87A12.84,12.84,0,0,0,1385,467l21.21,9.89a12.85,12.85,0,0,0,17.09-6.23l7.39-15.86A13.84,13.84,0,0,1,1443.11,446.83Z"/><path class="cls-3" d="M1443.72,407a51.08,51.08,0,0,1-21.53-4.4c-11.7-5.46-20.23-16.35-24-30.66a60.49,60.49,0,0,1,3.31-40.52c5.39-11.57,16.51-19.74,31.31-23a66.7,66.7,0,0,1,41.16,4.35,51.45,51.45,0,0,1,26.29,27.13,46.06,46.06,0,0,1-1,37.12h0C1490.81,394.94,1466.24,407,1443.72,407Zm2.87-99.13a63.49,63.49,0,0,0-13.62,1.45c-14.52,3.2-25.41,11.18-30.68,22.49a59.58,59.58,0,0,0-3.25,39.89c3.73,14.05,12.09,24.73,23.54,30.07,25.08,11.69,64.73-1.46,75.78-25.14l.41.2-.41-.2a45.11,45.11,0,0,0,1-36.38,50.44,50.44,0,0,0-25.82-26.64A64.48,64.48,0,0,0,1446.59,307.82Z"/><path class="cls-1" d="M1050.57,1059.24s-3.92,25.6-14.37,38.66c-6.88,8.6-25.88,25.64-12.37,31.32,10.79,4.53,31.56-15.66,38.3-20.68s16.91-14.53,14.66-22.63c-4.67-16.78-3.13-37.87-3.13-37.87Z"/><path class="cls-1" d="M1126.15,1039.38s5.22,25.37,0,41.24c-3.46,10.46-15.35,33-.71,33.67,11.69.5,24.15-25.65,28.73-32.7s10.8-19.5,5.87-26.32c-10.21-14.1-16.1-34.42-16.1-34.42Z"/><path class="cls-3" d="M1118.83,1057.31c-140-93.4-133.11-175.22-113.71-207.22,22.54-37.17,58.22-66.55,112.91-79.66a303.42,303.42,0,0,1,40-6.68,28,28,0,0,1,30.81,28.6L1187.64,840h.1c-23.36-.48-94.24,6.64-112.81,44.41-3.86,7.85,90.4,118.55,86.88,138.42C1157.83,1045.3,1132.52,1066.44,1118.83,1057.31Z"/><path class="cls-3" d="M1064.53,1071.3a27.89,27.89,0,0,1-28-29.52c2.11-35.74,8.75-96.56,29.56-142.52,11.8-26.06,30.57-49.76,55.77-70.43,19-15.59,41.76-29.52,67.61-41.41,43-19.77,74-17,74-17l23.5,34.65c-.31.07,6.59,35-43.09,66.08-27.42,17.16-82.53,27.66-105.2,72-16.18,31.68-22.37,73.68-24.42,103a26.91,26.91,0,0,1-26.72,25Z"/><path class="cls-8" d="M1096.51,647.57s-28.88,44.43-39.22,110.3c-6.85,43.59,72.47-7.15,72.47-7.15l3.53-91.06Z"/><path class="cls-9" d="M1240.88,622.46s-22-37.61-72.7-26.07-71.37,63.34-75,187.71c0,0,30.45,53.89,169,43.39,15.35-1.17,37.35-3.2,29.84-28.08C1278.06,753.14,1264.55,660.86,1240.88,622.46Z"/><path class="cls-9" d="M1296.67,633.44l-52.16,9.8s-91.21,27-116.74,27.19S1091.66,652,1091.66,652s20.6-35,63.76-51.45a123,123,0,0,1,12.76-4.12c7.47-2,15.07-3.71,22.68-3.8C1277,591.61,1296.67,633.44,1296.67,633.44Z"/><path class="cls-1" d="M1296.67,633.44c1.13,4.11-9.81,11-24.42,15.32s-27.38,4.55-28.51.44,9.81-11,24.42-15.33S1295.54,629.32,1296.67,633.44Z"/><path class="cls-10" d="M1041.86,992.49l-.87-.06A393.46,393.46,0,0,1,1053.13,924c9.14-33.42,26.86-77.35,59.44-96.84l.44.74c-17.84,10.68-42.57,36-59,96.31A391.23,391.23,0,0,0,1041.86,992.49Z"/><path class="cls-10" d="M1113.22,1053.23h-.86c.35-49.77,16.63-88.18,16.79-88.57l.8.35C1129.78,965.39,1113.57,1003.65,1113.22,1053.23Z"/><path class="cls-1" d="M1146.89,598.89s11.85-6.09,13.14-13.13,6.06-5.37,8.53-7.38-6.68-20-6.68-20l-26.4-6.91,5.74,32.48Z"/><path class="cls-8" d="M1200.21,592.67a15.26,15.26,0,0,1-13.22-7.88l-8.3-15.15-2.4-4.4-14.16-25.85,4.66,27.74,2.79,16.65.8,4.75a7.67,7.67,0,0,1-5.53,8.64h-.07c-1.74,3.56-4,10.65,4.83,12.56,10.32,2.24,25.76-7.18,30.69-17.07Z"/><path class="cls-1" d="M1178.68,569.17c0,.16,0,.31,0,.47.19,9.07-9,14.19-9,14.19l-.07-.05-2.79-16.65c2.84-1.36,6.93-2.86,9.5-1.89C1177.63,565.75,1178.56,566.94,1178.68,569.17Z"/><ellipse class="cls-8" cx="1161.29" cy="543.98" rx="26.36" ry="32.52" transform="translate(-46.1 111.88) rotate(-5.41)"/><path class="cls-6" d="M1149.14,566.27a57.5,57.5,0,0,0,17.65-4.64s1.58,8.76-8.07,10.27C1153.1,572.78,1149.14,566.27,1149.14,566.27Z"/><path class="cls-1" d="M1158.78,544.53a.57.57,0,0,1-.43-.32.6.6,0,0,1,.25-.81,6.51,6.51,0,0,1,7.89,1,.59.59,0,0,1,.06.84.65.65,0,0,1-.84.06,10.34,10.34,0,0,0-6.56-.83A.61.61,0,0,1,1158.78,544.53Z"/><path class="cls-1" d="M1165.36,550.22c.18,1.42-.51,2.67-1.54,2.8s-2-.91-2.2-2.33.51-2.68,1.54-2.81S1165.18,548.8,1165.36,550.22Z"/><path class="cls-1" d="M1148.47,553c.28,1.41-.33,2.7-1.35,2.9s-2.07-.78-2.34-2.19.34-2.7,1.36-2.9S1148.2,551.54,1148.47,553Z"/><path class="cls-1" d="M1172.06,522a46.18,46.18,0,0,0-30.85,46.72c.08,1.2.17,2.43.29,3.7,0,0,13.86,1.72,15.84,15,.63,4.15-10.76,12.4-11.63,12.11-6.59-2.22-24.54-16-23.69-46.93s10.56-54.45,38.52-58,26,15.46,26,15.46A26.4,26.4,0,0,1,1172.06,522Z"/><path class="cls-1" d="M1168.13,522.46s.5.27,1.33.79c3.19,2,11.15,7.92,13.38,17.63,2.81,12.23-8.38,21.07-4.2,30.34s11.81-2.3,19-1.32,12-2.79,11.14-16.86-7.23-46.47-23.82-44.9Z"/><path class="cls-8" d="M1187.5,546.42c-2.7,3.12-6.83,3.8-9.22,1.53s-2.14-6.65.57-9.77,6.83-3.8,9.22-1.53S1190.2,543.3,1187.5,546.42Z"/><path class="cls-6" d="M1136,585a.33.33,0,0,1-.32-.26c-3.85-20.06,1.58-40.39,8.67-51.64,5.79-9.18,12.26-13.22,16.67-15a20.15,20.15,0,0,1,8.33-1.68.32.32,0,0,1,.3.34.33.33,0,0,1-.35.29c-.13,0-13.54-.84-24.41,16.4-7,11.14-12.4,31.29-8.58,51.18a.32.32,0,0,1-.25.37Z"/><path class="cls-6" d="M1196.79,559.05l-.11,0a.32.32,0,0,1-.19-.41c5-13.63-.31-35.91-6.15-42.15s-13.3-1.94-13.62-1.76a.32.32,0,0,1-.43-.12.31.31,0,0,1,.12-.43c.08,0,8.35-4.59,14.39,1.88s11.34,29,6.29,42.8A.32.32,0,0,1,1196.79,559.05Z"/><path class="cls-6" d="M1131.82,560.17a.32.32,0,0,1-.32-.3,131.92,131.92,0,0,1,1.13-20.17c2-14.11,6.1-23,12.27-26.33,14.64-8,26.86-.71,27-.63a.3.3,0,0,1,.1.43.31.31,0,0,1-.43.11,24,24,0,0,0-7.76-2.64,28.4,28.4,0,0,0-18.59,3.28c-14.31,7.81-13.08,45.54-13.06,45.92a.31.31,0,0,1-.31.33Z"/><path class="cls-8" d="M981.27,640.4a43.29,43.29,0,0,1-17.45-6.19c-17.72-10.88-29.6-33.89-38.53-74.59-4.12-18.74-16.13-41.33-16.25-41.55L949,496.65c.62,1.14,15.09,28.27,20.58,53.26,3.1,14.14,4.75-75.1,12.39-83.54,4.68-5.17,23.56,3.34,23.56,3.34,3,11.46,10.54,35.12,15,70.79,2.68,21.61,3.8,39.33,3.32,52.69-.34,9.42-1.47,17-3.44,23.16-5.22,16.26-16.14,21.31-22.18,22.87A45.31,45.31,0,0,1,981.27,640.4Z"/><path class="cls-11" d="M987.25,636a15,15,0,0,1-6-1.14c-1.78-.81-2.76-1.94-2.77-3.19s1-2.39,2.75-3.21a15,15,0,0,1,6.06-1.17h.05c4.92,0,8.78,1.9,8.78,4.33s-3.86,4.37-8.8,4.38Zm0-7.53a13.74,13.74,0,0,0-5.58,1.06c-1.31.61-2.06,1.38-2.06,2.13s.76,1.53,2.07,2.13a13.53,13.53,0,0,0,5.58,1c4.5,0,7.64-1.69,7.64-3.19s-3.13-3.16-7.61-3.16Z"/><path class="cls-11" d="M965,595.68a.59.59,0,0,1-.58-.52c0-.25-3.07-25.17,6.18-44.7a.59.59,0,0,1,1.07.5c-9.11,19.23-6.12,43.81-6.08,44a.59.59,0,0,1-.51.66Z"/><path class="cls-8" d="M1009.77,498.9s24.26,2.07,33.76-7.4,14.47-28.74,7.34-24.12-14.62,13-14.62,13,15.15-18.74,9.23-20.39-18.93,14.78-18.93,14.78,16.24-23.73,10.15-23.47-18.3,18.37-18.3,18.37,14.23-22.69,7.16-22.22-11.64,18.82-17.55,17.18-28.9-7.3-28.9,9.29Z"/><path class="cls-11" d="M1028.55,487.16a.5.5,0,0,1,0-1c3.88-.25,7.27-5.95,7.3-6a.5.5,0,0,1,.68-.17.49.49,0,0,1,.18.68c-.15.25-3.69,6.2-8.09,6.49Z"/><path class="cls-11" d="M1017.36,482.77a.5.5,0,0,1-.13-1c5.62-1.51,8.86-7.16,8.89-7.22a.49.49,0,0,1,.86.48c-.14.25-3.47,6.08-9.49,7.7Z"/><path class="cls-11" d="M1009.85,477.21h-.09a.5.5,0,1,1,0-1h.08c4.12,0,8.08-6.69,8.12-6.76a.49.49,0,0,1,.68-.18.5.5,0,0,1,.17.68C1018.65,470.26,1014.53,477.21,1009.85,477.21Z"/><path class="cls-1" d="M882.93,1047.46s.71,13.53,10,17.1,35.9,6.31,26.22,15.28c-5.56,5.15-32.47,2.64-40,2.85s-14.59,3.69-20.36-1.22c-6.34-5.41-.89-33.33-.89-33.33s6.62,3.23,12.49,2.92C878.79,1050.61,882.93,1047.46,882.93,1047.46Z"/><path class="cls-2" d="M951,636.77s3.48,61-12.86,178.78c-11.8,85-26.12,170.7-33.17,211.8a31.9,31.9,0,0,1-29.09,26.7l-7.82.53c-15.74,1.05-28.9-12.14-28.18-28.26l12.32-277.09,2.42-91.15Z"/><path class="cls-1" d="M796.17,1049.8s.71,13.53,10,17.1,35.9,6.31,26.22,15.28c-5.56,5.15-32.47,2.64-40,2.85s-14.59,3.69-20.36-1.22c-6.34-5.41-.9-33.33-.9-33.33s6.63,3.23,12.5,2.92C792,1053,796.17,1049.8,796.17,1049.8Z"/><path class="cls-2" d="M864.19,639.1s3.47,61-12.86,178.79c-11.8,85-26.12,170.7-33.17,211.8a31.9,31.9,0,0,1-29.09,26.7l-7.82.53c-15.74,1-28.9-12.14-28.18-28.26l12.32-277.09,2.42-91.15Z"/><path class="cls-1" d="M759.53,708.93c.39,7.37,45,9.1,100.13,5.89s98.93-12,98.54-19.38-44.86-10.5-100-7.3S759.14,701.57,759.53,708.93Z"/><path class="cls-9" d="M767.4,499.88S776.11,461,848,458.65c103.71-3.36,96.68,92.2,110.18,236.79,0,0-102.56-11.7-198.77,11.68C759.43,707.12,746.47,559.52,767.4,499.88Z"/><path class="cls-9" d="M740.7,495.05l47.68,24.73s103.11,6.57,130.3,1.33,34.13-25.49,34.13-25.49-29.89-29.3-79.54-36c-4.67-.64-9.5-1.07-14.5-1.26a143.06,143.06,0,0,0-25,1.17C771.34,468.28,740.7,495.05,740.7,495.05Z"/><path class="cls-8" d="M837.89,450.07l5-17.67,1.44-5.14L852.78,397l2,29.81L856,444.71l.38,5.66c.27,3.84,2.63,4.59,5.58,7.86,1.19,1.32,8.81,9.34.51,13.27-10.34,4.91-30.09-1.57-37.77-10.53C824.78,461,836.29,455.78,837.89,450.07Z"/><path class="cls-2" d="M949.68,701.63s-60.21-16-183.27,11.5L765.94,731l181.52,1.52Z"/><ellipse class="cls-1" cx="760.46" cy="510.28" rx="12.5" ry="25.06" transform="translate(-90.56 848.57) rotate(-55.54)"/><path class="cls-8" d="M733.48,725.17c3-47.72,10.59-118.85,31.84-173.37,4.93-12.64,7-17.39,10.91-24.32,3.16-5.57-3.08-17.48-12.56-23-8.9-5.16-22.51-3.91-24.59-1.18-3.55,4.65-7.23,13.46-12.94,27.45-19.87,48.6-34.51,113.64-37.48,193.78Z"/><path class="cls-1" d="M870.31,380.21a39.34,39.34,0,0,1,3.29,16c0,9.3-13.6-10.76-13.6-10.76Z"/><ellipse class="cls-8" cx="850.01" cy="407.32" rx="26.67" ry="32.15" transform="translate(-86.47 300.41) rotate(-19.09)"/><path class="cls-1" d="M822.31,407.16l12.37-3.91a9.41,9.41,0,0,0,6-5.54c1.75-4.59,4.44-7.31,16.33-9.29,15-2.51,23.08-13.44,23.09-21.59,0-8.31-8.75-12.15-15.47-6.8s-5.41-4.64-12.83-4.15c-13.86.92-14.25,11.83-25.35,13.76-14.56,2.53-38.23,18.85-20.7,41.79Z"/><path class="cls-1" d="M851.11,405.72a.54.54,0,0,0-.43-.93,5.85,5.85,0,0,0-5.39,4.73.54.54,0,0,0,.38.66.59.59,0,0,0,.66-.38,9.27,9.27,0,0,1,4.48-3.94A.47.47,0,0,0,851.11,405.72Z"/><path class="cls-1" d="M850.21,413c.59,1.15,1.74,1.74,2.57,1.32s1-1.7.46-2.85-1.73-1.74-2.57-1.32S849.63,411.83,850.21,413Z"/><path class="cls-1" d="M870.38,400.12a.38.38,0,0,0,.23-.32.66.66,0,0,0-.35-.68,3.8,3.8,0,0,0-5.27,1.73.62.62,0,0,0,.14.74.4.4,0,0,0,.6,0,5.65,5.65,0,0,1,4.38-1.44A.36.36,0,0,0,870.38,400.12Z"/><path class="cls-1" d="M866.67,406.54c.1,1.28.94,2.27,1.87,2.19s1.61-1.17,1.51-2.46-.94-2.26-1.88-2.19S866.57,405.25,866.67,406.54Z"/><path class="cls-1" d="M805.73,411.43s12.6,17.05,25.27,15.89c0,0-13-12.3,6.34-25.39C837.34,401.93,817.34,402.86,805.73,411.43Z"/><path class="cls-8" d="M825.32,418.25c3,1.14,6.25-.11,7.27-2.78s-.58-5.77-3.58-6.91-6.24.1-7.26,2.78S822.33,417.11,825.32,418.25Z"/><path class="cls-1" d="M837.34,401.93s1.56,16.16,5.39,18.49,25.35-.75,34.48-6.62h0a21.07,21.07,0,0,1-12.74,24.29,30.39,30.39,0,0,1-10.15,2.05h0c-7.19.22-14.53-1.27-18.71-7.12-1.28-1.78-1.22-14.36-1.22-14.36s-.5-7.27-5.38-10.1C829,408.56,832.89,403.31,837.34,401.93Z"/><path class="cls-1" d="M861.58,359.24a4,4,0,0,1-3.8-2.66l.69-.21c0,.11.91,2.8,4.33,2l.17.71A6,6,0,0,1,861.58,359.24Z"/><path class="cls-6" d="M860.36,383.36l-.17-.32a47.79,47.79,0,0,0,7.44-5.06c3.31-2.77,7.14-7,6.61-11.31-.29-2.35-1-3.81-2.15-4.45-1.85-1-4.58.22-7,1.33l-1.08.5-.15-.34,1.08-.49c2.49-1.14,5.31-2.44,7.32-1.32,1.27.7,2,2.25,2.33,4.73C875.66,375.19,861,383,860.36,383.36Z"/><path class="cls-6" d="M820.82,373.85l0-.36c16-1.09,21.62-11.34,21.68-11.45l.32.18C842.74,362.32,837,372.75,820.82,373.85Z"/><path class="cls-6" d="M865.62,426.74A2.65,2.65,0,0,1,864,430c-1.23.25-2.49-.82-2.81-2.38s.41-3.05,1.64-3.3A2.64,2.64,0,0,1,865.62,426.74Z"/><path class="cls-12" d="M718.71,615.47a5.19,5.19,0,0,1-.68-.05c-3.69-.5-6.1-5.13-5.39-10.31a11.85,11.85,0,0,1,2.74-6.27,6,6,0,0,1,5.23-2.21c3.68.5,6.1,5.13,5.39,10.31a11.72,11.72,0,0,1-2.75,6.26A6.16,6.16,0,0,1,718.71,615.47Zm1.23-17.11a4.42,4.42,0,0,0-3.23,1.68,10,10,0,0,0-2.31,5.31c-.56,4.14,1.21,7.94,3.87,8.31a4.25,4.25,0,0,0,3.66-1.65,10,10,0,0,0,2.3-5.31c.57-4.14-1.2-7.94-3.86-8.31Z"/><path class="cls-8" d="M689.41,708.61s38.44,1.15,39.75,3.93c3,6.41,6.11,20.4,9,26.87,1.26,2.81,4.83,12.53,2.2,14.14-2.29,1.4-8.81-5-11.54-8.4C725,765,714.12,792.5,715.46,750.09h-.07c-.9,4.23-5.36,30.76-11.52,29.93-4.69-.63-1.27-25.59.12-32.56l-.19-.06c-2,7-5.45,27.84-10.79,26.61-4.54-1-.34-30-.34-30s-5.74,23.61-9.59,19.09c-3.54-4.15,1.22-26.41,2.63-33.16C687.18,722.9,689.41,708.61,689.41,708.61Z"/><path class="cls-1" d="M934.88,517.16c-3.26-10.66-13.64-23.9-13.75-24l.93-.73c.11.13,10.62,13.54,14,24.42Z"/><path class="cls-1" d="M848.68,841.84l-1.17-.15c.06-.51,6.75-50.54,11.8-68.51,5.09-18.14,28.5-33.79,28.74-33.94l.65,1c-.23.15-23.28,15.56-28.25,33.27C855.43,791.39,848.75,841.34,848.68,841.84Z"/><path class="cls-9" d="M217.8,1096.93s-1.05,2.46-3.33,6.53a3.72,3.72,0,0,0-.19.34v0a141.08,141.08,0,0,1-23.8,30.62c-4.16,4.07-9.79,7.26-16.41,9.62h0l-.14,0c-1.41.5-2.87,1-4.36,1.38h0c-21.31,6.1-50.56,4.8-73.54-1.83h0l-4-1.22h0q-2.94-1-5.72-2a53.13,53.13,0,0,1-14.7-8.53c-.5-.42-1-.84-1.46-1.27a48.11,48.11,0,0,1-15.65-33.66Z"/><path class="cls-3" d="M223,1067.69v21.16c0,13.1-39.38,23.72-88,23.72s-88-10.62-88-23.72v-21.16c0-6.65,22.69-12.35,54.85-14.7,10.23-.76,21.41-1.18,33.13-1.18C183.65,1051.81,223,1058.91,223,1067.69Z"/><path class="cls-1" d="M223,1067.69c0,1.28-.82,2.52-2.39,3.7-9.23,7-44,12.18-85.59,12.18-11.63,0-22.75-.41-32.91-1.15-32.28-2.36-55.07-8.06-55.07-14.73s22.69-12.35,54.85-14.7c10.23-.76,21.41-1.18,33.13-1.18C183.65,1051.81,223,1058.91,223,1067.69Z"/><path class="cls-1" d="M140.36,848.37c-8.44,5-12.53,3.79-14.47.45s-1-7.54,7.43-12.54c15.38-9.12,26.33-7.47,26.33-7.47S156,839.13,140.36,848.37Z"/><path class="cls-1" d="M139.93,912.41c-6.38,7.49-10.64,7.67-13.54,5.15s-3.37-6.81,3-14.3c11.63-13.64,22.51-15.67,22.51-15.67S151.73,898.56,139.93,912.41Z"/><path class="cls-1" d="M136,1079.07l-1.84-.16c0-.29,2.35-29.22-7.28-71.6-8.89-39.1-30.06-98-80.48-156.42l1.4-1.23c50.7,58.76,72,118,80.9,157.31C138.41,1049.62,136.06,1078.78,136,1079.07Z"/><path class="cls-1" d="M97.47,923.44l-1.56-1c36.28-57.2,14.42-126.65,14.2-127.34l1.76-.59C112.09,795.21,134.24,865.48,97.47,923.44Z"/><path class="cls-1" d="M69.58,893.09a65.17,65.17,0,0,1-33.2-9.62l1-1.55c.18.12,18.4,12.29,40.64,8.62l.3,1.84A53.53,53.53,0,0,1,69.58,893.09Z"/><path class="cls-1" d="M132.91,1036.93c-38-4.37-68.89-23.1-91.65-55.68a26.82,26.82,0,0,0-1.76-2.38.82.82,0,0,0,.19.1l.59-1.78c.52.18.84.63,2.49,3,22.45,32.12,52.84,50.59,90.35,54.9Z"/><path class="cls-1" d="M79.11,1016.79l-1.79-.49c6.57-24.5-9.61-60.54-9.78-60.9l1.69-.78a156.83,156.83,0,0,1,7.49,21.49C79.76,987.39,82.64,1003.61,79.11,1016.79Z"/><path class="cls-1" d="M45.19,840.46c9.8,8.93,10.63,13.92,8.07,16.79s-7.57,2.56-17.37-6.37C18,834.62,14.06,821.55,14.06,821.55S27.08,824,45.19,840.46Z"/><path class="cls-1" d="M41.35,877.43c12,5.52,14.29,10,12.7,13.55s-6.45,4.74-18.46-.79C13.71,880.12,6,868.87,6,868.87S19.15,867.21,41.35,877.43Z"/><path class="cls-1" d="M73.07,949.32c4.48,8.78,3.05,12.83-.36,14.61s-7.51.6-12-8.19c-8.17-16-5.94-27-5.94-27S64.78,933.08,73.07,949.32Z"/><path class="cls-1" d="M88.52,863.3c2.24,9.62-.13,13.2-3.86,14.08S77.23,876.12,75,866.5c-4.07-17.53.73-27.6.73-27.6S84.4,845.52,88.52,863.3Z"/><path class="cls-1" d="M103.61,1006.88c-.54,9.87-3.8,12.63-7.63,12.42s-6.78-3.32-6.24-13.19c1-18,8.38-26.28,8.38-26.28S104.6,988.64,103.61,1006.88Z"/><path class="cls-1" d="M49.63,979.58c6.24,7.61,5.7,11.88,2.74,14.35s-7.2,2.21-13.44-5.4c-11.38-13.87-11.52-25-11.52-25S38.09,965.51,49.63,979.58Z"/><path class="cls-1" d="M115.77,786.93c3.08,13,1,17.54-2.76,18.45s-7.67-2.22-10.75-15.18c-5.6-23.61-1.55-36.66-1.55-36.66S110.09,763,115.77,786.93Z"/><path class="cls-3" d="M137.36,1081.57S89.11,899.73,40.74,914.8s59.07,114.62,71.45,168Z"/><path class="cls-3" d="M130.28,1073.36S56.45,927.45,10.37,949.24s75.1,86.66,95,129.83Z"/><path class="cls-13" d="M116,1076.83c-25.24-57.46-91.82-107.58-92.49-108.08l1.22-1.66c.67.5,67.68,50.94,93.14,108.9Z"/><path class="cls-2" d="M283,947.81c-.42,1-.85,2.07-1.31,3.1a95.78,95.78,0,0,1-11.49,19.28c-5,6.48-6,13.52-5.65,20.62,0,.2,0,.4,0,.6.65,10.56,4.24,21.2,2.27,30.18-.14.63-.31,1.26-.51,1.88-1.58,4.94-5.13,9.31-12.19,12.8-23.65,11.69-27.43,10.74-29.54,21-.13.61-.24,1.26-.37,2-.32,2-.64,4.26-1,7a5.54,5.54,0,0,1-2.59,5.14c-8.22,6.21-36.67,11-72.11,12l-1.95,0q-5.66.13-11.52.13c-11.65,0-22.76-.4-32.92-1.15a40.41,40.41,0,0,1-.22-29.43,46.74,46.74,0,0,1,8.39-13.61c21.19-24.42,38.21-20.13,34.23-63.35,0-.49-.09-1-.14-1.49l-.12-1.23c-4.94-46.14,56.8-26.19,72.23-41.77s25.94-33,53.71-26.19C289.75,910.17,290.37,929.16,283,947.81Z"/><path class="cls-5" d="M278.63,910.7a628.19,628.19,0,0,0-58.52,58.9l-1.55,1.8c-23.4,27.26-39.51,51.44-50.38,70.41l-.93,1.64c-11.75,20.79-17.07,35.07-18.72,39.94l-1.95,0c2.22-6.74,14.16-39.63,48.36-85.51l1.15-1.55c19.39-25.79,45.76-55.59,81.32-87.09Z"/><path class="cls-5" d="M180.67,985c-25.31-.92-36.49-9.19-36.95-9.54l1.11-1.5c.11.09,11.24,8.27,35.91,9.17Z"/><path class="cls-5" d="M196,998.36c-10-3.79-18.27-14.52-23.82-31a126.16,126.16,0,0,1-5.39-23.88l1.84-.2c0,.45,4.94,44.63,28,53.35Z"/><path class="cls-5" d="M222.73,971.52c-2.92,0-4.63-.16-4.71-.17l.19-1.86c.36,0,36.39,3.34,64.56-22l1.23,1.4C261.31,969.32,233.62,971.52,222.73,971.52Z"/><path class="cls-5" d="M264.42,992.69c-12.75-1.86-20.79-7.69-25.28-12.26a32.7,32.7,0,0,1-6.82-9.66l1.72-.7c.07.17,7.29,17.37,30.64,20.77Z"/><path class="cls-5" d="M214.13,1060c-27.59,0-47.59-17.11-47.82-17.31l1.21-1.42c.25.22,25,21.38,57.2,16l.3,1.85A66.54,66.54,0,0,1,214.13,1060Z"/><path class="cls-5" d="M186.75,1053.71l-1.58-1c5.51-8.89,18.34-20.85,48.21-27.26a180.75,180.75,0,0,1,33.59-3.87v1.87C266.35,1023.46,205.22,1023.84,186.75,1053.71Z"/><path class="cls-3" d="M96,1143.66c8.37-.72,18.1-1.83,28.47-3.57,1.4-.22,2.81-.47,4.22-.72,29.19-5.28,62.63-15.56,85.58-35.55l.32-.27-.12-.09-1.24-1c-33.21,29.18-89.09,37.57-121.19,40h0Z"/><path class="cls-3" d="M169.55,1145.49h-.43a269.6,269.6,0,0,1-44.65-5.38v0h0l.41-1.46c1.28.26,2.55.5,3.8.74a257.47,257.47,0,0,0,45.36,4.69h0Z"/><path class="cls-3" d="M157.42,1096.93c-15.83,11.72-42.53,25.82-85.81,34.93-.5-.42-1-.84-1.46-1.27q6.16-1.27,11.86-2.68h0c1.91-.47,3.79-1,5.62-1.44h0c32.18-8.53,53.4-19.78,67-29.54Z"/><path class="cls-3" d="M112.34,1096.93a71,71,0,0,1-30.32,31h0l-.12.07,1,1.27c1.65-.9,3.23-1.82,4.74-2.78h0a71.85,71.85,0,0,0,26.67-29.54Z"/><path class="cls-14" d="M1819.72,930.25a35.2,35.2,0,0,1-2.29,3.27,1.09,1.09,0,0,1-.13.17h0A78.2,78.2,0,0,1,1801,949.07a34.38,34.38,0,0,1-11.27,4.83h0l-.09,0c-1,.25-2,.49-3,.7h0c-14.63,3.06-34.72,2.4-50.49-.93h0l-2.72-.61h0c-1.36-.32-2.66-.66-3.93-1a41.09,41.09,0,0,1-10.1-4.28l-1-.63c-10.94-7.19-10.74-16.9-10.74-16.9Z"/><path class="cls-1" d="M1823.31,915.57v10.62c0,6.58-27,11.91-60.41,11.91s-60.4-5.33-60.4-11.91V915.57c0-3.34,15.57-6.2,37.66-7.38,7-.38,14.7-.59,22.74-.59C1796.27,907.6,1823.31,911.16,1823.31,915.57Z"/><path class="cls-3" d="M1823.31,915.57c0,.64-.57,1.26-1.65,1.86-5.46,3-24,5.38-47.27,6l-1.37,0c-3.18.07-6.45.11-9.78.11h-.34c-2.71,0-5.38,0-8-.07-1.4,0-2.78-.05-4.15-.09l-1.56,0-3.72-.13-4.74-.22-.43,0-1.59-.09c-21.33-1.23-36.23-4-36.23-7.3,0-2.76,10.64-5.19,26.8-6.61,2.84-.26,5.85-.48,9-.66l1.86-.11h.08l.59,0,1.61-.08c3-.14,6-.25,9.21-.33q3.35-.09,6.81-.12c1.47,0,3,0,4.44,0,6,0,11.88.11,17.37.33l1.39.06c5.65.24,10.94.59,15.72,1h0c1.75.16,3.43.34,5,.52h0a110.43,110.43,0,0,1,14.26,2.39s0,0,0,0a29.08,29.08,0,0,1,3.67,1.18C1822.29,913.88,1823.31,914.71,1823.31,915.57Z"/><path class="cls-3" d="M1766.54,767.91c-5.79,3.44-8.6,2.6-9.93.31s-.69-5.18,5.1-8.61c10.56-6.26,18.08-5.13,18.08-5.13S1777.25,761.57,1766.54,767.91Z"/><path class="cls-3" d="M1766.25,811.88c-4.38,5.15-7.3,5.27-9.3,3.54s-2.31-4.67,2.07-9.82c8-9.37,15.46-10.76,15.46-10.76S1774.35,802.38,1766.25,811.88Z"/><path class="cls-3" d="M1765.69,921.15l-3-2.24c.59-5.43,1.18-12.77-5.43-41.87-6.1-26.85-20.64-67.27-55.26-107.39l1-.85c34.81,40.35,49.43,81,55.55,108C1765.21,906.09,1765.71,921,1765.69,921.15Z"/><path class="cls-3" d="M1737.1,819.46l-1.07-.69c24.91-39.28,9.9-87,9.74-87.44l1.21-.4C1747.14,731.41,1762.34,779.66,1737.1,819.46Z"/><path class="cls-3" d="M1718,798.62a44.76,44.76,0,0,1-22.8-6.61l.72-1.06c.12.08,12.63,8.43,27.9,5.92l.21,1.26A37.2,37.2,0,0,1,1718,798.62Z"/><path class="cls-3" d="M1761.43,897.38c-26.13-3-47.3-15.86-62.93-38.23-.54-.77-1-1.5-1.2-1.64,0,0,0,0,.13.07l.4-1.22c.36.12.58.43,1.71,2,15.41,22.05,36.28,34.74,62,37.69Z"/><path class="cls-3" d="M1724.49,883.55l-1.23-.33c4.51-16.83-6.6-41.57-6.71-41.82l1.16-.53a106.58,106.58,0,0,1,5.14,14.75C1724.94,863.37,1726.92,874.5,1724.49,883.55Z"/><path class="cls-3" d="M1701.2,762.49c6.73,6.12,7.3,9.55,5.54,11.52s-5.2,1.76-11.92-4.37c-12.26-11.17-15-20.14-15-20.14S1688.77,751.16,1701.2,762.49Z"/><path class="cls-3" d="M1698.57,787.86c8.24,3.8,9.81,6.89,8.72,9.31s-4.43,3.25-12.68-.54c-15-6.92-20.3-14.64-20.3-14.64S1683.33,780.85,1698.57,787.86Z"/><path class="cls-3" d="M1720.34,837.23c3.08,6,2.1,8.81-.24,10s-5.16.41-8.24-5.62c-5.6-11-4.08-18.51-4.08-18.51S1714.65,826.08,1720.34,837.23Z"/><path class="cls-3" d="M1731,778.16c1.53,6.61-.09,9.07-2.66,9.67s-5.1-.86-6.63-7.47c-2.79-12,.5-19,.5-19S1728.12,766,1731,778.16Z"/><path class="cls-3" d="M1741.31,876.75c-.37,6.77-2.61,8.67-5.24,8.52s-4.65-2.27-4.28-9c.67-12.34,5.76-18,5.76-18S1742,864.23,1741.31,876.75Z"/><path class="cls-3" d="M1704.25,858c4.28,5.23,3.91,8.16,1.89,9.86s-5,1.51-9.24-3.71c-7.81-9.52-7.91-17.2-7.91-17.2S1696.33,848.34,1704.25,858Z"/><path class="cls-3" d="M1749.66,725.73c2.12,8.9.67,12-1.89,12.66s-5.27-1.52-7.38-10.42c-3.85-16.21-1.07-25.17-1.07-25.17S1745.76,709.28,1749.66,725.73Z"/><path class="cls-9" d="M1763.24,923.54h-.34c-2.71,0-5.38,0-8-.07-1.4,0-2.78-.05-4.15-.09l-1.56,0-3.72-.13a101.13,101.13,0,0,0-7.18-14.91c-4-7.06-9-14.53-14.12-22.07h0c-2-2.88-4-5.77-6-8.65h0c-10-14.33-19.85-28.41-25-39.81-5.38-12-5.53-21,4.93-24.23,24.66-7.68,49.27,59.16,60.31,94.1C1760.59,914.37,1762.22,919.94,1763.24,923.54Z"/><path class="cls-3" d="M1759.62,922.39l-4.71,1.08c-1.4,0-2.78-.05-4.15-.09l-1.56,0-3.72-.13-4.74-.22a80.73,80.73,0,0,0-11.45-14c-26.87-27.49-77.88-59.55-52-71.79,4.93-2.34,10.33-1.87,15.92.58,21.57,9.45,46.1,48.37,58.43,70C1756.63,916.48,1759.62,922.39,1759.62,922.39Z"/><path class="cls-9" d="M1750.76,923.38l-1.56,0a124.88,124.88,0,0,0-8.37-15.19,188.45,188.45,0,0,0-16.65-21.92h0a276.75,276.75,0,0,0-37.82-35.65l.83-1.14a277.44,277.44,0,0,1,31,28.13h0a202.93,202.93,0,0,1,24.25,30.5A121.93,121.93,0,0,1,1750.76,923.38Z"/><path class="cls-2" d="M1864.5,836.19q-.43,1.06-.9,2.13h0a65.62,65.62,0,0,1-7.88,13.23c-3.42,4.44-4.13,9.28-3.88,14.15h0c0,.14,0,.27,0,.41.45,7.24,2.91,14.55,1.56,20.72-.1.43-.21.86-.35,1.29-1.08,3.39-3.52,6.39-8.37,8.79-16.24,8-18.83,7.37-20.28,14.4h0c-.09.42-.17.87-.25,1.34h0c-1.28.2-2.54.34-3.78.43,1.91.77,2.93,1.6,2.93,2.46,0,.64-.57,1.26-1.65,1.86-5.46,3-24,5.38-47.27,6l-1.37,0c-3.29.07-6.67.11-10.12.11-8,0-15.62-.2-22.59-.58l-1.59-.09a26.8,26.8,0,0,1,1.44-14.46l.08-.23a32.32,32.32,0,0,1,5.68-9.11c14.54-16.78,26.23-13.83,23.5-43.5,0-.34-.07-.67-.1-1h0c0-.27,0-.56-.09-.84-3.38-31.68,39-18,49.6-28.68s17.81-22.69,36.88-18C1869.12,810.35,1869.54,823.39,1864.5,836.19Z"/><path class="cls-5" d="M1861.48,810.71a430.38,430.38,0,0,0-40.18,40.44h0l-1.06,1.22a316.07,316.07,0,0,0-34.59,48.35l-.64,1.12h0c-1.22,2.15-2.33,4.19-3.35,6.13-3.36,6.4-5.71,11.61-7.27,15.41l-1.37,0c1.53-3.77,3.86-9,7.25-15.5A279.33,279.33,0,0,1,1804,870.6c.26-.35.52-.71.8-1.06,13.31-17.71,31.41-38.16,55.83-59.8Z"/><path class="cls-5" d="M1794.22,861.72c-17.38-.63-25-6.31-25.37-6.55l.77-1c.07.05,7.71,5.67,24.65,6.29Z"/><path class="cls-5" d="M1804.75,870.9c-6.9-2.61-12.55-10-16.36-21.3a87.31,87.31,0,0,1-3.71-16.4l1.27-.13c0,.3,3.39,30.64,19.24,36.62Z"/><path class="cls-5" d="M1823.11,852.47c-2,0-3.19-.11-3.24-.12l.13-1.27c.25,0,25,2.29,44.33-15.08l.84,1C1849.59,851,1830.58,852.47,1823.11,852.47Z"/><path class="cls-5" d="M1851.73,867a29.87,29.87,0,0,1-17.36-8.41,22.51,22.51,0,0,1-4.68-6.63l1.18-.49c.05.12,5,11.93,21,14.26Z"/><path class="cls-5" d="M1824.68,912.6l-.52.08c-1.28.2-2.54.34-3.78.43-1.08.07-2.14.11-3.18.11a50.94,50.94,0,0,1-19.82-4.2h0a56.42,56.42,0,0,1-12.37-7.16h0c-.41-.31-.63-.5-.65-.52l.84-1a3.91,3.91,0,0,0,.45.37,53.85,53.85,0,0,0,12,7l1.21.51c1.14.45,2.34.89,3.59,1.29h0a47.53,47.53,0,0,0,14.26,2.39s0,0,0,0a42.7,42.7,0,0,0,7.7-.59h.06Z"/><path class="cls-5" d="M1798.4,908.9l-1.08-.68c3.77-6.11,12.58-14.31,33.1-18.72a124,124,0,0,1,23-2.65v1.28C1853.05,888.13,1811.08,888.39,1798.4,908.9Z"/><polygon class="cls-9" points="1824.22 962.64 1682.59 962.64 1682.59 1124.29 1814.71 1124.29 1824.22 962.64"/><polygon class="cls-15" points="1758.4 962.64 1605.77 962.64 1612.47 1124.29 1758.4 1124.29 1758.4 962.64"/><polygon class="cls-9" points="1828.09 950.7 1600.54 950.7 1596.61 968 1828.09 970.91 1828.09 950.7"/><path class="cls-9" d="M1735,1100.18H1631.23a6.1,6.1,0,0,1-6.06-5.63l-3.4-41.68a6.11,6.11,0,0,1,6.06-6.63H1735a6.1,6.1,0,0,1,6.07,6.13v41.68A6.1,6.1,0,0,1,1735,1100.18Z"/><path class="cls-9" d="M1735,1034.09H1631.23a6.09,6.09,0,0,1-6.06-5.63l-3.4-41.67a6.12,6.12,0,0,1,6.06-6.64H1735a6.11,6.11,0,0,1,6.07,6.13V1028A6.1,6.1,0,0,1,1735,1034.09Z"/><polygon class="cls-3" points="1762.3 950.7 1762.3 970.08 1828.09 970.91 1828.09 950.7 1762.3 950.7"/><path class="cls-1" d="M1637.22,1124.29l-1.72,8c-.55,4.21-3.72,4.24-5.16,4.21-2.28,0-3.92-4-3.35-7.59l.72-4.64Z"/><path class="cls-1" d="M1735.85,1124.29l1.72,8c.55,4.21,3.72,4.24,5.16,4.21,2.28,0,3.92-4,3.34-7.59l-.71-4.64Z"/><path class="cls-1" d="M1797.6,1124.29l1.72,8c.55,4.21,3.71,4.24,5.16,4.21,2.28,0,3.92-4,3.34-7.59l-.72-4.64Z"/><path class="cls-1" d="M1680.69,995.25a5.67,5.67,0,0,1-4.38-1.89,4,4,0,0,1-.77-3.43h0c.65-3.14,2.63-5.08,5.15-5.08,2.77,0,5.63,1.75,5.63,4.67A5.63,5.63,0,0,1,1680.69,995.25Zm-4-5.08a2.82,2.82,0,0,0,.52,2.45,4.55,4.55,0,0,0,3.49,1.47,4.48,4.48,0,0,0,4.47-4.57c0-2.19-2.27-3.51-4.47-3.51-2.92,0-3.81,3.18-4,4.16Z"/><path class="cls-1" d="M1680.88,1001.45h0a1.41,1.41,0,0,1-1.41-1.41v-5.52a1.42,1.42,0,0,1,1.41-1.41h0a1.41,1.41,0,0,1,1.41,1.41V1000A1.41,1.41,0,0,1,1680.88,1001.45Z"/><path class="cls-1" d="M1680.69,1063a5.68,5.68,0,0,1-4.38-1.9,4,4,0,0,1-.77-3.42h0c.65-3.14,2.62-5.09,5.15-5.09,2.77,0,5.63,1.75,5.63,4.68A5.63,5.63,0,0,1,1680.69,1063Zm-4-5.08a2.83,2.83,0,0,0,.52,2.45,4.54,4.54,0,0,0,3.49,1.46,4.47,4.47,0,0,0,4.47-4.56c0-2.2-2.27-3.51-4.47-3.51-2.92,0-3.81,3.18-4,4.16Z"/><path class="cls-1" d="M1680.88,1069.19h0a1.42,1.42,0,0,1-1.41-1.41v-5.52a1.41,1.41,0,0,1,1.41-1.41h0a1.41,1.41,0,0,1,1.41,1.41v5.52A1.41,1.41,0,0,1,1680.88,1069.19Z"/><path class="cls-2" d="M1733.6,895.66l-51-1.72-57.77,1.51-.15,4.4,55.88-2.52c5.61.19,10,5.38,9.79,11.59h0c-.2,6.22-4.92,11.1-10.54,10.91L1624.11,918l-.1,3.24,108.62,3.67c7.29.24,13.42-6.09,13.68-14.16h0C1746.58,902.64,1740.89,895.9,1733.6,895.66Z"/><path class="cls-2" d="M1695.34,909h0c.27-8.06-5.42-14.8-12.71-15l-57.77,1.51-.15,4.4,55.88-2.52c5.61.19,10,5.38,9.79,11.59h0c-.2,6.22-4.92,11.1-10.54,10.91L1624.11,918l-.1,3.24,57.65,1.95C1689,923.38,1695.07,917.05,1695.34,909Z"/><path class="cls-16" d="M1680.59,897.35l-55.88,2.5h0c5,.81,6.57,6,7.27,8.74,1.42,5.6-2.78,8.82-7.86,9.29V918l55.73,1.88c5.62.19,10.34-4.69,10.54-10.9h0C1690.59,902.72,1686.2,897.54,1680.59,897.35Z"/><rect class="cls-1" x="1654.53" y="889.57" width="0.31" height="45.01" transform="translate(687.31 2535.04) rotate(-88.07)"/><g class="cls-4"><path class="cls-3" d="M1689.93,921.76a.61.61,0,0,1-.5-.27.62.62,0,0,1,.16-.85c.05,0,4.44-3.11,5.15-11.71s-5.23-11.82-5.29-11.85a.62.62,0,0,1-.26-.83.61.61,0,0,1,.83-.25c.27.14,6.69,3.69,5.93,13s-5.48,12.49-5.68,12.63A.61.61,0,0,1,1689.93,921.76Z"/></g><rect class="cls-1" x="1631.97" y="908.15" width="34.56" height="0.31" transform="translate(-15.22 28.2) rotate(-0.98)"/><g class="cls-4"><path class="cls-3" d="M1707.91,918.72h0l-10.89-.37a.63.63,0,0,1-.52-.32.61.61,0,0,1,0-.6,33.28,33.28,0,0,0,3-7.74c1-4.26-1.82-8.68-1.85-8.73a.61.61,0,0,1,.52-1l10.34.35a.59.59,0,0,1,.48.26c6.46,9.33-.53,17.8-.61,17.88A.58.58,0,0,1,1707.91,918.72Zm-9.9-1.56,9.62.32c1-1.34,5.68-8.18.52-15.91l-8.93-.3c.86,1.67,2.32,5.18,1.45,8.72A35.14,35.14,0,0,1,1698,917.16Z"/></g><path class="cls-3" d="M1620.45,921.49h51l57.69,3.46v4.39L1673.38,925c-5.62,0-10.18,5-10.18,11.25h0c0,6.22,4.56,11.26,10.18,11.26h55.76v3.24H1620.45c-7.29,0-13.2-6.54-13.2-14.61h0C1607.25,928,1613.16,921.49,1620.45,921.49Z"/><path class="cls-3" d="M1658.25,936.09h0c0-8.06,5.91-14.6,13.2-14.6l57.69,3.46v4.39L1673.38,925c-5.62,0-10.18,5-10.18,11.25h0c0,6.22,4.56,11.26,10.18,11.26h55.76v3.24h-57.69C1664.16,950.7,1658.25,944.16,1658.25,936.09Z"/><path class="cls-16" d="M1673.38,925l55.76,4.38h0c-5.07.65-6.76,5.76-7.55,8.5-1.6,5.54,2.48,8.91,7.55,9.55v.08h-55.76c-5.62,0-10.18-5-10.18-11.26h0C1663.2,930,1667.76,925,1673.38,925Z"/><rect class="cls-1" x="1676.28" y="940.4" width="45.01" height="0.31"/><path class="cls-1" d="M1662.89,948.93c-.19-.14-4.8-3.55-5.25-12.81s6.07-12.69,6.35-12.82l.54,1.09c-.24.13-6.09,3.15-5.67,11.67s4.71,11.85,4.75,11.88Z"/><polygon class="cls-1" points="1721.58 937.99 1687.06 936.25 1687.08 935.94 1721.6 937.69 1721.58 937.99"/><path class="cls-1" d="M1645.38,927.64h10.34s-3.21,4.54-2.23,9.15a33.31,33.31,0,0,0,2.79,8h-10.9S1638.81,936.47,1645.38,927.64Z"/><polygon class="cls-1" points="398.39 1104.88 385.64 1107.47 386.44 945.58 396.25 949.74 398.39 1104.88"/><path class="cls-1" d="M436.08,1113.88s-67.53,1.22-90,1.39c-2.49,0-4.27-3.4-4.27-5.89h0c0-2.48,3.63-5.44,6.11-5.42,22.05.11,88.2.92,88.2.92a4.5,4.5,0,0,1,4.5,4.5h0A4.49,4.49,0,0,1,436.08,1113.88Z"/><path class="cls-1" d="M345,1122c.82-4.93,5.15-8.08,10.16-8.08s10.15,3.31,10.15,8.32c0,6.23-6.3,10.62-11.31,10.62A9.28,9.28,0,0,1,345,1122Z"/><path class="cls-1" d="M417,1122c.82-4.93,5.15-8.08,10.16-8.08s10.15,3.31,10.15,8.32c0,6.23-6.3,10.62-11.31,10.62A9.29,9.29,0,0,1,417,1122Z"/><path class="cls-1" d="M360.81,950.78s-2.42,10.73,22.51,14.19S419,950.78,419,950.78Z"/><path class="cls-2" d="M490.94,892.79c.27-30.15-51.44-118.18-93.63-129.48-47.76-12.8-109-36-127,6s42.27,171.38,42.27,171.38,3.35,11.5,15.55,12.78,162.57,5.79,162.8,0C491.09,949.74,512.2,899,490.94,892.79Z"/><path class="cls-8" d="M518.89,670.62,576.35,782.2S530.83,811.27,528,805c-.68-1.49-63.72-96.4-63.72-96.4Z"/><path class="cls-1" d="M566,1105s-.41,13.89,8.77,18.32,36.19,9.45,25.54,17.81c-6.12,4.8-33.43,0-41.19-.43s-15.24,2.56-20.72-3c-6-6.06,1.86-34.16,1.86-34.16s6.51,3.86,12.54,4C561.46,1107.88,566,1105,566,1105Z"/><path class="cls-1" d="M642.88,1098.21s-.41,13.9,8.77,18.33,36.19,9.44,25.54,17.81c-6.12,4.8-33.43,0-41.19-.43s-15.24,2.56-20.72-3c-6-6.06,1.86-34.16,1.86-34.16s6.51,3.85,12.54,4C638.38,1101.08,642.88,1098.21,642.88,1098.21Z"/><path class="cls-3" d="M660.58,1082c-6.87-91-8.49-152.47-37.3-191.94-31.53-43.19-116.06-73.74-148.66-75.65-53.15-3.11-78.2,4.8-78.2,4.8-39.9,83,22.6,94,68.83,96.25,1.52.07,3.06.16,4.6.26,28,1.76,77.75,8.87,96.58,36.68,14.92,22,25.27,52.94,29.63,132.69a28.28,28.28,0,0,0,29,26.75S663.05,1114.71,660.58,1082Z"/><path class="cls-3" d="M585.14,1086.65c.9-91.3,3.74-137.91-23.66-178.36-17.61-26-44.08-45.62-78.69-58.32-24.7-9.07-53.75-14.63-86.35-16.54-53.15-3.1-77-9.52-77-9.52-43,106.2,114.34,83.66,155.31,128.91,17.85,19.71,40,57.21,44.33,137a28.28,28.28,0,0,0,29,26.75S584.81,1120,585.14,1086.65Z"/><path class="cls-10" d="M584.88,997c0-.55-2.73-54.7-11.8-73.62-11.49-23.94-44.82-48.93-79.26-59.43l.18-.59c34.59,10.55,68.08,35.68,79.63,59.75,9.12,19,11.83,73.31,11.86,73.86Z"/><path class="cls-5" d="M361.09,641.3s24.61-42.06,81.33-29.15,70.24,72.61,74.31,211.76c0,0-42.92-3.7-180.91,42.07-16.34,5.42-40.31,1.12-31.92-26.72C319.5,787.5,334.61,684.27,361.09,641.3Z"/><path class="cls-5" d="M298.68,653.59l58.35,11s102,30.17,130.6,30.41S528,674.32,528,674.32s-23-39.11-71.32-57.56a140.21,140.21,0,0,0-14.27-4.61c-8.37-2.21-16.87-4.15-25.38-4.25C320.73,606.8,298.68,653.59,298.68,653.59Z"/><path class="cls-1" d="M298.68,653.59c-1.26,4.6,11,12.27,27.32,17.14s30.63,5.09,31.89.49-11-12.28-27.32-17.15S299.94,649,298.68,653.59Z"/><path class="cls-8" d="M443.73,840.16s32.79-1.86,41.26,5.17,14,22.41,7.79,19.17-12.92-9.57-12.92-9.57,13.77,14.19,9.06,16-16.57-10.67-16.57-10.67,15,18.19,10,18.44S466.07,865,466.07,865s13.32,17.48,7.5,17.63S462.66,868.12,458,869.9s-18.21,12.07-24.77-.43Z"/><path class="cls-8" d="M322.87,804c24.15,39.54,55.06,55.41,110.31,65.48l10.56-29.3c-40.23-7.33-60.83-36.45-77-62.95-23-37.71-18.88-83.65-15.43-104a5.24,5.24,0,0,0-2-5c-5.15-3.94-18.47-12-42.28-12.42a4.61,4.61,0,0,0-4.54,3.43C292.54,696.75,292.47,754.2,322.87,804Z"/><g class="cls-17"><path class="cls-12" d="M335,796a8,8,0,0,1-3-.62,13.25,13.25,0,0,1-6.79-7.18h0c-2.48-5.87-.94-12.16,3.42-14a7.25,7.25,0,0,1,5.63.08,13.2,13.2,0,0,1,6.79,7.19c2.48,5.87.95,12.16-3.42,14A6.59,6.59,0,0,1,335,796Zm-8-8.55a11.29,11.29,0,0,0,5.74,6.16,5.38,5.38,0,0,0,4.16.09c3.4-1.45,4.48-6.62,2.41-11.52a11.32,11.32,0,0,0-5.75-6.15,5.26,5.26,0,0,0-4.15-.09c-3.4,1.45-4.48,6.61-2.41,11.51Z"/></g><path class="cls-1" d="M446.12,592.43l-.21-.59c.06,0,6.61-2.54,7.93-7.39.69-2.52-.14-5.26-2.46-8.14-1.1-1.36-2.1-2.58-3-3.7-6.34-7.73-8.72-10.62-8.15-17.67l.62,0c-.55,6.81,1.61,9.44,8,17.23.92,1.13,1.93,2.35,3,3.71,2.46,3.05,3.33,6,2.58,8.69C453,589.78,446.41,592.32,446.12,592.43Z"/><path class="cls-1" d="M440.52,555A31.58,31.58,0,0,0,448,576.14c8.48,10.24,1.84,19.36-8.25,16.3s-12.19,9.58-25.26,4.41S440.52,555,440.52,555Z"/><path class="cls-8" d="M390.07,608.94a14.55,14.55,0,0,0,10.9-10.1l4.59-16,1.34-4.67,7.89-27.5,1.51,27.26.9,16.36.26,4.61c.21,3.81,3.57,9.37,7.38,9.56,0,0,5.78,6.73-2.12,10.41-9.29,4.32-26.15-1.59-32.93-9.91Z"/><path class="cls-1" d="M405.48,582.4c0,.15,0,.29.08.44,1.76,8.63,11.59,11.5,11.59,11.5l.05-.05-.9-16.36c-3-.68-7.17-1.24-9.4.24C405.74,578.93,405.12,580.26,405.48,582.4Z"/><ellipse class="cls-8" cx="416.57" cy="554.83" rx="25.58" ry="31.56" transform="translate(-67.01 57.32) rotate(-7.29)"/><path class="cls-8" d="M395.19,562.36c3.23,2.38,7.28,2.15,9.06-.52s.6-6.75-2.62-9.12-7.28-2.15-9.06.52S392,560,395.19,562.36Z"/><path class="cls-1" d="M419.06,554.82a.59.59,0,0,0,.35-.39.59.59,0,0,0-.42-.71,6.3,6.3,0,0,0-7.26,2.62.59.59,0,0,0,.12.81.65.65,0,0,0,.82-.12,10,10,0,0,1,6-2.19A.55.55,0,0,0,419.06,554.82Z"/><path class="cls-1" d="M415.31,561.75c.13,1.38,1.05,2.42,2.05,2.33s1.71-1.3,1.58-2.68-1.05-2.43-2.06-2.33S415.18,560.36,415.31,561.75Z"/><path class="cls-1" d="M440.05,555.19a.6.6,0,0,0,.47-.23.58.58,0,0,0-.12-.81,6.29,6.29,0,0,0-7.71-.35.59.59,0,0,0-.19.8.63.63,0,0,0,.8.2,9.87,9.87,0,0,1,6.4.28A.58.58,0,0,0,440.05,555.19Z"/><path class="cls-1" d="M433.94,560.17c-.4,1.33.05,2.64,1,2.93s2.08-.54,2.48-1.87-.05-2.64-1-2.94S434.35,558.84,433.94,560.17Z"/><path class="cls-1" d="M424.07,527.82s.84,10.93-12.49,14.52-21.95,10.52-18.88,20.06,27.53,27,12.47,36.93-13.52-5.18-30.51.45-23.11-17.24-12.84-32.28.84-50.15,46-54.31S441.15,547,441.15,547,425.58,539.82,424.07,527.82Z"/><path class="cls-6" d="M400.8,601.93l-.18-.32c3.14-1.77,4.85-3.92,5.22-6.57,1-7.36-8.81-17.21-17.48-25.9-2.3-2.31-4.47-4.48-6.42-6.58-5.43-5.84-6.81-13.45-3.62-19.88,3.55-7.13,11.53-11,20.83-10,9,.91,14.75-1.67,18-4a16.55,16.55,0,0,0,5-5.32l.33.17c-.06.11-5.87,11.29-23.33,9.52-9.14-.92-17,2.85-20.46,9.84-3.17,6.37-1.84,13.65,3.56,19.46,1.94,2.09,4.12,4.27,6.41,6.57,8.74,8.75,18.63,18.67,17.59,26.21C405.83,597.83,404,600.13,400.8,601.93Z"/><path class="cls-5" d="M430.48,565.08l.35-.37a26.78,26.78,0,0,1-.75-7.9,5.2,5.2,0,0,0-1-.42A27.42,27.42,0,0,0,430.48,565.08Zm-1.2-2.33a27.54,27.54,0,0,0,.66,2.92c1.29,4.53,3.74,8.15,6.93,9.62l.07,0a7.3,7.3,0,0,0,4,.63,7.74,7.74,0,0,0,2.65-.85,9.86,9.86,0,0,0,2.38-1.74,13,13,0,0,0,1.74-2,21.89,21.89,0,0,0,3.39-8.61c1.76-9.58-1.61-19.55-7.5-22.24a7.57,7.57,0,0,0-1.14-.43,7.13,7.13,0,0,0-3.86,0,9.77,9.77,0,0,0-1.67.65,10.25,10.25,0,0,0-1.79,1.21,12.1,12.1,0,0,0-.91.86A20.11,20.11,0,0,0,429.37,553c-.07.35-.12.7-.17,1,0,0,0,.06,0,.1h0q-.14,1.08-.21,2.16A28.91,28.91,0,0,0,429.28,562.75Zm21-2.66a22,22,0,0,1-.33,2.4,21.11,21.11,0,0,1-3,7.89,13.08,13.08,0,0,1-1.62,2,9.12,9.12,0,0,1-2.29,1.71,6.36,6.36,0,0,1-5.48.25.73.73,0,0,1-.19-.07c-3.07-1.41-5.4-5-6.53-9.56a26.78,26.78,0,0,1-.75-7.9c0-.74.1-1.49.21-2.25.06-.43.13-.85.21-1.29a18.68,18.68,0,0,1,4.62-9.88,9.77,9.77,0,0,1,2.31-1.72,6.17,6.17,0,0,1,1.61-.59,4.07,4.07,0,0,1,.89-.16h0a6,6,0,0,1,2.34.27,7.29,7.29,0,0,1,.8.31c5,2.26,7.95,10.27,7.19,18.53A.17.17,0,0,1,450.28,560.09Z"/><g class="cls-17"><path class="cls-6" d="M399.25,550.82c-.89,9.2,3.59,18.39,10,20.51s12.35-3.6,13.25-12.8-3.59-18.39-10-20.51S400.15,541.62,399.25,550.82Z"/></g><g class="cls-17"><path class="cls-6" d="M429.23,553.83c-.89,9.24,3.07,18.63,8.85,21s11.19-3.25,12.09-12.49-3.07-18.63-8.85-21S430.12,544.59,429.23,553.83Z"/></g><path class="cls-5" d="M398.73,556.26a24.92,24.92,0,0,0,2.52,7.6,15.5,15.5,0,0,0,7.63,7.38,5.33,5.33,0,0,0,.63.23,9.24,9.24,0,0,0,4.17.43,8.8,8.8,0,0,0,2.26-.6,11.6,11.6,0,0,0,1.78-.92c3.66-2.4,6.09-7,6.67-12.79.05-.52.09-1.05.1-1.58,0-.73,0-1.45,0-2.17-.27-5.82-2.51-11.31-5.91-14.82a12.55,12.55,0,0,0-5.19-3.39,9.41,9.41,0,0,0-8.23,1.12c-3.3,2.16-5.6,6.17-6.43,11.13-.08.53-.16,1.08-.22,1.63s-.09,1.16-.1,1.73A25.28,25.28,0,0,0,398.73,556.26Zm21.15,10.5a11.17,11.17,0,0,1-2.79,2.67,9,9,0,0,1-1.22.65,8.36,8.36,0,0,1-6,.32c-.22-.07-.45-.15-.66-.24a14.21,14.21,0,0,1-6.86-6.67,24.07,24.07,0,0,1-2.82-11.93c0-.64.06-1.29.11-1.92a21.21,21.21,0,0,1,.43-2.61,13.46,13.46,0,0,1,.48-1.74,0,0,0,0,1,0,0,17.39,17.39,0,0,1,1.13-2.75,12.29,12.29,0,0,1,4.12-4.8,8.18,8.18,0,0,1,3.59-1.35,8.37,8.37,0,0,1,3.66.35,11.62,11.62,0,0,1,4.63,3c3.29,3.32,5.47,8.66,5.7,14.35,0,.74,0,1.46,0,2.2,0,.41,0,.83-.08,1.25a18.68,18.68,0,0,1-3.31,9.17A.21.21,0,0,1,419.88,566.76Z"/><path class="cls-5" d="M430.85,557a1.05,1.05,0,0,1-.7-.16h0c-.12-.08-3.13-1.87-7.73-.37a1.11,1.11,0,0,1-1.35-.67,1,1,0,0,1,.68-1.33,11.43,11.43,0,0,1,9.54.57,1.05,1.05,0,0,1,.32,1.46A1,1,0,0,1,430.85,557Z"/><path class="cls-1" d="M423.35,577.54a15.3,15.3,0,0,1-6.41-1.58.84.84,0,1,1,.78-1.48s5.94,3.06,10,0a.84.84,0,0,1,1,1.35A8.92,8.92,0,0,1,423.35,577.54Z"/><path class="cls-1" d="M1331,1152.11l1.63-.15c1.26-.13,2.21-2.22,2.11-4.68l-12.61-310.79-24-11.87,29,321.23C1327.41,1149.53,1329.08,1152.3,1331,1152.11Z"/><path class="cls-1" d="M613.5,1152.11l-1.63-.15c-1.27-.13-2.21-2.22-2.11-4.68l12.61-310.79,24-11.87-29.05,321.23C617.07,1149.53,615.39,1152.3,613.5,1152.11Z"/><ellipse class="cls-14" cx="961.09" cy="839.75" rx="506.09" ry="39.61"/><rect class="cls-14" x="454.99" y="821.48" width="1012.19" height="18.27"/><ellipse class="cls-18" cx="961.09" cy="821.48" rx="506.09" ry="39.61"/><path class="cls-19" d="M598.7,850.53h-.11c-42.55-3.41-76.54-7.35-101-11.7a1.38,1.38,0,0,1-1.12-1.61,1.4,1.4,0,0,1,1.61-1.13c24.41,4.34,58.31,8.26,100.77,11.67a1.39,1.39,0,0,1-.11,2.78Z"/><path class="cls-19" d="M1381.35,845a1.39,1.39,0,0,1-.16-2.77c.49-.06,49.63-6.13,68.1-11.67a1.39,1.39,0,1,1,.8,2.67c-18.7,5.6-66.54,11.51-68.57,11.76Z"/><path class="cls-8" d="M623.56,775.31s28.74,7.87,34,16.36,5.53,23.31,1.16,18.74-8.34-12-8.34-12,7.74,16.18,3.17,16.35-11.17-14-11.17-14,7.68,20,3.32,18.76-10.1-16.46-10.1-16.46S642,822,637,820.46s-5.19-15.64-9.76-15.47-19.14,5.12-21.17-7.53Z"/><path class="cls-1" d="M515.84,820.8H617.4a4.93,4.93,0,0,0,4.68-3.35l21.1-63A4.9,4.9,0,0,0,638.5,748H540.84a10.34,10.34,0,0,0-9.81,7l-19.87,59.35A4.9,4.9,0,0,0,515.84,820.8Z"/><path class="cls-1" d="M522.22,820.8H623.77a4.92,4.92,0,0,0,4.68-3.35l21.11-63a4.91,4.91,0,0,0-4.69-6.45H547.21a10.31,10.31,0,0,0-9.8,7l-19.88,59.35A4.91,4.91,0,0,0,522.22,820.8Z"/><path class="cls-20" d="M593.37,782.33c0-2.4-2.76-3.37-5.17-3.37s-6.34,2.63-6.32,6c0,3.62,2.86,4.09,5.27,4.09S593.37,785.37,593.37,782.33Z"/><path class="cls-1" d="M484.88,811.9H623.82v8.9H482a3,3,0,0,1-3-3h0A5.9,5.9,0,0,1,484.88,811.9Z"/><path class="cls-3" d="M529.44,779.84l-.64-.17c.2-.77,5.05-18.95,8.32-24.83s7.37-7.14,7.54-7.18l.17.63s-4,1.17-7.13,6.87S529.49,779.65,529.44,779.84Z"/><path class="cls-3" d="M514.43,812.23v-.66c3.33,0,4.15-1.38,4.16-1.39l7.89-23.59.63.21-7.92,23.64C519.13,810.56,518.19,812.23,514.43,812.23Z"/><path class="cls-1" d="M1315.8,1113.29s-.62,13.52-9.85,17.15-35.82,6.52-26.09,15.42c5.58,5.11,32.45,2.44,40,2.59s14.6,3.6,20.33-1.35c6.3-5.44.69-33.29.69-33.29s-6.6,3.26-12.47,3C1320,1116.41,1315.8,1113.29,1315.8,1113.29Z"/><path class="cls-1" d="M1235.1,1127.17s-.76,13.51-10,17-35.89,6.13-26.26,15.14c5.53,5.16,32.42,2.78,40,3s14.56,3.76,20.34-1.13c6.36-5.37,1-33.28,1-33.28s-6.63,3.19-12.5,2.85C1239.23,1130.33,1235.1,1127.17,1235.1,1127.17Z"/><path class="cls-5" d="M1241.28,1138.35a29.42,29.42,0,0,1-26-31.23c6.1-88.67,14.35-133.33,44.31-170.28,19.25-23.74,47.35-46.26,81.07-58.57,29.06-10.61,53.55-15.1,85.32-14.23,51.81,1.43,75.44,11.2,75.44,11.2,31.76,83.81-29.77,89.26-74.79,87.59-1.49-.05-3-.1-4.49-.13-27.29-.63-76.15,2.1-96.74,27.5-16.31,20.11-28.93,49.23-39.83,126.21a27.52,27.52,0,0,1-30.36,23.52Z"/><path class="cls-5" d="M1319.53,1122.78c-15.62-1.83-27.26-14.53-26.38-28.82,4.92-80.77,12.57-121.39,42-154.69,18.9-21.39,45.94-36.36,80.38-44.51,24.57-5.81,53.12-8.14,84.84-6.92,51.73,2,75.33-1.57,75.33-1.57C1610.44,1022.33,1459,950,1416.07,986.32c-18.69,15.83-42.78,47-52.65,117-1.9,13.44-15.18,22.78-30,21.05Z"/><path class="cls-10" d="M1294.69,1067.15l-.58-.12c0-.2,4.07-20.29,20.87-41.28a120.24,120.24,0,0,1,36.5-30.4c17.93-9.8,39.16-15.88,63.09-18.07l.06.59c-54,5-83.73,29-99.16,48.23C1298.74,1047,1294.73,1067,1294.69,1067.15Z"/><path class="cls-8" d="M1476.35,638.62l-5-21.57-1.45-6.28-8.52-36.93-4.12,35.81-2.47,21.49-.78,6.8c-.53,4.62-3.42,5.38-7.16,9.15-1.51,1.53-11.14,10.76-1.36,16,12.18,6.5,36.35-.2,46.11-10.57C1491.55,652.47,1478,645.59,1476.35,638.62Z"/><ellipse class="cls-8" cx="1462.11" cy="587.44" rx="38.79" ry="32.17" transform="translate(590.56 1900.17) rotate(-78.31)"/><path class="cls-1" d="M1445,572.64c-18.4-.67-26.51-11.9-26-21.72.65-12.59,9.39-23.13,18.25-17.78s5.76-6.4,14.71-7c16.73-1.06,19,11,32.47,12.52,17.82,2.07,36,33.35,19.42,54C1503.89,592.68,1459.57,573.16,1445,572.64Z"/><path class="cls-1" d="M1429.64,558.76s18.21,20.32,14.84,30.74-3,14.64,8,21.14.25,15,15.45,16.75,35.22-14.86,37.4-44.5a44.55,44.55,0,0,0-7.48-28Z"/><path class="cls-8" d="M1434.62,588.31c2.45-3,6.61-3.64,9.28-1.44s2.84,6.39.39,9.37-6.61,3.64-9.28,1.44S1432.17,591.29,1434.62,588.31Z"/><path class="cls-1" d="M1500,588.47a.46.46,0,0,1-.44-.3c-1.45-3.86-5.55-5.59-5.59-5.61a.47.47,0,1,1,.36-.87,11.88,11.88,0,0,1,6.12,6.14.48.48,0,0,1-.45.64Z"/><path class="cls-1" d="M1493.85,580.32a.49.49,0,0,1-.47-.38.48.48,0,0,1,.37-.56s4.91-1.06,5.08-5a.45.45,0,0,1,.49-.45.48.48,0,0,1,.46.49c-.2,4.65-5.78,5.85-5.84,5.86Z"/><path class="cls-1" d="M1438.71,530.73a3.67,3.67,0,0,1-1.27-.25,13.42,13.42,0,0,1-3.79-2.39c-2-1.64-3.77-3.06-7.88-2.06a.49.49,0,1,1-.23-1c4.57-1.11,6.69.59,8.73,2.24a12.77,12.77,0,0,0,3.52,2.24,2.21,2.21,0,0,0,2-.11c2.28-1.31,3.17-6.34,3.18-6.39a.48.48,0,0,1,.57-.4.5.5,0,0,1,.41.57c0,.23-1,5.54-3.67,7.08A3.1,3.1,0,0,1,1438.71,530.73Z"/><path class="cls-1" d="M1484.81,533.11c-7.33,0-12.75-5.85-13-6.12a.5.5,0,1,1,.73-.67c.06.07,5.92,6.39,13.36,5.75a.51.51,0,0,1,.54.45.5.5,0,0,1-.46.54C1485.6,533.09,1485.2,533.11,1484.81,533.11Z"/><path class="cls-1" d="M1439.14,599.35a4.7,4.7,0,0,1-1.66-.27.24.24,0,0,1-.12-.3.22.22,0,0,1,.3-.12c.16.07,4,1.62,7.26-3.77a.23.23,0,0,1,.32-.08.23.23,0,0,1,.08.31C1443.2,598.67,1440.73,599.35,1439.14,599.35Z"/><path class="cls-2" d="M1471,641c-81,0-96.79,53.41-96.79,53.41s25.66,7.33,25.57,15.7c-.3,28.65-18,109.51-14.38,159.12,0,0,86.36,143.69,199.53,23.51C1585,892.72,1631.17,641,1471,641Z"/><polygon class="cls-1" points="1499.72 1136.78 1515.34 1136.78 1515.34 966.55 1505.09 977.86 1499.72 1136.78"/><path class="cls-1" d="M1460.66,1146.12s70,1.25,93.33,1.43c2.58,0,4.43-3.52,4.43-6.1h0c0-2.58-3.77-5.64-6.34-5.62-22.86.12-91.42,1-91.42,1a4.67,4.67,0,0,0-4.67,4.67h0A4.67,4.67,0,0,0,1460.66,1146.12Z"/><path class="cls-1" d="M1555.07,1154.49c-.85-5.12-5.34-8.37-10.53-8.37s-10.53,3.42-10.53,8.61c0,6.46,6.54,11,11.73,11A9.62,9.62,0,0,0,1555.07,1154.49Z"/><path class="cls-1" d="M1480.4,1154.49c-.85-5.12-5.33-8.37-10.52-8.37s-10.53,3.42-10.53,8.61c0,6.46,6.53,11,11.72,11A9.62,9.62,0,0,0,1480.4,1154.49Z"/><path class="cls-1" d="M1538.68,977.05s2.51,11.12-23.34,14.71-37-14.71-37-14.71Z"/><path class="cls-3" d="M1476.28,959.79c-.28-31.25,4.54-157.59,49-165.84,17.47-3.24,79.27-11.22,87.59,15.31,14.17,45.19-24.26,157.29-24.26,157.29s-3.47,11.91-16.12,13.25-167.23,5.8-168.75,0C1397.78,956.92,1454.24,966.18,1476.28,959.79Z"/><path class="cls-1" d="M1446.63,709.43c-.69,3.34-17.46,2.68-37.45-1.48s-35.63-10.22-34.93-13.56,17.46-2.68,37.45,1.47S1447.33,706.09,1446.63,709.43Z"/><path class="cls-8" d="M1255.92,830.2c-8.67-4.2,1-36,1-36,43-6.77,112-10.52,122.46-95.6,0-.32,11.11-2.73,29.29.78,15,2.89,30,12.15,30,12.15C1403.34,825.74,1342.92,830.2,1255.92,830.2Z"/><g class="cls-21"><path class="cls-12" d="M1361.94,800a6,6,0,0,1-4.63-1.88,6.34,6.34,0,0,1-1.16-6,12.64,12.64,0,0,1,3.91-6.2,12.77,12.77,0,0,1,6.59-3.21,5.94,5.94,0,0,1,7,7.78,12.73,12.73,0,0,1-3.92,6.2A12,12,0,0,1,1361.94,800Zm5.89-15.42a6,6,0,0,0-.93.07,11.53,11.53,0,0,0-8.9,8,4.53,4.53,0,0,0,.73,4.23c1.92,2.15,6.36,1.44,9.7-1.54a10.75,10.75,0,0,0,3.33-5.23,4.54,4.54,0,0,0-.73-4.24A4.15,4.15,0,0,0,1367.83,784.56Z"/></g><path class="cls-8" d="M1268.27,830.16s-1.38-31.12-3.68-33.21c-5.32-4.81-17.94-11.93-23.34-16.64-2.35-2-10.7-8.36-13-6.29-2,1.79,2.23,10,4.73,13.64-20.37-2.19-50.16.27-8.73,11.48v.07c-4.35-.38-31.34-3.88-32.35,2.32-.78,4.72,24.39,8.78,31.54,9.48v.2c-7.33-.08-28.54-2.93-28.93,2.6-.32,4.7,29,9.18,29,9.18s-24.35-1.53-21.3,3.65C1209.45,839.13,1268.27,830.16,1268.27,830.16Z"/><path class="cls-8" d="M1150.33,789l4.94-37.2c36-6.56,83.13-37.13,92.55-102.39,1.66-11.46,46.59-15.22,46.65-13.32C1298.15,759.6,1196.7,790.5,1150.33,789Z"/><g class="cls-21"><path class="cls-12" d="M1238.71,744h-.06a6.52,6.52,0,0,1-4.74-1.88c-3-3.05-2.14-8.83,1.94-12.87a11.55,11.55,0,0,1,8.12-3.66,6.52,6.52,0,0,1,4.74,1.87c3,3.06,2.14,8.84-1.94,12.88h0A11.77,11.77,0,0,1,1238.71,744Zm5.21-16.53a10,10,0,0,0-6.74,3.12c-3.34,3.31-4.2,7.89-1.92,10.21a4.67,4.67,0,0,0,3.4,1.31h0a10.05,10.05,0,0,0,6.74-3.11c3.34-3.31,4.2-7.9,1.92-10.22a4.73,4.73,0,0,0-3.41-1.31Z"/></g><path class="cls-8" d="M1155.27,751.84s-33.3-10.59-43.89-5.59-20.32,19.42-13.1,17.71,15.84-6.45,15.84-6.45-17.94,11-13.56,14.07,19.91-6.62,19.91-6.62-20.32,14.77-15.23,16.34,20.44-9.76,20.44-9.76-18.35,14.5-12.4,16.19,15.09-12.08,19.48-9,15.57,17.25,25.64,6.11Z"/><path class="cls-11" d="M1114.4,757.84l-.55-.66c.19-.17,4.85-4,8.55-3l-.23.84C1118.9,754.11,1114.45,757.8,1114.4,757.84Z"/><path class="cls-11" d="M1120.75,765.28l-.57-.65c.19-.16,4.63-4,10.07-3.55l-.07.86C1125.1,761.54,1120.79,765.25,1120.75,765.28Z"/><path class="cls-11" d="M1126,771.87l-.56-.66c.23-.19,5.73-4.77,9.59-3.31l-.31.81C1131.3,767.44,1126,771.83,1126,771.87Z"/><path class="cls-1" d="M1108,799.82H1001.07a5.19,5.19,0,0,1-4.93-3.54l-22.22-66.35a5.16,5.16,0,0,1,4.93-6.79h102.82a10.88,10.88,0,0,1,10.32,7.39l20.93,62.5A5.17,5.17,0,0,1,1108,799.82Z"/><path class="cls-1" d="M1101.27,799.82H994.36a5.19,5.19,0,0,1-4.93-3.54l-22.22-66.35a5.16,5.16,0,0,1,4.93-6.79H1075a10.88,10.88,0,0,1,10.32,7.39L1106.2,793A5.16,5.16,0,0,1,1101.27,799.82Z"/><path class="cls-20" d="M1026.36,759.31c0-2.52,2.91-3.55,5.44-3.55s6.68,2.77,6.65,6.3c0,3.8-3,4.3-5.54,4.3S1026.36,762.51,1026.36,759.31Z"/><path class="cls-1" d="M1140.58,790.44H994.3v9.38h149.34a3.17,3.17,0,0,0,3.16-3.16h0A6.22,6.22,0,0,0,1140.58,790.44Z"/><path class="cls-3" d="M1093.67,756.69c-.05-.2-5.3-19.87-8.69-26s-7.48-7.21-7.52-7.23l.19-.66c.18.05,4.45,1.28,7.93,7.56s8.55,25.33,8.76,26.14Z"/><path class="cls-3" d="M1109.47,790.79c-4,0-5-1.76-5-1.83L1096.13,764l.65-.22,8.34,24.88h0s.9,1.41,4.35,1.41Z"/><polygon class="cls-22" points="772.39 794.83 844.09 794.06 884.84 828.39 798.13 830.62 772.39 794.83"/></g></g></svg>